<svg xmlns="http://www.w3.org/2000/svg" version="1.1" x="0" y="0" width="500" height="500" viewBox="0 0 500 500">
  <g>
    <path d="M58.17 415.94L58.17 438.63 12.8 438.63 12.8 415.94 58.17 415.94z"/>
    <path d="M58.17 415.94L58.17 438.63 12.8 438.63 12.8 415.94 58.17 415.94z" fill-opacity="0" stroke-width="1"/>
    <path d="M486.23 415.34L486.23 438.03 440.86 438.03 440.86 415.34 486.23 415.34z"/>
    <path d="M486.23 415.34L486.23 438.03 440.86 438.03 440.86 415.34 486.23 415.34z" fill-opacity="0" stroke-width="1"/>
    <path d="M437.51 209.81L499.47 333.72 499.47 401.78 0.39 401.78 0.39 333.72 62.34 209.81 437.51 209.81z"/>
    <path d="M437.51 209.81L499.47 333.72 499.47 401.78 0.39 401.78 0.39 333.72 62.34 209.81 437.51 209.81z" fill-opacity="0" stroke-width="1"/>
    <path d="M91.13 61.5L91.13 84.19 408.72 84.19 408.72 61.5 431.41 61.5 431.41 197.59 408.72 197.59 408.72 174.93C408.72 162.4 398.57 152.24 386.04 152.24L295.3 152.24C282.77 152.24 272.61 162.4 272.61 174.93L272.61 197.59 227.24 197.59 227.24 174.93C227.24 162.4 217.09 152.24 204.56 152.24L113.82 152.24C101.29 152.24 91.13 162.4 91.13 174.93L91.13 197.59 68.44 197.59 68.44 61.5 91.13 61.5z"/>
    <path d="M91.13 61.5L91.13 84.19 408.72 84.19 408.72 61.5 431.41 61.5 431.41 197.59 408.72 197.59 408.72 174.93C408.72 162.4 398.57 152.24 386.04 152.24L295.3 152.24C282.77 152.24 272.61 162.4 272.61 174.93L272.61 197.59 227.24 197.59 227.24 174.93C227.24 162.4 217.09 152.24 204.56 152.24L113.82 152.24C101.29 152.24 91.13 162.4 91.13 174.93L91.13 197.59 68.44 197.59 68.44 61.5 91.13 61.5z" fill-opacity="0" stroke-width="1"/>
  </g>
</svg>