<svg xmlns="http://www.w3.org/2000/svg" xmlns:xlink="http://www.w3.org/1999/xlink" version="1.1" id="svg" x="0" y="0" viewBox="0 0 390 390" xml:space="preserve" enable-background="new 0 0 390 390">
<g>
  <path d="M383.41 84.9H132.23v31.33h231.24v166.81H132.23v41.23h42.01l-29.6 28.52c-0.98 0.94-1.53 2.24-1.53 3.6v6.4c0 2.76 2.24 5 5 5h151.38c2.76 0 5-2.24 5-5v-6.4c0-1.36-0.55-2.66-1.53-3.6l-29.6-28.52h110.04c3.64 0 6.59-2.95 6.59-6.6V91.49C390 87.85 387.05 84.9 383.41 84.9zM223.8 297.55c4.01 0 7.25 3.25 7.25 7.25 0 4.01-3.25 7.25-7.25 7.25 -4 0-7.25-3.25-7.25-7.25C216.55 300.8 219.8 297.55 223.8 297.55z"/>
  <path d="M101.61 22.23H8.08C3.62 22.23 0 25.84 0 30.3v329.06c0 4.46 3.62 8.08 8.08 8.08h93.53c4.46 0 8.08-3.61 8.08-8.08V30.3C109.68 25.84 106.07 22.23 101.61 22.23zM46.17 63.25c0-0.7 0.57-1.28 1.28-1.28H62.24c0.71 0 1.28 0.57 1.28 1.28v127.42c0 0.71-0.57 1.28-1.28 1.28H47.45c-0.71 0-1.28-0.57-1.28-1.28V63.25zM62.44 257.65c0 4.2-3.4 7.6-7.6 7.6 -4.2 0-7.6-3.4-7.6-7.6 0-4.2 3.4-7.6 7.6-7.6C59.04 250.05 62.44 253.45 62.44 257.65zM54.84 318.29c-9.88 0-17.89-8.01-17.89-17.89 0-9.88 8.01-17.89 17.89-17.89 9.88 0 17.89 8.01 17.89 17.89C72.73 310.28 64.72 318.29 54.84 318.29z"/>
</g>
</svg>