<?xml version="1.0" encoding="iso-8859-1"?>
<!-- Generator: Adobe Illustrator 19.0.0, SVG Export Plug-In . SVG Version: 6.00 Build 0)  -->
<svg version="1.1" id="Capa_1" xmlns="http://www.w3.org/2000/svg" xmlns:xlink="http://www.w3.org/1999/xlink" x="0px" y="0px"
	 viewBox="0 0 512 512" style="enable-background:new 0 0 512 512;" xml:space="preserve">
	<g>
		<path d="M403.064,32.681H108.936c-4.512,0-8.17,3.658-8.17,8.17v121.646c0,4.512,3.658,8.17,8.17,8.17h294.128
			c4.513,0,8.17-3.658,8.17-8.17V40.851C411.234,36.339,407.577,32.681,403.064,32.681z M166.128,154.327h-16.34V81.702h16.34
			V154.327z M296.851,154.327h-16.34V81.702h16.34V154.327z M362.213,154.327h-16.34V81.702h16.34V154.327z M394.894,154.327h-16.34
			V73.532c0-4.512-3.657-8.17-8.17-8.17h-32.681c-4.513,0-8.17,3.658-8.17,8.17v80.795h-16.34V73.532c0-4.512-3.657-8.17-8.17-8.17
			H272.34c-4.513,0-8.17,3.658-8.17,8.17v80.795h-81.702V73.532c0-4.512-3.658-8.17-8.17-8.17h-32.681
			c-4.512,0-8.17,3.658-8.17,8.17v80.795h-16.34V49.021h277.787V154.327z"/>
		<path d="M435.745,0H76.255c-4.512,0-8.17,3.658-8.17,8.17v495.66c0,4.512,3.658,8.17,8.17,8.17h359.489
			c4.513,0,8.17-3.658,8.17-8.17V8.17C443.915,3.658,440.258,0,435.745,0z M427.574,495.66H84.426V16.34h343.149V495.66z"/>
		<path d="M403.064,341.333H108.936c-4.512,0-8.17,3.658-8.17,8.17v44.482c0,4.512,3.658,8.17,8.17,8.17
			c4.512,0,8.17-3.658,8.17-8.17v-36.312h277.787v105.305h-16.34v-80.795c0-4.512-3.657-8.17-8.17-8.17h-32.681
			c-4.513,0-8.17,3.658-8.17,8.17v80.795h-16.34v-80.795c0-4.512-3.657-8.17-8.17-8.17H272.34c-4.513,0-8.17,3.658-8.17,8.17v80.795
			h-16.34v-80.795c0-4.512-3.658-8.17-8.17-8.17h-32.681c-4.512,0-8.17,3.658-8.17,8.17v80.795h-81.702v-36.312
			c0-4.512-3.658-8.17-8.17-8.17c-4.512,0-8.17,3.658-8.17,8.17v44.482c0,4.512,3.658,8.17,8.17,8.17h294.128
			c4.513,0,8.17-3.658,8.17-8.17V349.503C411.234,344.991,407.577,341.333,403.064,341.333z M231.489,462.979h-16.34v-72.624h16.34
			V462.979z M296.851,462.979h-16.34v-72.624h16.34V462.979z M362.213,462.979h-16.34v-72.624h16.34V462.979z"/>
		<path d="M403.064,187.007H108.936c-4.512,0-8.17,3.658-8.17,8.17v121.646c0,4.511,3.658,8.169,8.17,8.169h294.128
			c4.513,0,8.17-3.658,8.17-8.17V195.178C411.234,190.666,407.577,187.007,403.064,187.007z M166.128,308.652h-16.34v-72.625h16.34
			V308.652z M231.489,308.652h-16.34v-72.625h16.34V308.652z M296.851,308.652h-16.34v-72.625h16.34V308.652z M362.213,308.652
			h-16.34v-72.625h16.34V308.652z M394.894,308.653h-16.34v-80.795c0-4.512-3.657-8.17-8.17-8.17h-32.681
			c-4.513,0-8.17,3.658-8.17,8.17v80.795h-16.34v-80.795c0-4.512-3.657-8.17-8.17-8.17H272.34c-4.513,0-8.17,3.658-8.17,8.17v80.795
			h-16.34v-80.795c0-4.512-3.658-8.17-8.17-8.17h-32.681c-4.512,0-8.17,3.658-8.17,8.17v80.795h-16.34v-80.795
			c0-4.512-3.658-8.17-8.17-8.17h-32.681c-4.512,0-8.17,3.658-8.17,8.17v80.795h-16.34V203.348h277.787V308.653z"/>
	</g>
</svg>
