<?xml version="1.0" encoding="iso-8859-1"?>
<!-- Generator: Adobe Illustrator 19.0.0, SVG Export Plug-In . SVG Version: 6.00 Build 0)  -->
<svg version="1.1" id="Layer_1" xmlns="http://www.w3.org/2000/svg" xmlns:xlink="http://www.w3.org/1999/xlink" x="0px" y="0px"
	 viewBox="0 0 512.001 512.001" style="enable-background:new 0 0 512.001 512.001;" xml:space="preserve">
	<g>
		<path d="M478.377,86.928L269.374,2.608c-8.625-3.478-18.125-3.477-26.749,0.001L33.623,86.928
			c-18.28,7.375-27.153,28.247-19.778,46.528c7.375,18.28,28.247,27.152,46.529,19.779l19.35-7.806v356.374
			c0,5.632,4.566,10.199,10.199,10.199h88.54h155.075h88.54c5.633,0,10.199-4.567,10.199-10.199V145.428l19.354,7.808
			c4.284,1.726,8.779,2.602,13.364,2.602c14.66,0,27.677-8.785,33.162-22.382C505.53,115.175,496.658,94.302,478.377,86.928z
			 M168.264,491.602h-68.142v-44.875h68.142V491.602z M168.264,426.329h-68.142v-41.851h68.142V426.329z M168.264,364.081h-68.142
			v-44.769h68.142V364.081z M168.264,298.914h-68.142v-41.85h68.142V298.914z M323.339,491.602H188.662V231.968h134.677V491.602z
			 M411.878,491.602h-68.142v-44.875h68.142V491.602z M411.878,426.329h-68.142v-41.851h68.142V426.329z M411.878,364.081h-68.142
			v-44.769h68.142V364.081z M411.878,298.914h-68.142v-41.85h68.142V298.914z M411.878,236.664h-68.142v-14.896
			c0-5.632-4.566-10.199-10.199-10.199H178.462c-5.633,0-10.199,4.567-10.199,10.199v14.896h-68.141v-45.931h184.3
			c5.633,0,10.199-4.567,10.199-10.199s-4.566-10.199-10.199-10.199h-184.3v-33.138l21.117-8.677h269.129l21.511,8.678V236.664z
			 M172.192,108.122L256,74.312l83.807,33.81H172.192z M479.239,125.824c-2.357,5.842-7.948,9.616-14.245,9.616
			c-1.958,0-3.889-0.377-5.736-1.122L259.816,53.855c-1.224-0.494-2.52-0.741-3.815-0.741c-1.295,0-2.592,0.247-3.815,0.741
			L52.743,134.317c-7.851,3.166-16.815-0.643-19.981-8.493c-3.167-7.85,0.643-16.813,8.493-19.981l209.001-84.318
			c3.704-1.494,7.785-1.494,11.489-0.001l209.002,84.319C478.596,109.01,482.406,117.973,479.239,125.824z"/>
		<path d="M360.914,170.336h-33.656c-5.633,0-10.199,4.567-10.199,10.199s4.566,10.199,10.199,10.199h33.656
			c5.633,0,10.199-4.567,10.199-10.199S366.547,170.336,360.914,170.336z"/>
		<path d="M219.149,334.538c-7.311,0-13.259,5.948-13.259,13.259s5.948,13.259,13.259,13.259s13.259-5.948,13.259-13.259
			S226.46,334.538,219.149,334.538z"/>
	</g>
</svg>
