<?xml version='1.0' encoding='iso-8859-1'?>
<!DOCTYPE svg PUBLIC '-//W3C//DTD SVG 1.1//EN' 'http://www.w3.org/Graphics/SVG/1.1/DTD/svg11.dtd'>
<svg version="1.1" xmlns="http://www.w3.org/2000/svg" viewBox="0 0 315 315" xmlns:xlink="http://www.w3.org/1999/xlink" enable-background="new 0 0 315 315">
  <g>
    <path d="m308,93.368h-219.272c-3.866,0-7,3.134-7,7v41.282c0,3.866 3.134,7 7,7h102.636v126.43h-39.359c-3.866,0-7,3.134-7,7 0,3.866 3.134,7 7,7h92.72c3.866,0 7-3.134 7-7 0-3.866-3.134-7-7-7h-39.36v-126.43h102.635c3.866,0 7-3.134 7-7v-41.282c0-3.866-3.134-7-7-7zm-7,41.282h-205.272v-27.282h205.272v27.282z"/>
    <path d="m107.839,170.859h-93.839v-49.389h10.595c2.489,0 4.792-1.322 6.047-3.473 0.426-0.73 10.429-18.179 10.429-44.304s-10.004-43.571-10.43-44.301c-1.254-2.15-3.557-3.473-6.046-3.473h-17.595c-3.866,0-7,3.134-7,7v81.55 63.389 29.777 74.443c0,3.866 3.134,7 7,7s7-3.134 7-7v-67.443h86.839v67.443c0,3.866 3.134,7 7,7 3.866,0 7-3.134 7-7v-74.443-29.777c0-3.865-3.134-6.999-7-6.999zm-93.839-130.939h6.249c2.486,5.623 6.821,17.729 6.821,33.773 0,15.9-4.354,28.103-6.843,33.776h-6.227v-67.549zm0,144.939h86.839v15.777h-86.839v-15.777z"/>
  </g>
</svg>
