<svg height="512pt" viewBox="0 0 512 512" width="512pt" xmlns="http://www.w3.org/2000/svg"><path d="m201.886719 416.769531h-201.886719v-39.980469h59.964844v-67.960937h39.980468v67.960937h101.941407zm0-187.894531h-101.941407v-61.96875h-39.980468v61.96875h-59.964844v39.976562h201.886719zm236.011719 94.089844 74.101562-74.101563-74.101562-74.101562-28.269532 28.269531 25.84375 25.84375h-84.667968v-108.941406h84.667968l-25.84375 25.84375 28.269532 28.269531 74.101562-74.101563-74.101562-74.101562-28.269532 28.269531 25.84375 25.84375h-84.667968v-19.992187c0-33.0625-26.898438-59.964844-59.964844-59.964844h-170.90625c-33.066406 0-59.96875 26.902344-59.96875 59.964844v19.992187h-59.964844v39.976563h201.886719v-39.976563h-101.941407v-19.992187c0-11.019532 8.964844-19.988282 19.988282-19.988282h170.90625c11.019531 0 19.988281 8.96875 19.988281 19.988282v391.785156c0 11.019531-8.96875 19.988281-19.988281 19.988281h-170.90625c-11.023438 0-19.988282-8.96875-19.988282-19.988281h-39.980468c0 33.066406 26.902344 59.964844 59.96875 59.964844h170.90625c33.066406 0 59.964844-26.898438 59.964844-59.964844v-34.980469h85.667968l-26.84375 26.84375 28.269532 28.269531 74.101562-74.101562-74.101562-74.101562-28.269532 28.269531 24.847656 24.839843h-83.671874v-107.9375h84.667968l-25.84375 25.84375zm0 0"/></svg>