<?xml version="1.0" encoding="utf-8"?>
<!-- Generator: Adobe Illustrator 16.0.0, SVG Export Plug-In . SVG Version: 6.00 Build 0)  -->
<!DOCTYPE svg PUBLIC "-//W3C//DTD SVG 1.1//EN" "http://www.w3.org/Graphics/SVG/1.1/DTD/svg11.dtd">
<svg version="1.1" id="Capa_1" xmlns="http://www.w3.org/2000/svg" xmlns:xlink="http://www.w3.org/1999/xlink" x="0px" y="0px"
	 width="439.363px" height="439.363px" viewBox="0 0 439.363 439.363" enable-background="new 0 0 439.363 439.363"
	 xml:space="preserve">
<g>
	<path d="M438.951,362.147c1.143-2.471-0.094-5.518-3.709-9.139L232.535,150.309c-1.524-1.719-3.334-2.955-5.424-3.715h193.572
		c4.952,0,9.234-1.809,12.85-5.424c3.617-3.617,5.427-7.9,5.427-12.848V91.776c0-4.951-1.81-9.232-5.427-12.85
		c-3.619-3.617-7.9-5.426-12.85-5.426H18.697c-4.947,0-9.236,1.808-12.846,5.424c-3.621,3.621-5.43,7.902-5.43,12.851v36.543
		c0,4.947,1.809,9.229,5.43,12.847c3.609,3.615,7.896,5.424,12.846,5.424h193.568c-1.902,0.764-3.717,2-5.424,3.715L4.128,353.008
		c-3.617,3.621-4.859,6.668-3.721,9.139c1.145,2.479,4.189,3.716,9.139,3.716h420.27
		C434.763,365.863,437.81,364.625,438.951,362.147z"/>
</g>
</svg>
