<?xml version="1.0" encoding="iso-8859-1"?>
<!-- Generator: Adobe Illustrator 19.0.0, SVG Export Plug-In . SVG Version: 6.00 Build 0)  -->
<svg version="1.1" id="Layer_1" xmlns="http://www.w3.org/2000/svg" xmlns:xlink="http://www.w3.org/1999/xlink" x="0px" y="0px"
	 viewBox="0 0 512 512" style="enable-background:new 0 0 512 512;" xml:space="preserve">
<g>
	<g>
		<path d="M501.801,410.008h-54.566V220.303h25.498v126.47c0,5.633,4.567,10.199,10.199,10.199c5.632,0,10.199-4.566,10.199-10.199
			v-126.47h8.669c5.632,0,10.199-4.566,10.199-10.199c0-5.633-4.567-10.199-10.199-10.199h-99.952V52.016
			c0-5.633-4.567-10.199-10.199-10.199H120.351c-5.632,0-10.199,4.566-10.199,10.199v147.888H10.199
			C4.567,199.904,0,204.471,0,210.104c0,5.633,4.567,10.199,10.199,10.199h8.669v189.705h-8.669C4.567,410.008,0,414.574,0,420.207
			v39.777c0,5.633,4.567,10.199,10.199,10.199h491.602c5.632,0,10.199-4.566,10.199-10.199v-39.777
			C512,414.574,507.433,410.008,501.801,410.008z M401.849,220.303h24.988v189.705h-24.988V220.303z M130.55,62.215h250.9v137.689
			h-24.541V98.932c0-5.633-4.567-10.199-10.199-10.199H165.29c-5.632,0-10.199,4.566-10.199,10.199v100.972H130.55V62.215z
			 M381.45,220.303v189.705h-24.541V220.303H381.45z M265.689,199.904v-90.773h70.821v90.773H265.689z M336.51,220.303v189.705
			h-24.925V220.303H336.51z M291.187,220.303v189.705h-25.498V220.303H291.187z M175.49,199.904v-90.773h69.801v90.773H175.49z
			 M245.291,220.303v189.705h-24.478V220.303H245.291z M200.414,220.303v189.705H175.49V220.303H200.414z M130.55,220.303h24.541
			v189.705H130.55V220.303z M84.143,220.303h26.008v189.705H84.143V220.303z M39.267,220.303h24.478v189.705H39.267V220.303z
			 M491.602,449.785H20.398v-19.378h471.203V449.785z"/>
	</g>
</g>
<g>
	<g>
		<path d="M482.932,369.211c-5.632,0-10.199,4.566-10.199,10.199v7.139c0,5.633,4.567,10.199,10.199,10.199
			c5.632,0,10.199-4.566,10.199-10.199v-7.139C493.131,373.777,488.564,369.211,482.932,369.211z"/>
	</g>
</g>
<g>
</g>
<g>
</g>
<g>
</g>
<g>
</g>
<g>
</g>
<g>
</g>
<g>
</g>
<g>
</g>
<g>
</g>
<g>
</g>
<g>
</g>
<g>
</g>
<g>
</g>
<g>
</g>
<g>
</g>
</svg>
