<?xml version="1.0" encoding="iso-8859-1"?>
<!-- Generator: Adobe Illustrator 18.0.0, SVG Export Plug-In . SVG Version: 6.00 Build 0)  -->
<!DOCTYPE svg PUBLIC "-//W3C//DTD SVG 1.1//EN" "http://www.w3.org/Graphics/SVG/1.1/DTD/svg11.dtd">
<svg version="1.1" id="Capa_1" xmlns="http://www.w3.org/2000/svg" xmlns:xlink="http://www.w3.org/1999/xlink" x="0px" y="0px"
	 viewBox="0 0 50 50" style="enable-background:new 0 0 50 50;" xml:space="preserve">
<path d="M10.5,19.041c0-0.829,0.671-1.5,1.5-1.5h26c0.829,0,1.5,0.671,1.5,1.5c0,0.829-0.671,1.5-1.5,1.5H12
	C11.171,20.541,10.5,19.87,10.5,19.041z M12,37.334h26c0.829,0,1.5-0.671,1.5-1.5c0-0.829-0.671-1.5-1.5-1.5H12
	c-0.829,0-1.5,0.671-1.5,1.5C10.5,36.663,11.171,37.334,12,37.334z M12,26.068h26c0.829,0,1.5-0.671,1.5-1.5s-0.671-1.5-1.5-1.5H12
	c-0.829,0-1.5,0.671-1.5,1.5S11.171,26.068,12,26.068z M12,31.807h26c0.829,0,1.5-0.671,1.5-1.5c0-0.829-0.671-1.5-1.5-1.5H12
	c-0.829,0-1.5,0.671-1.5,1.5C10.5,31.135,11.171,31.807,12,31.807z M45.5,13.25v28.375h3c0.829,0,1.5,0.671,1.5,1.5
	c0,0.829-0.671,1.5-1.5,1.5h-47c-0.829,0-1.5-0.671-1.5-1.5c0-0.829,0.671-1.5,1.5-1.5h3V13.25h-3c-0.829,0-1.5-0.671-1.5-1.5V6.875
	c0-0.829,0.671-1.5,1.5-1.5h47c0.829,0,1.5,0.671,1.5,1.5v4.875c0,0.829-0.671,1.5-1.5,1.5H45.5z M42.5,13.25h-35v28.375h35V13.25z"
	/>
<g>
</g>
<g>
</g>
<g>
</g>
<g>
</g>
<g>
</g>
<g>
</g>
<g>
</g>
<g>
</g>
<g>
</g>
<g>
</g>
<g>
</g>
<g>
</g>
<g>
</g>
<g>
</g>
<g>
</g>
</svg>
