<?xml version="1.0" encoding="iso-8859-1"?>
<!-- Generator: Adobe Illustrator 16.0.0, SVG Export Plug-In . SVG Version: 6.00 Build 0)  -->
<!DOCTYPE svg PUBLIC "-//W3C//DTD SVG 1.1//EN" "http://www.w3.org/Graphics/SVG/1.1/DTD/svg11.dtd">
<svg version="1.1" id="Capa_1" xmlns="http://www.w3.org/2000/svg" xmlns:xlink="http://www.w3.org/1999/xlink" x="0px" y="0px"
	 width="233.521px" height="233.52px" viewBox="0 0 233.521 233.52" style="enable-background:new 0 0 233.521 233.52;"
	 xml:space="preserve">
<g>
	<g>
		<g>
			<path d="M198.57,57.213c0,0,22.729-37.422-16.064-18.476c-1.263-9.669-12.564-38.876-20.003-38.725
				c-7.438,0.15-8.567,38.999-13.098,55.911c-23.561-9.386-53.539-2.865-74.938,18.535c-21.399,21.398-27.92,51.376-18.534,74.938
				c-16.913,4.53-54.968,3.342-55.912,13.096c-0.943,9.754,29.056,18.742,38.726,20.003c-18.946,38.792,18.476,16.065,18.476,16.065
				s13.567,48.562,20.998,31.199c6.912-16.154,7.549-36.825,7.863-50.028c23.606,9.564,53.752,3.077,75.242-18.414
				c21.492-21.492,27.979-51.638,18.414-75.243c13.203-0.314,33.874-0.951,50.028-7.864C247.134,70.78,198.57,57.213,198.57,57.213z
				 M76.667,192.089c-3.705,8.655-10.957-21.955-10.957-21.955c-4.82-0.628-21.72-2.444-22.425-6.938
				c-0.604-3.845,8.919-3.783,16.934-5.262c2.172,3.521,4.766,6.825,7.787,9.846c3.313,3.312,6.965,6.109,10.872,8.402
				C79.194,180.753,79.291,185.956,76.667,192.089z M150.16,73.032c-0.005,0.006-0.011,0.012-0.016,0.017
				c-0.289,0.288-0.721,0.39-1.083,0.232c-19.614-8.51-44.287-2.733-61.394,14.374c-17.107,17.108-22.884,41.78-14.375,61.396
				c0.189,0.435,0.006,0.968-0.422,1.233c-0.429,0.269-0.965,0.184-1.244-0.195c-6.954-9.478-9.867-21.679-8.201-34.356
				c1.678-12.775,7.913-25.12,17.555-34.762c9.642-9.642,21.987-15.877,34.763-17.554c12.636-1.661,24.796,1.227,34.261,8.131
				c0.071,0.039,0.138,0.087,0.198,0.147C150.558,72.049,150.537,72.646,150.16,73.032z M192.1,76.656
				c-6.132,2.624-11.336,2.527-15.907,2.211c-2.293-3.907-5.09-7.56-8.402-10.872c-3.021-3.021-6.324-5.614-9.847-7.787
				c1.479-8.015,1.417-17.538,5.264-16.934c4.494,0.705,6.31,17.605,6.938,22.427C170.145,65.7,200.757,72.951,192.1,76.656z"/>
		</g>
	</g>
</g>
<g>
</g>
<g>
</g>
<g>
</g>
<g>
</g>
<g>
</g>
<g>
</g>
<g>
</g>
<g>
</g>
<g>
</g>
<g>
</g>
<g>
</g>
<g>
</g>
<g>
</g>
<g>
</g>
<g>
</g>
</svg>
