<svg height="682.66669pt" viewBox="-21 -21 682.66669 682.66669" width="682.66669pt" xmlns="http://www.w3.org/2000/svg"><path d="m322.820312 387.933594 279.949219-307.273438 36.957031 33.671875-314.339843 345.023438-171.363281-162.902344 34.453124-36.238281zm297.492188-178.867188-38.988281 42.929688c5.660156 21.734375 8.675781 44.523437 8.675781 68.003906 0 148.875-121.125 270-270 270s-270-121.125-270-270 121.125-270 270-270c68.96875 0 131.96875 26.007812 179.746094 68.710938l33.707031-37.113282c-58.761719-52.738281-133.886719-81.597656-213.453125-81.597656-85.472656 0-165.835938 33.285156-226.273438 93.726562-60.441406 60.4375-93.726562 140.800782-93.726562 226.273438s33.285156 165.835938 93.726562 226.273438c60.4375 60.441406 140.800782 93.726562 226.273438 93.726562s165.835938-33.285156 226.273438-93.726562c60.441406-60.4375 93.726562-140.800782 93.726562-226.273438 0-38.46875-6.761719-75.890625-19.6875-110.933594zm0 0"/></svg>