<svg xmlns="http://www.w3.org/2000/svg" version="1.1" id="svg" x="0" y="0" width="94.93" height="94.93" viewBox="0 0 94.93 94.93" xml:space="preserve">
<g>
  <path d="M55.93 47.46L94.31 9.09c0.83-0.83 0.83-2.17 0-2.99L88.83 0.62C88.44 0.22 87.9 0 87.34 0c-0.56 0-1.1 0.22-1.5 0.62L47.46 38.99 9.09 0.62c-0.79-0.79-2.2-0.79-2.99 0L0.62 6.1c-0.83 0.83-0.83 2.17 0 2.99l38.37 38.37L0.62 85.84c-0.83 0.83-0.83 2.17 0 2.99l5.47 5.48c0.4 0.4 0.94 0.62 1.5 0.62s1.1-0.22 1.5-0.62l38.37-38.37 38.37 38.37c0.4 0.4 0.94 0.62 1.5 0.62s1.1-0.22 1.5-0.62l5.47-5.48c0.83-0.83 0.83-2.17 0-2.99L55.93 47.46z"/>
</g>
</svg>