<?xml version="1.0" encoding="iso-8859-1"?>
<!-- Generator: Adobe Illustrator 19.0.0, SVG Export Plug-In . SVG Version: 6.00 Build 0)  -->
<svg version="1.1" id="Layer_1" xmlns="http://www.w3.org/2000/svg" xmlns:xlink="http://www.w3.org/1999/xlink" x="0px" y="0px"
	 viewBox="0 0 512 512" style="enable-background:new 0 0 512 512;" xml:space="preserve">
<g>
	<g>
		<rect x="26.205" y="455.627" width="459.593" height="47.533"/>
	</g>
</g>
<g>
	<g>
		<path d="M0,8.84v138.788h30.417v-0.001h451.166H512V8.84H0z M256,119.086c-14.162,0-25.644-11.482-25.644-25.644
			S241.838,67.799,256,67.799c14.162,0,25.644,11.481,25.644,25.644C281.644,107.605,270.162,119.086,256,119.086z"/>
	</g>
</g>
<g>
	<g>
		<path d="M481.583,178.045H30.417H0v108.372h30.417h451.166H512V178.045H481.583z M256,257.875
			c-14.162,0-25.644-11.482-25.644-25.644s11.481-25.644,25.644-25.644c14.162,0,25.644,11.482,25.644,25.644
			C281.644,246.393,270.162,257.875,256,257.875z"/>
	</g>
</g>
<g>
	<g>
		<path d="M481.583,316.834H30.417H0v108.371h30.417h26.205h398.755h26.205H512V316.834H481.583z M256,396.663
			c-14.162,0-25.644-11.482-25.644-25.644c0-14.162,11.481-25.644,25.644-25.644c14.162,0,25.644,11.482,25.644,25.644
			C281.644,385.182,270.162,396.663,256,396.663z"/>
	</g>
</g>
<g>
</g>
<g>
</g>
<g>
</g>
<g>
</g>
<g>
</g>
<g>
</g>
<g>
</g>
<g>
</g>
<g>
</g>
<g>
</g>
<g>
</g>
<g>
</g>
<g>
</g>
<g>
</g>
<g>
</g>
</svg>
