<svg xmlns="http://www.w3.org/2000/svg" xmlns:xlink="http://www.w3.org/1999/xlink" version="1.1" id="svg" x="0" y="0" width="612.38" height="612.38" viewBox="0 0 612.38 612.38" xml:space="preserve" enable-background="new 0 0 612.376 612.377">
  <g fill="#fff">
    <path d="M499.22 444.72c-5.67 0-10.26 4.64-10.26 10.34 0 5.73 4.59 10.34 10.26 10.34 5.66 0 10.26-4.61 10.26-10.33C509.47 449.36 504.88 444.72 499.22 444.72zM499.22 351.64c-5.67 0-10.26 4.63-10.26 10.32 0 5.71 4.59 10.36 10.26 10.36 5.66 0 10.26-4.64 10.26-10.35C509.47 356.28 504.88 351.64 499.22 351.64zM406.87 424.02c-5.67 0-10.26 4.64-10.26 10.36 0 5.69 4.59 10.34 10.26 10.34 5.66 0 10.26-4.64 10.26-10.33C417.13 428.66 412.53 424.02 406.87 424.02zM406.87 330.94c-5.67 0-10.26 4.62-10.26 10.36 0 5.69 4.59 10.34 10.26 10.34 5.66 0 10.26-4.64 10.26-10.33C417.13 335.58 412.53 330.94 406.87 330.94zM601.5 373.95c-29.71-109.81-112.2-183.35-184.26-164.2 -27.42 7.27-71.6 25.7-102.71 27.8v-30.7h-0.08c0.02-1.76 0.08-3.33 0.08-5.16 0-31.43-25.27-56.88-56.44-56.88h-82.09c-19.83 0-35.91-16.21-35.91-36.2 0-20.01 16.08-36.22 35.91-36.22h118.01c11.33 0 20.52-9.25 20.52-20.68V10.33C314.52 4.62 309.93 0 304.26 0c-5.67 0-10.25 4.63-10.25 10.33v20.7c0 20.5-0.84 20.68-20.53 20.68h-97.48c-31.17 0-56.44 25.46-56.44 56.9 0 31.41 25.27 56.88 56.44 56.88h82.09c19.83 0 35.91 16.21 35.91 36.2 0 1.84 0.06 3.42 0.09 5.16h-0.08v30.86c-30.73-2.17-74.26-20.64-101.3-27.95 -71.16-19.2-152.62 54.67-181.96 165 -29.33 110.34 4.57 215.37 75.73 234.6 53.09 14.32 111.85-23.26 150.48-89.05 21.34 4.54 43.85 7.15 67.31 7.15 23.76 0 46.55-4.14 68.16-8.66 39.12 65.49 98.61 102.9 152.38 88.64C596.86 588.29 631.2 483.76 601.5 373.95zM201.66 393h-41.04v41.38c0 5.69-4.59 10.34-10.26 10.34 -5.67 0-10.26-4.64-10.26-10.33v-41.38H99.04c-5.67 0-10.26-4.62-10.26-10.33s4.59-10.33 10.26-10.33h41.04v-41.38c0-5.69 4.59-10.35 10.26-10.35 5.66 0 10.26 4.66 10.26 10.36v41.38h41.04c5.66 0 10.26 4.62 10.26 10.34S207.32 393 201.66 393zM406.87 465.4c-17 0-30.78-13.9-30.78-31.01 0-17.14 13.78-31.01 30.78-31.01 17 0 30.78 13.89 30.78 31.01C437.65 451.49 423.87 465.4 406.87 465.4zM406.87 372.32c-17 0-30.78-13.9-30.78-31.01 0-17.14 13.78-31.03 30.78-31.03 17 0 30.78 13.9 30.78 31.03C437.65 358.43 423.87 372.32 406.87 372.32zM499.22 486.08c-17.01 0-30.78-13.88-30.78-31.01 0-17.14 13.78-31.03 30.78-31.03 17 0 30.78 13.9 30.78 31.03C530 472.19 516.22 486.08 499.22 486.08zM499.22 393c-17.01 0-30.78-13.9-30.78-31.03 0-17.12 13.78-31.01 30.78-31.01 17 0 30.78 13.9 30.78 31.01C530 379.1 516.22 393 499.22 393z"/>
  </g>
</svg>