<svg xmlns="http://www.w3.org/2000/svg" xmlns:xlink="http://www.w3.org/1999/xlink" version="1.1" id="svg" x="0" y="0" viewBox="0 0 213.94 213.94" xml:space="preserve" enable-background="new 0 0 213.942 213.942">
<g>
  <path d="M208.94 44.27H5c-2.76 0-5 2.24-5 5v10.3c0 2.76 2.24 5 5 5h6.58v16.32 47.6 26.95c-3.27 1.78-5.5 5.25-5.5 9.23 0 2.76 2.24 5 5 5h11c0.01 0 0.02 0 0.02 0 2.76 0 5-2.24 5-5 0-0.21-0.01-0.42-0.04-0.62 -0.22-3.72-2.38-6.91-5.48-8.6v-21.96h97.52v31.07c0 2.76 2.24 5 5 5h71.49c2.76 0 5-2.24 5-5V64.57h8.35c2.76 0 5-2.24 5-5V49.27C213.94 46.51 211.7 44.27 208.94 44.27zM186.07 100.83v51.78h-51.33v-51.78H186.07zM134.74 86.03V67.49h51.33v18.53H134.74zM21.58 75.89v-11.32h97.52v11.32H21.58z"/>
</g>
</svg>