<?xml version="1.0" encoding="iso-8859-1"?>
<!-- Generator: Adobe Illustrator 19.0.0, SVG Export Plug-In . SVG Version: 6.00 Build 0)  -->
<svg version="1.1" id="Capa_1" xmlns="http://www.w3.org/2000/svg" xmlns:xlink="http://www.w3.org/1999/xlink" x="0px" y="0px"
	 viewBox="0 0 512 512" style="enable-background:new 0 0 512 512;" xml:space="preserve">
		<g fill="#fff">
			<path d="M476.69,353.103h-8.828v-62.526c0-36.565-29.642-66.207-66.207-66.207s-66.207,29.642-66.207,66.207v62.526h-8.828
				c-4.875,0-8.828,3.952-8.828,8.828v97.103c0.034,29.238,23.728,52.931,52.966,52.966h61.793
				c29.238-0.034,52.932-23.728,52.966-52.966v-97.103C485.517,357.056,481.565,353.103,476.69,353.103z M432.137,459.034h-60.963
				c-4.875,0-8.828-3.952-8.828-8.828c0-4.875,3.952-8.828,8.828-8.828h60.963c4.875,0,8.828,3.952,8.828,8.828
				C440.964,455.082,437.012,459.034,432.137,459.034z M432.137,414.897h-60.963c-4.875,0-8.828-3.952-8.828-8.828
				c0-4.875,3.952-8.828,8.828-8.828h60.963c4.875,0,8.828,3.952,8.828,8.828C440.964,410.944,437.012,414.897,432.137,414.897z
				 M450.207,353.103h-97.103v-62.526c0-26.814,21.737-48.552,48.552-48.552s48.552,21.737,48.552,48.552V353.103z"/>
			<circle cx="141.241" cy="326.621" r="8.828"/>
			<path d="M123.586,123.586c0,9.751,7.905,17.655,17.655,17.655h256c9.751,0,17.655-7.904,17.655-17.655
				c0-9.751-7.904-17.655-17.655-17.655h-256C131.491,105.931,123.586,113.836,123.586,123.586z"/>
			<path d="M141.241,88.276h39.53c-10.016-11.308-24.424-17.743-39.53-17.655c-29.252,0-52.966,23.714-52.966,52.966
				c0,29.252,23.713,52.966,52.966,52.966c15.105,0.084,29.512-6.35,39.53-17.655h-39.53c-19.501,0-35.31-15.809-35.31-35.31
				C105.931,104.085,121.74,88.276,141.241,88.276z"/>
			<path d="M141.241,194.207c-39.003,0-70.621-31.618-70.621-70.621c0-39.003,31.618-70.621,70.621-70.621
				c25.191-0.095,48.474,13.403,60.91,35.31H256V26.483C256,11.857,244.143,0,229.517,0H52.966
				C38.339,0,26.483,11.857,26.483,26.483v441.379c0,14.626,11.857,26.483,26.483,26.483h176.552
				c14.626,0,26.483-11.857,26.483-26.483V158.897h-53.848C189.716,180.804,166.432,194.302,141.241,194.207z M150.069,351.47
				v28.116c0,4.875-3.952,8.828-8.828,8.828c-4.875,0-8.828-3.952-8.828-8.828V351.47c-12.161-4.27-19.464-16.694-17.279-29.397
				c2.184-12.702,13.218-21.973,26.107-21.936c12.889-0.038,23.922,9.233,26.107,21.936
				C169.533,334.776,162.23,347.2,150.069,351.47z"/>
		</g>
</svg>
