<svg xmlns="http://www.w3.org/2000/svg" id="svg" version="1.1" x="0" y="0" width="492.5" height="492.5" viewBox="0 0 492.5 492.5">
	<g class="door_close">
		<path d="M392.8 22L392.8 455.36 99.7 455.36 99.7 22 392.8 22zM153.5 231C144.94 231 138 237.94 138 246.5 138 255.06 144.94 262 153.5 262 162.06 262 169 255.06 169 246.5 169 237.94 162.06 231 153.5 231z"/>
	</g>
	<g class="door_open">
		<path d="M184.65 0L184.65 21.72 99.7 21.72 99.7 455.08 131.11 455.08 131.11 53.12 184.65 53.12 184.65 492.5 392.8 455.08 392.8 393.84 392.8 37.5 184.65 0zM222.94 263.13C215.94 263.13 210.27 255.75 210.27 246.64 210.27 237.54 215.94 230.16 222.94 230.16 229.94 230.16 235.61 237.54 235.61 246.64 235.61 255.75 229.94 263.13 222.94 263.13z"/>
	</g>
</svg>