<svg xmlns="http://www.w3.org/2000/svg" xmlns:xlink="http://www.w3.org/1999/xlink" version="1.1" id="svg" x="0" y="0" width="533.33" height="533.33" viewBox="0 0 533.33 533.33" xml:space="preserve" enable-background="new 0 0 533.333 533.333">
<g fill="#fff">
  <path d="M165.49 533.33c-35.54-73.96-16.62-116.34 10.7-156.27 29.92-43.73 37.63-87.01 37.63-87.01s23.52 30.57 14.11 78.39c41.55-46.25 49.39-119.94 43.12-148.16 93.91 65.63 134.05 207.74 79.96 313.05 287.7-162.78 71.56-406.34 33.93-433.77 12.54 27.44 14.92 73.88-10.42 96.42C331.64 33.33 225.58 0 225.58 0c12.54 83.88-45.47 175.6-101.4 244.13 -1.96-33.45-4.05-56.52-21.64-88.53C98.59 216.36 52.16 265.88 39.58 326.76 22.55 409.2 52.34 469.56 165.49 533.33z"/>
</g>
</svg>