<?xml version="1.0" encoding="iso-8859-1"?>
<!-- Generator: Adobe Illustrator 18.1.1, SVG Export Plug-In . SVG Version: 6.00 Build 0)  -->
<svg version="1.1" id="Capa_1" xmlns="http://www.w3.org/2000/svg" xmlns:xlink="http://www.w3.org/1999/xlink" x="0px" y="0px"
	 viewBox="0 0 47.759 47.759" style="enable-background:new 0 0 47.759 47.759;" xml:space="preserve">
<g>
	<path d="M46.814,44.587c-3.983-1.199-7.967-2.4-11.949-3.602c-5.262-1.586-10.524-3.172-15.787-4.758
		c-0.34-0.102-0.68-0.205-1.02-0.307c-0.591-0.178-1.358-0.098-1.963-0.128c-3.001-0.151-6.002-0.304-9.003-0.456
		c-1.933-0.098-3.866-0.195-5.8-0.294c0.43,0.431,0.861,0.861,1.291,1.291c0-3.823,0-7.646,0-11.468c0-6.154,0-12.308,0-18.462
		c0-1.497,0-2.994,0-4.491c-0.43,0.43-0.861,0.861-1.291,1.291c3.158,0,6.316,0,9.474,0c6.382,0,12.764,0,19.146,0
		c4.967,0,9.934,0,14.9,0c0.553,0,1.104,0,1.656,0c-0.43-0.43-0.861-0.861-1.291-1.291c0,4.979,0,9.959,0,14.938
		c0,3.285,0,6.571,0,9.856c0,5.836,0,11.673,0,17.509c0,0.538,0,1.077,0,1.615c0,1.665,2.582,1.665,2.582,0
		c0-4.436,0-8.869,0-13.305c0-4.467,0-8.936,0-13.402c0-4.956,0-9.912,0-14.868c0-0.781,0-1.562,0-2.343
		c0-0.704-0.587-1.291-1.291-1.291c-3.158,0-6.316,0-9.475,0c-6.381,0-12.763,0-19.145,0c-4.967,0-9.934,0-14.901,0
		c-0.552,0-1.104,0-1.656,0C0.587,0.621,0,1.208,0,1.912C0,5.735,0,9.557,0,13.38c0,6.154,0,12.308,0,18.462
		c0,1.497,0,2.994,0,4.491c0,0.731,0.588,1.255,1.291,1.291c4.955,0.251,9.909,0.502,14.864,0.752c0.397,0.021,0.793,0.04,1.19,0.06
		c0.275,0.015,0.591,0.144,0.031-0.024c0.377,0.114,0.754,0.228,1.131,0.341c2.21,0.666,4.42,1.332,6.631,1.998
		c5.856,1.766,11.712,3.53,17.568,5.295c1.139,0.344,2.278,0.688,3.418,1.03C47.725,47.558,48.403,45.065,46.814,44.587z"/>
</g>
<g>
</g>
<g>
</g>
<g>
</g>
<g>
</g>
<g>
</g>
<g>
</g>
<g>
</g>
<g>
</g>
<g>
</g>
<g>
</g>
<g>
</g>
<g>
</g>
<g>
</g>
<g>
</g>
<g>
</g>
</svg>
