<svg xmlns="http://www.w3.org/2000/svg" xmlns:xlink="http://www.w3.org/1999/xlink" version="1.1" id="svg" x="0" y="0" width="380.72" height="380.72" viewBox="0 0 380.72 380.72" xml:space="preserve" enable-background="new 0 0 380.721 380.721">
<g fill="#fff">
  <path d="M344.31 327.39l0.12-0.05c0 0-82.89-84.12-91.02-92.25 -5.04-1.49-34.53-14.45-35.04-38.83 12.58-14.42 30.88-28.27 57.91-28.54 0.05-0.02 0.19-0.04 0.26-0.04 12.22 0.33 24.56-3.72 34.38-12.3 0.69-0.6 2.3-2.25 2.3-2.25l67.52-85.09 -8.11-8.14 -82.6 87.45 -9.75-9.78 85.01-85.01 -7.15-7.1 -85.51 85.53 -8.09-8.09 85.53-85.53 -7.86-7.85 -85.52 85.52 -9.59-9.57 88.28-82.82 -7.41-7.41 -81.35 63.38c0 0-2.95 2.49-3.97 3.52 -11.17 11.16-15.96 26.31-14.36 40.89 -1.13 18.5-7.11 32.24-14.87 42.69C61.72 17.34 4.53 33.22 4.53 33.22L0 37.81c0 0 101.98 102.26 165 165.4 -22.11 22.13-128.7 128.72-128.7 128.72l0.01 0.02c-0.09 0.09-0.21 0.13-0.32 0.24 -7.62 7.62-7.59 19.96 0.01 27.57 7.6 7.61 19.98 7.61 27.57 0.02 0.12-0.12 0.16-0.24 0.23-0.31l0.02 0.02c0 0 106.72-106.69 128.71-128.66 11.53 11.54 19.22 19.24 20.73 20.75 9.34 9.39 103.38 103.43 103.38 103.43h0.12c0 0.12 0.1 0.22 0.21 0.27 7.6 7.66 20.08 7.66 27.66 0 7.7-7.59 7.7-20.02 0-27.66C344.53 327.5 344.42 327.46 344.31 327.39z"/>
</g>
</svg>