<svg xmlns="http://www.w3.org/2000/svg" xmlns:xlink="http://www.w3.org/1999/xlink" version="1.1" id="svg" x="0" y="0" width="112" height="112" viewBox="0 0 112 112" xml:space="preserve" enable-background="new 0 0 112 112">
<g fill="#fff">
  <path d="M93.34 81.97v3.44c0 2.84-4.47 3.44-8.94 3.44h-5c-3.77 0-4.88-0.91-4.88-2.9 0-2.15 3.23-3.23 6.11-4.51 2.65-1.19 6.66-2.9 8.69-2.9C91.41 78.53 93.33 78.65 93.34 81.97zM79.33 108.64v-6.04H32.67v6.04c0 1.82-1.48 3.3-3.29 3.3h53.26C80.81 111.93 79.33 110.46 79.33 108.64zM109.41 38.66c-9.11-6.91-39.56-29.68-49.92-37.43 -2.08-1.55-4.89-1.55-6.96 0.01 -10.32 7.79-40.65 30.65-49.86 37.42C0.98 39.91 0 41.86 0 43.96v67.97h17.29c-1.82 0-3.29-1.48-3.29-3.3v-9.48V97.93 80.3c0-0.62 0.22-2.95 0.51-3.46 0 0 0.3-0.87 0.77-2.24h-3.73c-1.72 0-2.63-1.39-2.04-3.11l1.06-3.11c0.59-1.72 2.46-3.11 4.18-3.11h3.78c2.93-8.36 6.52-18.45 7.38-20.08 1.82-3.47 6.4-5.03 9.7-6.13 0 0 4.7-1.79 20.38-1.79 15.68 0 20.38 1.79 20.38 1.79 2.81 0.78 7.94 2.4 9.53 5.97 1.03 2.3 4.57 12.11 7.47 20.24h3.86c1.72 0 3.59 1.39 4.18 3.11l1.06 3.11c0.59 1.72-0.32 3.11-2.04 3.11h-3.75c0.49 1.38 0.79 2.24 0.79 2.24C97.79 77.35 98 79.67 98 80.3v17.63 1.23 9.48c0 1.82-1.47 3.3-3.29 3.3H112V43.9C112 41.83 111.06 39.91 109.41 38.66zM37.48 85.94c0-2.15-3.23-3.23-6.11-4.52 -2.65-1.18-6.66-2.9-8.69-2.9 -2.08 0-4.01 0.12-4.01 3.44v3.44c0 2.84 4.47 3.44 8.94 3.44h5C36.36 88.84 37.48 87.93 37.48 85.94zM86.29 66.52c-2.32-9.4-5.22-15.99-5.95-18.17 -0.06-0.05-0.61-4.17-24.34-4.17 -23.72 0-24.17 3.61-24.64 4.77 -0.59 1.61-3.26 7.36-5.72 17.57 0 0 10.09 3.41 30.36 3.41C76.27 69.93 86.29 66.52 86.29 66.52z"/>
</g>
</svg>