<svg id="Capa_1" enable-background="new 0 0 512 512" height="512" viewBox="0 0 512 512" width="512" xmlns="http://www.w3.org/2000/svg"><path d="m393.714 103.285c-6.893 0-13.461 1.418-19.428 3.978v-23.406h-.001c0-27.255-22.173-49.429-49.428-49.429-7.329 0-14.294 1.604-20.556 4.479-4.835-22.217-24.655-38.907-48.301-38.907s-43.466 16.69-48.302 38.908c-6.262-2.875-13.227-4.479-20.556-4.479-27.255 0-49.429 22.174-49.429 49.429v92.264c-5.967-2.561-12.535-3.979-19.429-3.979h-49.427v187.144c0 26.209 10.206 50.849 28.738 69.379l20.167 20.168c12.865 12.866 19.951 29.972 19.951 48.167v15h236.571v-15c0-18.194 7.086-35.301 19.952-48.167l20.167-20.168c18.532-18.53 28.738-43.17 28.738-69.379v-206.572c.002-27.256-22.172-49.43-49.427-49.43zm19.429 256.001c0 18.195-7.085 35.301-19.951 48.166l-20.167 20.168c-14.948 14.948-24.479 33.867-27.607 54.38h-178.836c-3.128-20.513-12.658-39.433-27.606-54.38l-20.167-20.168c-12.866-12.865-19.951-29.971-19.951-48.166v-157.143h19.428c10.713 0 19.429 8.716 19.429 19.429v103.286h30v-241c0-10.713 8.716-19.429 19.429-19.429s19.429 8.716 19.429 19.429v137.714h30v-172.143c-.002-10.713 8.714-19.429 19.427-19.429s19.429 8.716 19.429 19.429v172.143h30v-137.715c0-10.713 8.716-19.429 19.429-19.429s19.428 8.716 19.428 19.429v172.143h30v-103.304c.011-10.705 8.721-19.41 19.428-19.41 10.713 0 19.429 8.716 19.429 19.43z"/></svg>