<?xml version="1.0" encoding="iso-8859-1"?>
<!-- Generator: Adobe Illustrator 19.0.0, SVG Export Plug-In . SVG Version: 6.00 Build 0)  -->
<svg version="1.1" id="Layer_1" xmlns="http://www.w3.org/2000/svg" xmlns:xlink="http://www.w3.org/1999/xlink" x="0px" y="0px"
	 viewBox="0 0 512 512" style="enable-background:new 0 0 512 512;" xml:space="preserve">
	<g>
		<path d="M83.32,423.132c-5.261,0-10.357-0.711-15.209-2.022v37.279h30.417V421.11C93.676,422.421,88.581,423.132,83.32,423.132z"/>
		<path d="M428.68,423.132c-5.261,0-10.357-0.711-15.209-2.022v37.279h30.417V421.11
			C439.036,422.421,433.941,423.132,428.68,423.132z"/>
		<path d="M169.66,53.611c-15.418,0-27.961,12.544-27.961,27.961v283.181c0,15.419,12.544,27.961,27.961,27.961
			c15.417,0,27.961-12.544,27.961-27.961V81.573C197.621,66.155,185.077,53.611,169.66,53.611z"/>
		<path d="M256,53.611c-15.418,0-27.961,12.544-27.961,27.961v283.181c0,15.419,12.544,27.961,27.961,27.961
			s27.961-12.544,27.961-27.961V81.573C283.961,66.155,271.417,53.611,256,53.611z"/>
		<path d="M342.34,53.611c-15.418,0-27.961,12.544-27.961,27.961v283.181c0,15.419,12.544,27.961,27.961,27.961
			c15.417,0,27.961-12.544,27.961-27.961V81.573C370.302,66.155,357.759,53.611,342.34,53.611z"/>
		<path d="M83.32,53.612c-15.418,0-27.961,12.543-27.961,27.961v41.998H24.941H0v49.803h24.941h30.417v191.379
			c0,15.419,12.544,27.961,27.961,27.961c15.417,0,27.962-12.544,27.962-27.961V81.573C111.281,66.155,98.738,53.612,83.32,53.612z"
			/>
		<path d="M487.059,91.355h-5.476v32.215h-24.941V81.573c0-15.418-12.544-27.961-27.961-27.961
			c-15.417,0-27.961,12.544-27.961,27.961v283.18c0,15.419,12.543,27.961,27.961,27.961s27.961-12.544,27.961-27.961v-191.38h24.941
			v32.215h5.476H512v-32.215V123.57V91.355H487.059z"/>
	</g>
</svg>
