<svg id="Capa_1" enable-background="new 0 0 512 512" height="512" viewBox="0 0 512 512" width="512" xmlns="http://www.w3.org/2000/svg"><g fill="#fff"><path d="m353.619 262.961c-11.666 4.532-24.338 7.039-37.619 7.039h-120c-13.281 0-25.953-2.507-37.619-7.039 9.781 25.197 28.398 45.489 52.619 56.931v10.108h-14.676c-.005 14.802 4.991 28.841 14.998 40.005 22.793 25.4 66.548 25.415 89.341.015 10.012-11.171 15.009-25.21 15.009-40.02h-14.672v-10.107c24.221-11.443 42.838-31.734 52.619-56.932z"/><path d="m389.482 180h-266.964c6.969 34.191 37.266 60 73.482 60h120c36.216 0 66.513-25.809 73.482-60z"/><path d="m241 0h30v90h-30z"/><path d="m197.278 397.516c-2.813-2.443-5.781-4.684-8.295-7.487-14.797-16.514-22.419-37.974-22.474-60.029h-30.509c-41.353 0-75 33.647-75 75v15h71.221c19.131 0 37.661-5.61 53.569-16.216 3.657-2.441 7.63-4.235 11.488-6.268z"/><path d="m121 120h270v30h-270z"/><path d="m61 497c0 8.291 6.709 15 15 15h45v-62h-60z"/><path d="m280.895 416.008c-8.068 2.348-16.351 3.992-24.895 3.992s-16.829-1.644-24.897-3.992c-10.17 2.714-19.852 6.855-28.672 12.737-15.597 10.395-33.107 17.117-51.431 19.852v63.403h210v-63.403c-18.323-2.736-35.834-9.457-51.431-19.852-8.82-5.881-18.504-10.023-28.674-12.737z"/><path d="m391 512h45c8.291 0 15-6.709 15-15v-47h-60z"/><path d="m211 1.516c-45.807 6.641-81.843 42.677-88.484 88.484h88.484z"/><path d="m376 330h-30.513c-.055 22.072-7.681 43.546-22.5 60.059-2.505 2.792-5.466 5.023-8.267 7.456 3.86 2.034 7.833 3.829 11.49 6.27 15.908 10.605 34.438 16.215 53.569 16.215h71.221v-15c0-41.353-33.647-75-75-75z"/><path d="m301 1.516v88.484h88.484c-6.641-45.807-42.677-81.843-88.484-88.484z"/></g></svg>