<?xml version="1.0" encoding="iso-8859-1"?>
<!-- Generator: Adobe Illustrator 19.0.0, SVG Export Plug-In . SVG Version: 6.00 Build 0)  -->
<svg version="1.1" id="Layer_1" xmlns="http://www.w3.org/2000/svg" xmlns:xlink="http://www.w3.org/1999/xlink" x="0px" y="0px"
	 viewBox="0 0 512.003 512.003" style="enable-background:new 0 0 512.003 512.003;" xml:space="preserve">
	<g>
		<polygon points="348.506,167.415 163.493,167.415 11.887,236.943 500.112,236.943"/>
		<rect y="267.359" width="512.003" height="78.324"/>
		<rect x="180.344" y="18.604" width="151.305" height="118.394"/>
		<path d="M152.285,411.41c0-6.791,1.288-9.476,3.419-13.923c2.704-5.641,6.409-13.367,6.409-27.074h-30.417
			c0,6.792-1.288,9.476-3.419,13.924c-2.705,5.641-6.409,13.366-6.409,27.073c0,13.707,3.704,21.433,6.409,27.073
			c2.132,4.447,3.419,7.132,3.419,13.924c0,6.79-1.288,9.474-3.419,13.92c-2.705,5.64-6.409,13.366-6.409,27.071h30.417
			c0-6.79,1.288-9.474,3.419-13.92c2.705-5.64,6.409-13.365,6.409-27.071c0-13.707-3.704-21.433-6.409-27.073
			C153.572,420.887,152.285,418.202,152.285,411.41z"/>
		<path d="M228.292,411.41c0-6.791,1.288-9.476,3.419-13.923c2.704-5.641,6.409-13.367,6.409-27.074h-30.417
			c0,6.792-1.288,9.476-3.419,13.924c-2.705,5.641-6.409,13.366-6.409,27.073c0,13.707,3.704,21.433,6.409,27.073
			c2.132,4.447,3.419,7.132,3.419,13.924c0,6.79-1.288,9.474-3.419,13.92c-2.705,5.64-6.409,13.366-6.409,27.071h30.417
			c0-6.79,1.288-9.474,3.419-13.92c2.705-5.64,6.409-13.365,6.409-27.071c0-13.707-3.704-21.433-6.409-27.073
			C229.579,420.887,228.292,418.202,228.292,411.41z"/>
		<path d="M304.297,411.41c0-6.791,1.288-9.476,3.419-13.923c2.705-5.641,6.409-13.367,6.409-27.074h-30.417
			c0,6.792-1.288,9.476-3.419,13.924c-2.705,5.641-6.409,13.366-6.409,27.073c0,13.707,3.704,21.433,6.409,27.073
			c2.132,4.447,3.419,7.132,3.419,13.924c0,6.79-1.288,9.474-3.419,13.92c-2.705,5.64-6.409,13.366-6.409,27.071h30.417
			c0-6.79,1.288-9.474,3.419-13.92c2.705-5.64,6.409-13.365,6.409-27.071c0-13.707-3.704-21.433-6.409-27.073
			C305.584,420.887,304.297,418.202,304.297,411.41z"/>
		<path d="M380.305,411.41c0-6.791,1.288-9.476,3.419-13.923c2.705-5.641,6.409-13.367,6.409-27.074h-30.417
			c0,6.792-1.288,9.476-3.419,13.924c-2.705,5.641-6.409,13.366-6.409,27.073c0,13.707,3.704,21.433,6.409,27.073
			c2.132,4.447,3.419,7.132,3.419,13.924c0,6.79-1.288,9.474-3.419,13.92c-2.705,5.64-6.409,13.366-6.409,27.071h30.417
			c0-6.79,1.288-9.474,3.419-13.92c2.705-5.64,6.409-13.365,6.409-27.071c0-13.707-3.704-21.433-6.409-27.073
			C381.591,420.887,380.305,418.202,380.305,411.41z"/>
	</g>
</svg>
