<?xml version="1.0" encoding="iso-8859-1"?>
<!-- Generator: Adobe Illustrator 19.0.0, SVG Export Plug-In . SVG Version: 6.00 Build 0)  -->
<svg version="1.1" id="Capa_1" xmlns="http://www.w3.org/2000/svg" xmlns:xlink="http://www.w3.org/1999/xlink" x="0px" y="0px"
	 viewBox="0 0 512 512" style="enable-background:new 0 0 512 512;" xml:space="preserve">
<g>
	<g>
		<path d="M490.161,214.239l20.21-30.914c2.141-3.274,2.175-7.497,0.088-10.806c-16.108-25.543-53.881-69.247-77.352-87.315
			l2.019-28.501c0.2-2.832-0.812-5.615-2.785-7.657c-1.973-2.041-4.726-3.149-7.558-3.043
			c-109.011,4.012-112.455,56.707-114.969,95.184c-1.239,18.961-2.431,30.665-10.241,37.269c-0.023,0.018-0.043,0.039-0.066,0.057
			c-2.616,2.192-5.97,3.818-10.309,4.956c-44.231,11.61-63.758,3.51-84.432-5.068c-11.654-4.835-23.706-9.834-39.572-10.853
			c-44.403-2.847-66.026,18.351-83.398,35.387c-13.893,13.623-24.869,24.384-44.946,23.07c-4.04-0.257-7.843,1.935-9.628,5.569
			c-1.786,3.635-1.203,7.988,1.476,11.024c19.201,21.766,40.168,25.189,54.373,24.223c3.312-0.225,6.4-0.689,9.216-1.284
			L74.61,384.46c-8.716-2.272-17.392-4.713-26.011-7.37c-5.206-1.604-10.307-2.418-15.163-2.418
			c-17.188,0-30.811,10.53-33.126,25.609c-1.93,12.574,4.995,28.052,24.819,34.286c66.337,20.861,135.455,31.438,205.437,31.438
			c8.412,0,16.939-0.157,25.345-0.466c77.504-2.853,153.059-18.56,224.564-46.686c23.515-9.249,29.253-26.274,27.022-38.044
			c-2.632-13.883-15.274-23.211-31.459-23.211c-6.132,0-12.579,1.319-19.162,3.922c-14.038,5.549-28.251,10.565-42.617,15.048
			l-11.786-173.677c36.866,1.272,75.484,15.122,75.902,15.274C482.738,219.75,487.621,218.125,490.161,214.239z M294.277,202.813
			c1.067-0.28,2.096-0.585,3.098-0.906c0.417,17.585-5.056,30.714-16.166,38.355c-14.184,9.755-36.751,9.057-54.876-1.696
			c-15.544-9.222-24.958-23.663-26.985-40.762C220.581,206.574,245.263,215.679,294.277,202.813z M464.228,380.12
			c4.232-1.673,8.206-2.522,11.81-2.522c6.375,0,11.009,2.723,11.808,6.936c0.872,4.599-3.333,11.238-14.692,15.706
			c-69.398,27.298-142.737,42.543-217.979,45.312c-8.162,0.3-16.441,0.453-24.61,0.453c-67.944,0-135.045-10.267-199.438-30.517
			c-7.601-2.39-11.834-7.054-11.049-12.171c0.661-4.302,5.047-8.644,13.356-8.644c2.857,0,5.977,0.515,9.271,1.531
			c12.382,3.817,24.873,7.229,37.447,10.276c0.236,0.067,0.477,0.121,0.721,0.171c9.19,2.216,18.427,4.228,27.707,6.03
			c0.153,0.036,0.307,0.063,0.461,0.091c39.902,7.723,80.56,11.639,121.521,11.639c7.832,0,15.771-0.146,23.599-0.434
			C326.689,421.309,397.365,406.553,464.228,380.12z M125.294,395.422l21.945-47.825c21.184,3.191,46.312-2.051,63.243-34.962
			c9.775,7.334,23.344,15.984,41.059,20.978c26.056,7.344,53.927,4.611,82.972-8.116l7.551,14.074
			c0.001,0.003,0.003,0.004,0.004,0.007l26.463,49.328c-37.595,8.595-76.07,13.65-115.104,15.086
			c-7.583,0.279-15.274,0.42-22.863,0.42C195.134,404.412,159.94,401.39,125.294,395.422z M391.406,182.899
			c-2.704,0.1-5.253,1.291-7.063,3.301c-1.811,2.011-2.729,4.669-2.546,7.369l12.81,188.767c-2.009,0.556-4.017,1.1-6.028,1.631
			l-40.927-76.288c-0.001-0.001-0.002-0.002-0.002-0.003l-7.361-13.722c-2.611-4.866-8.672-6.696-13.54-4.085
			c-4.867,2.611-6.695,8.673-4.084,13.54l2.359,4.397c-58.297,24.858-93.251-3.466-110.494-17.44l-1.697-1.372
			c-2.496-2.01-5.807-2.701-8.897-1.859c-3.092,0.842-5.594,3.115-6.727,6.113c-11.186,29.595-27.616,39.859-53.268,33.285
			c-4.684-1.202-9.556,1.121-11.572,5.516l-27.321,59.542c-3.648-0.755-7.289-1.546-10.924-2.368l20.396-137.216
			c0.567-3.818-1.113-7.622-4.318-9.773c-3.205-2.152-7.362-2.266-10.68-0.295c-0.071,0.042-7.36,4.218-17.801,4.926
			c-7.435,0.506-14.499-0.885-21.139-4.144c14.468-5.163,24.963-15.45,35.22-25.508c16.774-16.448,32.617-31.991,68.115-29.707
			c5.448,0.35,10.333,1.296,15.023,2.63c-0.156,27.36,13.36,51.493,37.19,65.63c12.79,7.588,27.077,11.395,40.755,11.395
			c13.049,0,25.547-3.466,35.659-10.42c11.366-7.816,29.068-26.727,23.934-66.827c11.013-12.514,12.206-30.733,13.297-47.425
			c2.354-36.017,4.589-70.123,84.604-75.902l-1.612,22.75c-0.254,3.585,1.436,7.031,4.426,9.025
			c17.649,11.773,53.926,51.593,72.86,79.496l-12.403,18.972C462.099,191.892,425.324,181.65,391.406,182.899z"/>
	</g>
</g>
<g>
	<g>
		<path d="M410.987,120.299c-6.137,0.226-10.916,5.06-10.674,10.799c0.242,5.739,5.412,10.207,11.549,9.981
			s10.915-5.06,10.674-10.799C422.294,124.542,417.124,120.073,410.987,120.299z"/>
	</g>
</g>
<g>
	<g>
		<path d="M326.714,268.654l-0.111-0.208c-2.602-4.872-8.661-6.713-13.531-4.111c-4.872,2.602-6.712,8.66-4.111,13.531l0.111,0.208
			c1.801,3.372,5.257,5.292,8.83,5.292c1.589,0,3.202-0.38,4.701-1.181C327.475,279.584,329.315,273.526,326.714,268.654z"/>
	</g>
</g>
<g>
</g>
<g>
</g>
<g>
</g>
<g>
</g>
<g>
</g>
<g>
</g>
<g>
</g>
<g>
</g>
<g>
</g>
<g>
</g>
<g>
</g>
<g>
</g>
<g>
</g>
<g>
</g>
<g>
</g>
</svg>
