<svg xmlns="http://www.w3.org/2000/svg" xmlns:xlink="http://www.w3.org/1999/xlink" version="1.1" id="svg" x="0" y="0" width="510" height="510" viewBox="0 0 510 510">
  <g id="Ebene_1">
    <path d="M382.5 0L127.5 0C99.45 0 76.5 22.95 76.5 51L76.5 459C76.5 487.05 99.45 510 127.5 510L382.5 510C410.55 510 433.5 487.05 433.5 459L433.5 51C433.5 22.95 410.55 0 382.5 0zM255 51C283.05 51 306 73.95 306 102 306 130.05 283.05 153 255 153 226.95 153 204 130.05 204 102 204 73.95 226.95 51 255 51zM255 459C183.6 459 127.5 402.9 127.5 331.5 127.5 260.1 183.6 204 255 204 326.4 204 382.5 260.1 382.5 331.5 382.5 402.9 326.4 459 255 459zM255 255C211.65 255 178.5 288.15 178.5 331.5 178.5 374.85 211.65 408 255 408 298.35 408 331.5 374.85 331.5 331.5 331.5 288.15 298.35 255 255 255z"/>
    <path d="M12 420L51 405.38" fill-opacity="0" stroke="#000000" stroke-width="23" stroke-linecap="round" stroke-linejoin="round"/>
    <path d="M109.77 383.34L167.77 361.59" fill-opacity="0" stroke="#000000" stroke-width="23" stroke-linecap="round" stroke-linejoin="round" display="none"/>
    <path d="M315.06 306.35L372.89 284.67" fill-opacity="0" stroke="#000000" stroke-width="23" stroke-linecap="round" stroke-linejoin="round" display="none"/>
    <path d="M458.03 252.74L492 240" fill-opacity="0" stroke="#000000" stroke-width="23" stroke-linecap="round" stroke-linejoin="round"/>
    <path d="M52.06 332L12 332" fill-opacity="0" stroke="#000000" stroke-width="23" stroke-linecap="round" stroke-linejoin="round"/>
    <path d="M176.57 332L115.07 332" fill-opacity="0" stroke="#000000" stroke-width="23" stroke-linecap="round" stroke-linejoin="round" display="none"/>
    <path d="M396.07 332L334.57 332" fill-opacity="0" stroke="#000000" stroke-width="23" stroke-linecap="round" stroke-linejoin="round" display="none"/>
    <path d="M492 332L459.08 332" fill-opacity="0" stroke="#000000" stroke-width="23" stroke-linecap="round" stroke-linejoin="round"/>
    <path d="M459.08 407.66L492 420" fill-opacity="0" stroke="#000000" stroke-width="23" stroke-linecap="round" stroke-linejoin="round"/>
    <path d="M342.55 363.95L400.1 385.54" fill-opacity="0" stroke="#000000" stroke-width="23" stroke-linecap="round" stroke-linejoin="round" display="none"/>
    <path d="M135.93 286.47L193.37 308.01" fill-opacity="0" stroke="#000000" stroke-width="23" stroke-linecap="round" stroke-linejoin="round" display="none"/>
    <path d="M12 240L52.06 255.02" fill-opacity="0" stroke="#000000" stroke-width="23" stroke-linecap="round" stroke-linejoin="round"/>
  </g>
</svg>