<svg xmlns="http://www.w3.org/2000/svg" xmlns:xlink="http://www.w3.org/1999/xlink" version="1.1" id="svg" x="0" y="0" width="47" height="47" viewBox="0 0 47 47">
  <g id="Ebene_1">
    <path d="M23.5 11.45C17.11 11.45 11.94 16.41 11.94 22.53 11.94 29.79 16.98 31.64 16.98 35.87 16.98 36.92 17.78 37.89 18.98 38.6 18.73 38.81 18.59 39.04 18.59 39.28 18.59 39.6 18.84 39.9 19.28 40.16 18.87 40.41 18.63 40.7 18.63 41.02 18.63 41.33 18.88 41.62 19.29 41.88 18.87 42.13 18.62 42.43 18.62 42.75 18.62 43.14 18.98 43.49 19.6 43.78 19.36 44 19.22 44.24 19.22 44.49 19.22 45.23 20.38 45.85 22 46.11 22.28 46.63 22.86 47 23.53 47 24.21 47 24.78 46.64 25.07 46.11 26.71 45.86 27.87 45.23 27.87 44.49 27.87 44.24 27.74 44.01 27.51 43.79 28.13 43.5 28.51 43.14 28.51 42.75 28.51 42.44 28.27 42.14 27.85 41.89 28.27 41.63 28.52 41.34 28.52 41.02 28.52 40.7 28.27 40.4 27.83 40.14 28.24 39.88 28.48 39.59 28.48 39.28 28.48 39.03 28.33 38.8 28.06 38.58 29.24 37.87 30.03 36.91 30.03 35.87 30.03 31.64 35.06 29.79 35.06 22.53 35.06 16.41 29.89 11.45 23.5 11.45zM29.54 29.38C28.39 31.07 27.08 32.99 27 35.61 26.61 36.05 25.19 36.77 23.5 36.77 21.81 36.77 20.4 36.05 20 35.61 19.92 32.98 18.62 31.07 17.47 29.38 16.18 27.49 14.96 25.71 14.96 22.53 14.96 18.09 18.79 14.47 23.5 14.47 28.21 14.47 32.04 18.09 32.04 22.53 32.04 25.71 30.82 27.5 29.54 29.38z"/>
  </g>
</svg>