<svg xmlns="http://www.w3.org/2000/svg" xmlns:xlink="http://www.w3.org/1999/xlink" version="1.1" id="svg" x="0" y="0" width="47" height="47" viewBox="0 0 47 47" xml:space="preserve" enable-background="new 0 0 47 47">
  <path d="M23.5 11.45c-6.38 0-11.56 4.96-11.56 11.08 0 7.27 5.05 9.12 5.05 13.34 0 1.05 0.8 2.02 2 2.73 -0.25 0.21-0.39 0.44-0.39 0.68 0 0.32 0.25 0.62 0.69 0.88 -0.41 0.25-0.64 0.54-0.64 0.86 0 0.31 0.24 0.61 0.66 0.86 -0.43 0.26-0.67 0.56-0.67 0.87 0 0.39 0.37 0.74 0.98 1.03 -0.24 0.22-0.37 0.45-0.37 0.7 0 0.74 1.15 1.37 2.77 1.62C22.28 46.63 22.86 47 23.53 47c0.67 0 1.25-0.36 1.54-0.89 1.64-0.25 2.8-0.88 2.8-1.62 0-0.25-0.13-0.48-0.36-0.69 0.63-0.29 1-0.65 1-1.04 0-0.31-0.24-0.61-0.66-0.86 0.43-0.26 0.67-0.55 0.67-0.87 0-0.32-0.25-0.62-0.69-0.88 0.41-0.25 0.65-0.54 0.65-0.85 0-0.25-0.15-0.48-0.42-0.7 1.18-0.71 1.97-1.67 1.97-2.71 0-4.23 5.04-6.08 5.04-13.34C35.06 16.41 29.89 11.45 23.5 11.45zM29.54 29.38c-1.15 1.69-2.45 3.6-2.53 6.23 -0.4 0.44-1.81 1.16-3.5 1.16 -1.69 0-3.1-0.72-3.5-1.16 -0.08-2.63-1.38-4.54-2.54-6.23 -1.29-1.89-2.5-3.67-2.5-6.85 0-4.44 3.83-8.05 8.54-8.05 4.71 0 8.54 3.61 8.54 8.05C32.04 25.71 30.82 27.5 29.54 29.38z"/>
  <path class="svg_state" d="M23.5 7.56c0.83 0 1.51-0.9 1.51-2V2c0-1.1-0.68-2-1.51-2s-1.51 0.9-1.51 2v3.56C21.99 6.67 22.67 7.56 23.5 7.56z"/>
  <path class="svg_state" d="M15.75 9.64c0.72-0.42 0.86-1.54 0.31-2.49l-1.78-3.09c-0.55-0.95-1.59-1.39-2.31-0.98 -0.72 0.42-0.86 1.54-0.31 2.49l1.78 3.09C13.99 9.62 15.03 10.06 15.75 9.64z"/>
  <path class="svg_state" d="M9.1 13.01L6.01 11.23c-0.95-0.55-2.07-0.41-2.49 0.31 -0.42 0.72 0.02 1.76 0.98 2.31l3.09 1.78c0.95 0.55 2.07 0.41 2.49-0.31C10.49 14.6 10.05 13.56 9.1 13.01z"/>
  <path class="svg_state" d="M42.5 32.3l-3.09-1.78c-0.95-0.55-2.07-0.41-2.49 0.31 -0.42 0.72 0.02 1.76 0.98 2.31l3.08 1.78c0.95 0.55 2.07 0.41 2.49-0.31C43.9 33.88 43.46 32.85 42.5 32.3z"/>
  <path class="svg_state" d="M7.99 23.07c0-0.83-0.9-1.51-2-1.51H2.43c-1.1 0-2 0.68-2 1.51 0 0.83 0.9 1.51 2 1.51h3.56C7.09 24.58 7.99 23.9 7.99 23.07z"/>
  <path class="svg_state" d="M44.57 21.56h-3.56c-1.1 0-2 0.68-2 1.51 0 0.83 0.9 1.51 2 1.51h3.56c1.1 0 2-0.68 2-1.51C46.57 22.24 45.67 21.56 44.57 21.56z"/>
  <path class="svg_state" d="M7.58 30.51l-3.09 1.78c-0.95 0.55-1.39 1.59-0.98 2.31 0.42 0.72 1.54 0.86 2.49 0.31l3.09-1.78c0.95-0.55 1.39-1.59 0.98-2.31C9.65 30.1 8.54 29.96 7.58 30.51z"/>
  <path class="svg_state" d="M39.42 15.63l3.09-1.78c0.95-0.55 1.39-1.59 0.98-2.31 -0.42-0.72-1.54-0.86-2.49-0.31l-3.08 1.78c-0.95 0.55-1.39 1.59-0.98 2.31C37.35 16.04 38.47 16.18 39.42 15.63z"/>
  <path class="svg_state" d="M35.04 3.09c-0.72-0.42-1.76 0.02-2.31 0.98l-1.78 3.09c-0.55 0.95-0.41 2.07 0.31 2.49 0.72 0.42 1.76-0.02 2.31-0.98l1.78-3.09C35.9 4.63 35.76 3.51 35.04 3.09z"/>
</svg>