<?xml version="1.0" encoding="iso-8859-1"?>
<!-- Generator: Adobe Illustrator 16.0.0, SVG Export Plug-In . SVG Version: 6.00 Build 0)  -->
<!DOCTYPE svg PUBLIC "-//W3C//DTD SVG 1.1//EN" "http://www.w3.org/Graphics/SVG/1.1/DTD/svg11.dtd">
<svg version="1.1" id="Capa_1" xmlns="http://www.w3.org/2000/svg" xmlns:xlink="http://www.w3.org/1999/xlink" x="0px" y="0px"
	 width="46.999px" height="46.999px" viewBox="0 0 46.999 46.999" style="enable-background:new 0 0 46.999 46.999;"
	 xml:space="preserve">
<g>
	<g>
		<path d="M27.402,28.439c0-3.198,3.809-4.595,3.809-10.086c0-4.625-3.912-8.373-8.738-8.373c-4.822,0-8.739,3.748-8.739,8.373
			c0,5.491,3.816,6.888,3.816,10.086c0,0.785,0.6,1.519,1.508,2.065c-0.189,0.152-0.295,0.324-0.295,0.51
			c0,0.24,0.191,0.466,0.521,0.666c-0.308,0.191-0.488,0.412-0.488,0.646c0,0.237,0.188,0.461,0.496,0.653
			c-0.319,0.187-0.509,0.415-0.509,0.655c0,0.294,0.281,0.561,0.743,0.777c-0.184,0.168-0.287,0.344-0.287,0.532
			c0,0.56,0.872,1.037,2.102,1.226c0.216,0.395,0.647,0.676,1.16,0.676c0.512,0,0.944-0.278,1.159-0.676
			c1.234-0.187,2.115-0.666,2.115-1.226c0-0.187-0.099-0.36-0.272-0.522c0.478-0.217,0.754-0.488,0.754-0.789
			c0-0.236-0.183-0.459-0.498-0.653c0.324-0.19,0.513-0.414,0.513-0.653c0-0.248-0.191-0.475-0.521-0.668
			c0.308-0.191,0.487-0.414,0.487-0.646c0-0.188-0.12-0.372-0.323-0.527C26.812,29.943,27.402,29.22,27.402,28.439z M25.12,28.241
			c-0.302,0.336-1.366,0.881-2.644,0.881c-1.278,0-2.349-0.545-2.643-0.881c-0.065-1.984-1.052-3.434-1.924-4.711
			c-0.972-1.422-1.889-2.769-1.889-5.176c0-3.36,2.892-6.085,6.451-6.085s6.454,2.725,6.454,6.085c0,2.407-0.917,3.754-1.889,5.178
			C26.166,24.81,25.179,26.255,25.12,28.241z"/>
		<path d="M36.822,20.124l3.938,6.563c0.566,0.941,1.491,0.941,2.055,0l3.938-6.562c0.563-0.942,0.128-1.713-0.972-1.713h-1.43
			C42.04,8.463,33.113,1.026,22.473,1.026C10.081,1.026,0,11.107,0,23.499c0,12.393,10.081,22.474,22.473,22.474
			c10.563,0,19.442-7.327,21.835-17.164c-0.689,0.694-1.568,1.081-2.52,1.081h-0.001c-0.999,0-1.919-0.432-2.624-1.196
			c-2.217,7.108-8.861,12.285-16.691,12.285c-9.638,0-17.479-7.842-17.479-17.479c0-9.637,7.841-17.479,17.479-17.479
			c7.864,0,14.503,5.232,16.688,12.391h-1.368C36.693,18.412,36.256,19.182,36.822,20.124z"/>
	</g>
</g>
<g>
</g>
<g>
</g>
<g>
</g>
<g>
</g>
<g>
</g>
<g>
</g>
<g>
</g>
<g>
</g>
<g>
</g>
<g>
</g>
<g>
</g>
<g>
</g>
<g>
</g>
<g>
</g>
<g>
</g>
</svg>
