<?xml version="1.0" encoding="iso-8859-1"?>
<!-- Generator: Adobe Illustrator 19.0.0, SVG Export Plug-In . SVG Version: 6.00 Build 0)  -->
<svg version="1.1" id="Layer_1" xmlns="http://www.w3.org/2000/svg" xmlns:xlink="http://www.w3.org/1999/xlink" x="0px" y="0px"
	 viewBox="0 0 512.001 512.001" style="enable-background:new 0 0 512.001 512.001;" xml:space="preserve">
<g>
	<g>
		<path d="M504.447,60.308H375.456c-4.172,0-7.554,3.381-7.554,7.554v70.614c0,0.002,0,0.003,0,0.005v138.265
			c-1.328-2.093-2.896-4.061-4.696-5.862c-1.659-1.66-3.461-3.123-5.375-4.388v-88.241c0-15.059-12.251-27.311-27.312-27.311
			h-52.103c-0.403-36.413-30.135-65.916-66.641-65.916h-65.719c-36.508,0-66.24,29.502-66.642,65.916H27.312
			C12.252,150.943,0,163.194,0,178.253v200.376c0,15.059,12.252,27.312,27.312,27.312h262.576
			c12.058,26.933,39.095,45.752,70.461,45.752s58.404-18.82,70.462-45.752h53.61c15.207,0,27.579-12.372,27.579-27.579V138.48
			c0-0.002,0-0.003,0-0.005V67.861C512,63.689,508.619,60.308,504.447,60.308z M352.523,281.565
			c4.537,4.538,6.432,10.985,5.227,17.142c-0.303,0.059-0.606,0.115-0.911,0.159c-0.082,0.012-0.164,0.024-0.245,0.036
			c-5.782,0.784-11.851-1.253-15.989-5.368c-4.447-4.422-6.467-11.04-5.254-17.189c0.082-0.016,0.167-0.023,0.25-0.038
			c3.383-0.614,6.899-0.263,10.105,0.923C348.249,278.171,350.596,279.637,352.523,281.565z M146.057,100.135h65.719
			c28.178,0,51.148,22.724,51.547,50.808h-22.052c-0.397-15.926-13.476-28.76-29.496-28.76h-65.719
			c-16.02,0-29.1,12.834-29.497,28.76H94.508C94.908,122.858,117.878,100.135,146.057,100.135z M226.136,150.943h-94.44
			c0.392-7.591,6.673-13.653,14.362-13.653h65.719C219.463,137.29,225.744,143.352,226.136,150.943z M27.312,390.833v0.001
			c-6.73,0-12.205-5.475-12.205-12.205V178.253c0-6.729,5.475-12.203,12.205-12.203h60.042h37.837h107.451h37.836h60.043
			c6.73,0,12.205,5.475,12.205,12.203v82.824c-1.212-0.129-2.436-0.2-3.671-0.2c-0.127,0-0.255,0.007-0.382,0.009
			c-0.089,0.001-0.177,0.004-0.267,0.006c-4.886,0.09-11.246,0.731-14.69,4.618c-1.635,1.846-2.465,4.267-2.999,6.675
			c-2.302,10.376,0.395,21.818,7.285,29.937c0.257,0.303,0.53,0.594,0.799,0.889c0.228,0.251,0.442,0.511,0.679,0.755
			c-0.373,0.161-0.737,0.337-1.106,0.504c-4.561,2.068-8.929,4.578-13.001,7.495v-97.051c0-11.751-9.56-21.311-21.312-21.311H63.775
			c-11.751,0-21.311,9.56-21.311,21.311v127.451c0,11.751,9.56,21.312,21.311,21.312h220.191c-0.007,0.052-0.014,0.105-0.02,0.157
			c-1.17,8.858-0.97,17.929,0.862,26.686c0.035,0.17,0.059,0.342,0.097,0.512H27.312z M296.708,330.809
			c-1.17,1.705-2.272,3.456-3.301,5.248c-2.059,3.586-3.833,7.338-5.288,11.209c-0.137,0.363-0.269,0.73-0.404,1.104H63.775
			c-3.421,0-6.203-2.784-6.203-6.204V214.717c0-3.421,2.782-6.203,6.203-6.203h230.283c3.421,0,6.204,2.782,6.204,6.203v111.325
			c0,0.43-1.349,1.717-1.659,2.13c-0.617,0.823-1.218,1.658-1.802,2.504C296.77,330.72,296.739,330.764,296.708,330.809z
			 M422.263,377.512c-0.889,16.934-8.703,33.299-21.98,44.485c-11.123,9.371-25.387,14.589-39.934,14.589
			c-21.849,0-42.492-11.893-53.553-30.721c-10.611-18.058-11.231-41.071-1.658-59.71c7.5-14.603,21.007-25.994,36.684-30.865
			c0.612-0.189,1.227-0.372,1.847-0.543c0.266-0.073,0.532-0.144,0.8-0.214c0.628-0.165,1.258-0.32,1.895-0.466
			c0.267-0.062,0.535-0.12,0.804-0.178c0.333-0.072,0.67-0.134,1.006-0.2c1.922,0.331,3.885,0.511,5.877,0.511
			c3.534,0,7.002-0.545,10.341-1.605c3.146,0.201,6.221,0.638,9.215,1.283c0.073,0.018,0.143,0.042,0.218,0.058
			c21.172,4.627,38.718,20.852,45.492,41.363C421.712,362.552,422.653,370.087,422.263,377.512z M496.893,378.363
			c0,6.878-5.595,12.471-12.471,12.471h-48.626c0.036-0.17,0.061-0.342,0.096-0.512c2.741-13.153,1.987-26.999-2.158-39.78
			c-3.342-10.303-8.884-19.857-16.154-27.885c-7.249-8.003-16.181-14.446-26.069-18.787c-0.771-0.339-8.499-2.925-8.499-3.146
			V146.029h113.882V378.363z M496.893,130.922H383.01V75.415h113.882V130.922z"/>
	</g>
</g>
<g>
</g>
<g>
</g>
<g>
</g>
<g>
</g>
<g>
</g>
<g>
</g>
<g>
</g>
<g>
</g>
<g>
</g>
<g>
</g>
<g>
</g>
<g>
</g>
<g>
</g>
<g>
</g>
<g>
</g>
</svg>
