<?xml version="1.0" encoding="iso-8859-1"?>
<!-- Generator: Adobe Illustrator 16.0.0, SVG Export Plug-In . SVG Version: 6.00 Build 0)  -->
<!DOCTYPE svg PUBLIC "-//W3C//DTD SVG 1.1//EN" "http://www.w3.org/Graphics/SVG/1.1/DTD/svg11.dtd">
<svg version="1.1" id="Capa_1" xmlns="http://www.w3.org/2000/svg" xmlns:xlink="http://www.w3.org/1999/xlink" x="0px" y="0px"
	 width="45px" height="45px" viewBox="0 0 45 45" style="enable-background:new 0 0 45 45;" xml:space="preserve">
<g>
	<path d="M43.373,8.675H1.627C0.729,8.675,0,9.403,0,10.301V34.7c0,0.897,0.729,1.625,1.627,1.625h41.746
		c0.898,0,1.627-0.728,1.627-1.625V10.301C45,9.403,44.271,8.675,43.373,8.675z M36.186,14.796h2.541v2.541h-2.541V14.796z
		 M36.186,17.956h2.541v2.541h-2.541V17.956z M36.186,21.112h2.541v2.542h-2.541V21.112z M32.938,14.796h2.543v2.541h-2.543V14.796z
		 M32.938,17.956h2.543v2.541h-2.543V17.956z M30.091,33.073h-2.813c0.445-0.251,0.758-0.843,0.758-1.529h-5.288
		c2.704-1.651,4.476-4.365,4.476-7.438H6.076c0,3.073,1.771,5.787,4.475,7.438H5.264c0,0.688,0.312,1.278,0.754,1.529H3.253V11.927
		h26.838V33.073L30.091,33.073z M32.938,21.112h2.543v2.542h-2.543V21.112z M37.389,32.236c-1.535,0-2.779-1.243-2.779-2.776
		c0-1.535,1.244-2.778,2.779-2.778c1.533,0,2.777,1.243,2.777,2.778C40.166,30.993,38.922,32.236,37.389,32.236z M41.973,23.654
		h-2.541v-2.542h2.541V23.654z M41.973,20.497h-2.541v-2.541h2.541V20.497z M41.973,17.337h-2.541v-2.541h2.541V17.337z"/>
</g>
<g>
</g>
<g>
</g>
<g>
</g>
<g>
</g>
<g>
</g>
<g>
</g>
<g>
</g>
<g>
</g>
<g>
</g>
<g>
</g>
<g>
</g>
<g>
</g>
<g>
</g>
<g>
</g>
<g>
</g>
</svg>
