<svg height="512pt" viewBox="0 0 512 512.00081" width="512pt" xmlns="http://www.w3.org/2000/svg"><path d="m467 .00390625h-181c-24.8125 0-45 20.18749975-45 44.99999975v60c0 24.8125 20.1875 45 45 45h75v31h-75c-24.8125 0-45 20.183594-45 44.996094v60c0 24.816406 20.1875 45 45 45h75v31h-75c-24.8125 0-45 20.1875-45 45v60c0 24.8125 20.1875 45 45 45h181c24.8125 0 45-20.1875 45-45v-60c0-24.8125-20.1875-45-45-45h-76v-31h76c24.8125 0 45-20.183594 45-45v-60c0-24.8125-20.1875-44.996094-45-44.996094h-76v-31h76c24.8125 0 45-20.1875 45-45v-60c0-24.8125-20.1875-44.99999975-45-44.99999975zm15 406.99609375v60c0 8.273438-6.730469 15-15 15h-181c-8.273438 0-15-6.726562-15-15v-60c0-8.269531 6.726562-15 15-15h181c8.269531 0 15 6.730469 15 15zm0-181v60c0 8.273438-6.730469 15-15 15h-181c-8.273438 0-15-6.726562-15-15v-60c0-8.269531 6.726562-14.996094 15-14.996094h181c8.269531 0 15 6.726563 15 14.996094zm0-120.996094c0 8.269532-6.730469 15-15 15h-181c-8.273438 0-15-6.730468-15-15v-60c0-8.273437 6.726562-15 15-15h181c8.269531 0 15 6.726563 15 15zm0 0"/><path d="m76 452c8.285156 0 15-6.714844 15-15 0-8.28125-6.714844-15-15-15-24.933594 0-46-20.605469-46-45 0-8.28125-6.714844-15-15-15s-15 6.71875-15 15c0 41.457031 34.535156 75 76 75zm0 0"/><path d="m15 331c8.285156 0 15-6.714844 15-15v-60c0-8.28125-6.714844-15-15-15s-15 6.71875-15 15v60c0 8.285156 6.714844 15 15 15zm0 0"/><path d="m15 211.003906c8.285156 0 15-6.71875 15-15v-61c0-24.394531 21.066406-45 46-45h70.457031l-48.777343 32.515625c-6.894532 4.597657-8.757813 13.910157-4.160157 20.800781 4.617188 6.929688 13.941407 8.734376 20.800781 4.160157l90-59.996094c4.171876-2.785156 6.679688-7.46875 6.679688-12.484375s-2.507812-9.699219-6.679688-12.480469l-90-60c-6.894531-4.59375-16.207031-2.730469-20.800781 4.160157-4.597656 6.894531-2.734375 16.207031 4.160157 20.800781l48.777343 32.519531h-70.457031c-41.457031 0-76 33.535156-76 75v61c0 8.285156 6.714844 15.003906 15 15.003906zm0 0"/><path d="m136 422c-8.285156 0-15 6.71875-15 15 0 8.285156 6.714844 15 15 15h60c8.285156 0 15-6.714844 15-15 0-8.28125-6.714844-15-15-15zm0 0"/><path d="m437 60.003906h-121c-8.285156 0-15 6.714844-15 15 0 8.28125 6.714844 15 15 15h121c8.28125 0 15-6.71875 15-15 0-8.285156-6.71875-15-15-15zm0 0"/><path d="m301 256c0 8.285156 6.714844 15 15 15h121c8.28125 0 15-6.714844 15-15 0-8.28125-6.71875-15-15-15h-121c-8.285156 0-15 6.71875-15 15zm0 0"/><path d="m301 437c0 8.285156 6.714844 15 15 15h121c8.28125 0 15-6.714844 15-15 0-8.28125-6.71875-15-15-15h-121c-8.285156 0-15 6.714844-15 15zm0 0"/></svg>