<?xml version="1.0" encoding="iso-8859-1"?>
<!-- Generator: Adobe Illustrator 19.0.0, SVG Export Plug-In . SVG Version: 6.00 Build 0)  -->
<svg version="1.1" id="Capa_1" xmlns="http://www.w3.org/2000/svg" xmlns:xlink="http://www.w3.org/1999/xlink" x="0px" y="0px"
	 viewBox="0 0 512 512" style="enable-background:new 0 0 512 512;" xml:space="preserve">
	<g>
		<path d="M359.385,137.846c-5.804,0-11.328,1.224-16.327,3.426c-6.982-12.323-20.218-20.657-35.365-20.657
			c-5.804,0-11.328,1.224-16.327,3.427c-6.982-12.323-20.218-20.657-35.365-20.657s-28.383,8.334-35.365,20.657
			c-4.999-2.203-10.524-3.427-16.327-3.427c-22.395,0-40.615,18.22-40.615,40.615v47.073c-3.522-0.999-7.239-1.535-11.077-1.535
			c-22.395,0-40.615,18.22-40.615,40.615v94.769c0,36.647,29.814,66.461,66.462,66.461h155.077
			c36.647,0,66.462-29.814,66.462-66.461V178.462C400,156.066,381.78,137.846,359.385,137.846z M370.462,342.154
			c0,20.36-16.563,36.923-36.923,36.923H178.462c-20.36,0-36.923-16.563-36.923-36.923v-94.769c0-6.108,4.969-11.077,11.077-11.077
			c6.108,0,11.077,4.969,11.077,11.077v77.538c0,8.157,6.613,14.769,14.769,14.769s14.769-6.613,14.769-14.769V161.231
			c0-6.108,4.969-11.077,11.077-11.077c6.108,0,11.077,4.969,11.077,11.077V256c0,8.157,6.613,14.769,14.769,14.769
			s14.769-6.613,14.769-14.769V144c0-6.108,4.969-11.077,11.077-11.077s11.077,4.969,11.077,11.077v112
			c0,8.157,6.613,14.769,14.769,14.769s14.769-6.613,14.769-14.769v-94.769c0-6.108,4.969-11.077,11.077-11.077
			c6.108,0,11.077,4.969,11.077,11.077V256c0,8.157,6.613,14.769,14.769,14.769s14.769-6.613,14.769-14.769v-77.538
			c0-6.108,4.969-11.077,11.077-11.077c6.108,0,11.077,4.969,11.077,11.077V342.154z"/>
		<path d="M323.938,47.262L264.862,2.954c-5.252-3.938-12.471-3.938-17.723,0l-59.077,44.308
			c-6.525,4.895-7.848,14.152-2.954,20.677c4.896,6.525,14.152,7.847,20.677,2.954L256,33.231l50.215,37.662
			c2.656,1.993,5.766,2.955,8.85,2.955c4.491,0,8.926-2.04,11.827-5.909C331.787,61.413,330.464,52.156,323.938,47.262z"/>
		<path d="M326.892,444.062c-4.896-6.525-14.152-7.847-20.677-2.954L256,478.769l-50.215-37.662
			c-6.524-4.895-15.783-3.571-20.677,2.954c-4.894,6.525-3.571,15.782,2.954,20.677l59.077,44.308
			c2.626,1.969,5.743,2.954,8.862,2.954s6.236-0.985,8.862-2.954l59.077-44.308C330.464,459.844,331.787,450.587,326.892,444.062z"
			/>
		<path d="M33.231,256l37.662-50.215c4.894-6.525,3.571-15.782-2.954-20.677c-6.525-4.894-15.782-3.571-20.677,2.954L2.954,247.138
			c-3.938,5.251-3.938,12.472,0,17.723l44.308,59.077c2.902,3.869,7.336,5.909,11.827,5.909c3.084,0,6.193-0.963,8.85-2.955
			c6.525-4.895,7.848-14.152,2.954-20.677L33.231,256z"/>
		<path d="M509.046,247.138l-44.308-59.077c-4.895-6.525-14.152-7.847-20.677-2.954c-6.525,4.895-7.848,14.152-2.954,20.677
			L478.769,256l-37.662,50.215c-4.895,6.525-3.571,15.782,2.954,20.677c2.656,1.993,5.766,2.955,8.85,2.955
			c4.491,0,8.926-2.04,11.827-5.909l44.308-59.077C512.985,259.611,512.985,252.389,509.046,247.138z"/>
	</g>
</svg>
