<?xml version="1.0" encoding="iso-8859-1"?>
<!-- Generator: Adobe Illustrator 19.0.0, SVG Export Plug-In . SVG Version: 6.00 Build 0)  -->
<svg version="1.1" id="Capa_1" xmlns="http://www.w3.org/2000/svg" xmlns:xlink="http://www.w3.org/1999/xlink" x="0px" y="0px"
	 viewBox="0 0 502.624 502.624" style="enable-background:new 0 0 502.624 502.624;" xml:space="preserve">
<g>
	<g>
		<g>
			<polygon points="235.312,61.248 235.312,118.624 267.312,118.624 267.312,61.248 288,81.936 310.624,59.312 251.312,0 
				192,59.312 214.624,81.936 			"/>
			<polygon points="438.624,107.312 416,129.936 436.688,150.624 395.312,150.624 395.312,182.624 436.688,182.624 416,203.312 
				438.624,225.936 497.936,166.624 			"/>
			<polygon points="86.624,129.936 64,107.312 4.688,166.624 64,225.936 86.624,203.312 65.936,182.624 107.312,182.624 
				107.312,150.624 65.936,150.624 			"/>
			<path d="M299.312,198.624c0-26.51-21.49-48-48-48c-26.51,0-48,21.49-48,48v64c-35.346,0-64,28.654-64,64v85.328l48,64v26.672h32
				v-37.328l-48-64v-74.672c0-17.673,14.327-32,32-32v80h32v-176c0-8.837,7.163-16,16-16c8.837,0,16,7.163,16,16v91.088l128,48
				v65.136l-32,64v35.776h32V474.4l32-64v-94.864l-128-48V198.624z"/>
			<rect x="139.312" y="150.624" width="32" height="32"/>
			<rect x="331.312" y="150.624" width="32" height="32"/>
		</g>
	</g>
</g>
<g>
</g>
<g>
</g>
<g>
</g>
<g>
</g>
<g>
</g>
<g>
</g>
<g>
</g>
<g>
</g>
<g>
</g>
<g>
</g>
<g>
</g>
<g>
</g>
<g>
</g>
<g>
</g>
<g>
</g>
</svg>
