<?xml version="1.0" encoding="iso-8859-1"?>
<!-- Generator: Adobe Illustrator 19.0.0, SVG Export Plug-In . SVG Version: 6.00 Build 0)  -->
<svg version="1.1" id="Capa_1" xmlns="http://www.w3.org/2000/svg" xmlns:xlink="http://www.w3.org/1999/xlink" x="0px" y="0px"
	 viewBox="0 0 511.781 511.781" style="enable-background:new 0 0 511.781 511.781;" xml:space="preserve">
<g>
	<g>
		<path d="M298.557,191.781h-85.333c-29.397,0-53.333,23.936-53.333,53.333v21.333c0,29.397,23.936,53.333,53.333,53.333h85.333
			c29.397,0,53.333-23.915,53.333-53.333v-21.333C351.891,215.717,327.955,191.781,298.557,191.781z M330.557,266.448
			c0,17.643-14.357,32-32,32h-85.333c-17.643,0-32-14.357-32-32v-21.333c0-17.643,14.357-32,32-32h85.333c17.643,0,32,14.357,32,32
			V266.448z"/>
	</g>
</g>
<g>
	<g>
		<path d="M349.544,110.459L264.211,3.792c-4.053-5.056-12.608-5.056-16.661,0l-85.333,106.667c-2.56,3.2-3.051,7.595-1.28,11.285
			c1.792,3.691,5.525,6.037,9.621,6.037h170.667c4.096,0,7.829-2.347,9.6-6.037S352.104,113.659,349.544,110.459z M192.765,106.448
			l63.125-78.912l63.147,78.912H192.765z"/>
	</g>
</g>
<g>
	<g>
		<path d="M350.845,389.819c-1.792-3.691-5.525-6.037-9.621-6.037H170.557c-4.096,0-7.829,2.368-9.621,6.037
			c-1.771,3.691-1.28,8.085,1.28,11.285l85.333,106.667c2.048,2.539,5.099,4.011,8.341,4.011c3.243,0,6.293-1.472,8.341-4.011
			l85.333-106.667C352.125,397.904,352.616,393.509,350.845,389.819z M255.891,484.048l-63.125-78.933h126.251L255.891,484.048z"/>
	</g>
</g>
<g>
</g>
<g>
</g>
<g>
</g>
<g>
</g>
<g>
</g>
<g>
</g>
<g>
</g>
<g>
</g>
<g>
</g>
<g>
</g>
<g>
</g>
<g>
</g>
<g>
</g>
<g>
</g>
<g>
</g>
</svg>
