<?xml version="1.0" encoding="iso-8859-1"?>
<!-- Generator: Adobe Illustrator 19.0.0, SVG Export Plug-In . SVG Version: 6.00 Build 0)  -->
<svg version="1.1" id="Layer_1" xmlns="http://www.w3.org/2000/svg" xmlns:xlink="http://www.w3.org/1999/xlink" x="0px" y="0px"
	 viewBox="0 0 511.999 511.999" style="enable-background:new 0 0 511.999 511.999;" xml:space="preserve">
<g>
	<g>
		<path d="M226.507,216.026l-74.851-11.99l-24.68-54.146l36.791,40.874v-55.647c0-16.945-13.737-30.682-30.682-30.682H78.371
			c-16.945,0-30.682,13.737-30.682,30.682c0,0-1.309,147.1-0.749,151.613c2.182,17.603,10.679,86.141,10.679,86.141l-43.075,104.55
			c-5.266,12.784,0.827,27.415,13.61,32.682c12.779,5.267,27.415-0.825,32.682-13.609l45.582-110.635
			c1.643-3.988,2.229-8.335,1.698-12.617l-7.833-63.183h19.443l7.049,53.972l-24.934,117.743
			c-2.864,13.525,5.778,26.812,19.304,29.677c13.525,2.864,26.812-5.78,29.677-19.304l25.821-121.927
			c0.586-2.77,0.699-5.62,0.332-8.429l-12.518-95.84c-0.012-0.091-0.029-0.18-0.042-0.271l-33.667-5.393
			c-17.285-2.769-27.317-16.863-28.829-24.44l-12.524-62.732l27.254,59.792c2.933,6.433,8.993,11.351,16.475,12.55
			c26.857,4.301,59.61,9.548,86.453,13.847c0.001,0,0.002,0,0.003,0c11.98,1.918,23.193-6.253,25.101-18.173
			C246.594,229.179,238.457,217.94,226.507,216.026z"/>
	</g>
</g>
<g>
	<g>
		<circle cx="105.971" cy="45.418" r="45.418"/>
	</g>
</g>
<g>
	<g>
		<path d="M494.522,447.506v-10.405c0-4.408-2.738-8.351-6.867-9.893c-170.711-63.685-159.548-59.866-162.429-59.853
			l-65.828-123.286c-1.58,8.974-6.371,16.81-13.161,22.304l58.53,109.619l-18.412,8.789l-58.967-110.439
			c-6.63,0.784-9.743-0.133-26.581-2.831l66.498,124.541c-1.051,1.889-0.163-1.253-11.077,46.649
			c-4.829,7.105-7.656,15.677-7.656,24.896c0,24.484,19.918,44.402,44.402,44.402c21.088,0,38.778-14.782,43.282-34.526h75.408
			c4.504,19.744,22.193,34.526,43.281,34.526c24.484,0,44.403-19.918,44.403-44.402
			C499.348,460.369,497.601,453.544,494.522,447.506z M292.975,488.779c-11.68,0-21.182-9.502-21.182-21.182
			c0-11.68,9.502-21.182,21.182-21.182c11.68,0,21.183,9.502,21.183,21.182C314.157,479.277,304.655,488.779,292.975,488.779z
			 M454.945,488.779c-11.679,0-21.181-9.502-21.181-21.182c0-11.68,9.502-21.182,21.181-21.182c11.681,0,21.183,9.502,21.183,21.182
			C476.129,479.277,466.625,488.779,454.945,488.779z"/>
	</g>
</g>
<g>
</g>
<g>
</g>
<g>
</g>
<g>
</g>
<g>
</g>
<g>
</g>
<g>
</g>
<g>
</g>
<g>
</g>
<g>
</g>
<g>
</g>
<g>
</g>
<g>
</g>
<g>
</g>
<g>
</g>
</svg>
