<svg height="512pt" viewBox="0 0 512.01157 512" width="512pt" xmlns="http://www.w3.org/2000/svg"><g><path d="m238.351562 335.453125h35.308594c4.875 0 8.828125 3.953125 8.828125 8.828125v35.3125c0 4.875-3.953125 8.824219-8.828125 8.824219h-35.308594c-4.875 0-8.828124-3.949219-8.828124-8.824219v-35.3125c0-4.875 3.953124-8.828125 8.828124-8.828125zm0 0"/><path d="m238.351562 114.765625h35.308594c4.875 0 8.828125 3.949219 8.828125 8.828125v158.894531c0 4.875-3.953125 8.828125-8.828125 8.828125h-35.308594c-4.875 0-8.828124-3.953125-8.828124-8.828125v-158.894531c0-4.878906 3.953124-8.828125 8.828124-8.828125zm0 0"/><path d="m108.585938 465.21875-31.714844 31.714844c-2.527344 2.527344-3.28125 6.324218-1.917969 9.621094 1.367187 3.300781 4.585937 5.453124 8.160156 5.449218h102.273438c4.875 0 8.824219-3.949218 8.824219-8.824218v-102.277344c0-3.570313-2.148438-6.789063-5.449219-8.152344-3.296875-1.367188-7.09375-.613281-9.617188 1.910156l-32.425781 32.425782c-12.363281-7.9375-23.847656-17.167969-34.25-27.542969-49.300781-49.257813-69.875-120.371094-54.492188-188.34375 15.386719-67.972657 64.578126-123.292969 130.289063-146.515625 3.539063-1.210938 5.925781-4.527344 5.945313-8.269532v-37.246093c.019531-2.761719-1.261719-5.371094-3.457032-7.046875-2.195312-1.675782-5.046875-2.226563-7.707031-1.480469-86.480469 25.683594-153.050781 95.007813-175.203125 182.460937-22.15625 87.449219 3.375 180.109376 67.195312 243.871094 10.375 10.332032 21.597657 19.78125 33.546876 28.246094zm0 0"/><path d="m328.964844 501.371094c86.480468-25.683594 153.050781-95.007813 175.203125-182.460938 22.15625-87.453125-3.375-180.109375-67.195313-243.871094-10.375-10.332031-21.597656-19.78125-33.546875-28.246093l31.714844-31.71875c2.527344-2.523438 3.28125-6.320313 1.914063-9.617188-1.367188-3.300781-4.585938-5.45312475-8.15625-5.45312475h-102.273438c-4.875 0-8.824219 3.95312475-8.824219 8.82812475v102.277344c0 3.570313 2.148438 6.785156 5.449219 8.152344 3.296875 1.367187 7.09375.613281 9.617188-1.910157l32.425781-32.425781c12.363281 7.9375 23.847656 17.167969 34.25 27.542969 49.300781 49.257812 69.875 120.371094 54.492187 188.339844-15.386718 67.972656-64.578125 123.292968-130.289062 146.519531-3.539063 1.210937-5.925782 4.527344-5.945313 8.269531v37.246094c-.019531 2.761719 1.261719 5.371094 3.457031 7.046875 2.191407 1.675781 5.046876 2.226563 7.707032 1.480469zm0 0"/></g></svg>