<svg xmlns="http://www.w3.org/2000/svg" xmlns:xlink="http://www.w3.org/1999/xlink" version="1.1" id="svg" x="0" y="0" viewBox="0 0 612 612" xml:space="preserve" enable-background="new 0 0 612.003 612.003">
<g fill="#fff">
	<path d="M546.17 592.87c-0.15-0.41-0.3-0.8-0.41-1.14 -14.49-44.23-55.52-73.95-102.09-73.95 -16.82 0-32.88 3.95-47.23 11 -1.49-1.42-3.02-2.8-4.58-4.16 -21.28-18.39-47.82-29.48-75.7-31.83v-41.02c8.27-3.99 19.71-4.68 32.81-5.46 26.22-1.57 58.85-3.52 86.56-33.8 35.64-38.96 43.22-109.39 35.36-127.22 -2.71-6.15-7.03-7.07-9.37-7.07 -2.28 0-4.48 0.84-6.53 2.49 -7.19 5.77-20.06 6.46-34.97 7.27 -26.14 1.41-58.67 3.16-85.43 32.41 -7.35 8.04-13.45 17.25-18.44 26.99v-95.12c6.7-7 16.64-13.01 27.8-19.74 25.92-15.64 58.18-35.1 70.22-80.72C428.18 98.68 404.44 30.58 387.79 8.97 383.14 2.94 378.74 0 374.33 0c-1.91 0-6.65 0.65-9.27 6.65 -4.4 10.09-17.38 17.82-32.4 26.76 -25.92 15.43-58.18 34.64-69.8 78.68 -14.64 55.51 10.5 120.38 26.56 141.23 0.42 0.55 0.84 1.06 1.25 1.56v51.46c-4.75-17.66-13.7-35.81-32.98-51.57 -29.24-23.91-73.42-32.4-102.36-32.4 -28.05 0-31.33 7.35-32.4 9.76 -0.74 1.65-2.01 5.98 2.08 10.53 6.16 6.86 7.57 19.67 9.2 34.51 2.86 26.02 6.42 58.4 37.11 83.5 28.69 23.46 70.43 31.82 99.94 31.82 7.76 0 14.22-0.54 19.42-1.58v102.21c-26.72 2.89-52.07 13.81-72.55 31.51 -1.56 1.35-3.09 2.74-4.58 4.16 -14.35-7.05-30.42-11-47.23-11 -22.12 0-43.36 6.67-61.43 19.29 -17.65 12.33-31.07 29.43-38.8 49.44 -2.88 7.46-2.69 13.91 0.56 18.65 3.12 4.55 8.5 6.85 16.01 6.85h89.88 100.68 63.56 100.68 96.41c5.75 0 9.86-1.71 12.2-5.07C549.53 601.95 547.34 596.04 546.17 592.87zM263.24 350.16c-0.34-0.33-0.69-0.66-1.02-1.01l-0.51-0.52 -0.13-0.13 -0.03-0.03c-0.04-0.04 0.21 0.26 0.09 0.12l-0.06-0.05 -0.25-0.21c-0.65-0.57-1.31-1.15-1.97-1.73 -1.4-1.1-2.76-2.26-4.27-3.34 -5.92-4.38-12.88-8.39-20.34-12.29 -7.43-3.93-15.31-7.81-22.61-12.36 -3.65-2.26-7.13-4.7-10.31-7.3 -3.17-2.59-5.99-5.44-8.28-8.33 -2.27-2.91-4.08-5.81-5.21-8.6 -0.32-0.67-0.56-1.35-0.78-2.01 -0.23-0.65-0.44-1.29-0.63-1.89 -0.3-1.25-0.57-2.37-0.74-3.4 -0.14-1.06-0.24-1.99-0.3-2.79 -0.06-0.79 0-1.44 0-1.98 0.05-1.08 0.07-1.66 0.07-1.66s0.32 0.48 0.92 1.38c0.3 0.44 0.63 1.03 1.08 1.65 0.44 0.59 0.95 1.26 1.51 2.02 0.6 0.71 1.27 1.49 2 2.34 0.84 0.77 1.55 1.67 2.53 2.47 1.8 1.71 4.06 3.34 6.57 4.94 2.53 1.61 5.38 3.15 8.56 4.64 3.16 1.51 6.63 2.96 10.3 4.49 7.33 3.05 15.51 6.35 23.64 10.6 4.06 2.13 8.09 4.52 11.92 7.22 3.83 2.69 7.44 5.72 10.64 9 1.61 1.62 3.09 3.35 4.46 5.08 0.66 0.89 1.31 1.78 1.95 2.65l0.24 0.33 0.06 0.08c-0.1-0.12 0.17 0.21 0.15 0.19l0.03 0.04 0.1 0.15 0.39 0.61c0.26 0.4 0.5 0.82 0.75 1.23 1.98 3.25 3.78 6.38 5.4 9.31 0.79 1.48 1.57 2.88 2.27 4.24 0.69 1.38 1.34 2.69 1.91 3.95 1.16 2.5 2.14 4.72 2.89 6.57 1.53 3.69 2.24 5.93 2.24 5.93s-1.95-1.27-5.05-3.71c-3.15-2.42-7.31-6.07-12.33-10.51C268.58 355.3 265.95 352.83 263.24 350.16zM305.46 234.84c0.72-2.16 1.66-4.74 2.78-7.67 1.14-2.92 2.44-6.21 3.84-9.81 1.45-3.58 3.08-7.41 4.88-11.43 0.23-0.5 0.45-1.01 0.68-1.51l0.35-0.76 0.09-0.19 0.02-0.05c0.03-0.05-0.16 0.28-0.07 0.12l0.03-0.09 0.14-0.36c0.36-0.95 0.73-1.91 1.1-2.88 0.65-1.99 1.36-3.98 1.93-6.08 2.38-8.34 3.84-17.67 4.91-27.42 1.11-9.74 1.93-19.9 3.64-29.65 0.85-4.87 1.94-9.64 3.33-14.13 1.38-4.49 3.16-8.7 5.22-12.37 2.08-3.66 4.35-6.83 6.77-9.25 0.56-0.63 1.17-1.19 1.77-1.71 0.59-0.53 1.16-1.03 1.71-1.5 1.18-0.87 2.24-1.65 3.24-2.3 1.06-0.62 1.99-1.14 2.79-1.56 0.8-0.42 1.52-0.66 2.09-0.91 1.16-0.45 1.77-0.69 1.77-0.69s-0.4 0.53-1.15 1.51c-0.36 0.49-0.88 1.07-1.38 1.79 -0.48 0.7-1.02 1.51-1.63 2.42 -0.54 0.93-1.14 1.96-1.8 3.09 -0.52 1.21-1.25 2.34-1.74 3.73 -0.27 0.67-0.55 1.36-0.84 2.07 -0.24 0.73-0.49 1.47-0.74 2.24 -0.27 0.75-0.45 1.57-0.68 2.37 -0.24 0.8-0.45 1.63-0.61 2.51 -0.77 3.42-1.33 7.19-1.68 11.29 -0.38 4.09-0.56 8.48-0.72 13.1 -0.31 9.24-0.47 19.46-1.63 29.98 -0.59 5.25-1.45 10.57-2.71 15.79 -1.25 5.22-2.94 10.34-5.06 15.13 -1.03 2.4-2.24 4.7-3.48 6.9 -0.66 1.08-1.32 2.15-1.97 3.2l-0.24 0.39 -0.06 0.1 -0.12 0.21 -0.03 0.04 -0.12 0.17 -0.49 0.68c-0.33 0.45-0.66 0.9-0.99 1.34 -2.61 3.55-5.16 6.86-7.56 9.88 -1.22 1.5-2.37 2.95-3.5 4.31 -1.15 1.35-2.26 2.62-3.33 3.8 -2.13 2.36-4.03 4.39-5.64 6.03 -3.2 3.29-5.21 5.06-5.21 5.06S304 239.14 305.46 234.84zM340.2 412.11l0.06-0.05 0.24-0.22c0.64-0.58 1.29-1.17 1.94-1.77 1.25-1.27 2.55-2.5 3.79-3.87 5.01-5.4 9.76-11.87 14.46-18.86 4.73-6.95 9.46-14.35 14.78-21.11 2.65-3.38 5.46-6.57 8.4-9.44 2.93-2.87 6.06-5.35 9.19-7.31 3.15-1.94 6.23-3.41 9.12-4.23 0.7-0.24 1.41-0.41 2.09-0.56 0.68-0.16 1.33-0.29 1.95-0.41 1.28-0.16 2.42-0.3 3.46-0.36 1.07-0.02 2-0.01 2.8 0.01 0.79 0.02 1.43 0.16 1.97 0.22 1.07 0.17 1.64 0.25 1.64 0.25s-0.51 0.27-1.47 0.76c-0.47 0.25-1.1 0.51-1.76 0.89 -0.63 0.37-1.36 0.8-2.17 1.28 -0.77 0.52-1.62 1.1-2.55 1.73 -0.85 0.75-1.83 1.35-2.74 2.24 -1.89 1.6-3.76 3.66-5.64 5.98 -1.87 2.33-3.73 5-5.56 7.99 -1.85 2.98-3.68 6.27-5.6 9.74 -3.84 6.95-8.02 14.71-13.14 22.32 -2.57 3.8-5.39 7.54-8.49 11.05 -3.1 3.51-6.51 6.76-10.12 9.58 -1.79 1.42-3.67 2.7-5.54 3.88 -0.96 0.56-1.91 1.1-2.85 1.65l-0.35 0.2 -0.09 0.05c0.13-0.08-0.22 0.14-0.2 0.13l-0.04 0.02 -0.16 0.08 -0.65 0.32c-0.43 0.22-0.87 0.41-1.3 0.61 -3.45 1.61-6.76 3.06-9.85 4.34 -1.56 0.62-3.03 1.24-4.46 1.79 -1.44 0.53-2.82 1.03-4.13 1.46 -2.62 0.88-4.92 1.6-6.85 2.15 -3.84 1.11-6.14 1.57-6.14 1.57s1.48-1.79 4.25-4.61c2.75-2.86 6.84-6.6 11.81-11.09 2.5-2.21 5.25-4.55 8.2-6.95 0.37-0.3 0.73-0.61 1.11-0.91l0.57-0.45 0.14-0.11 0.03-0.03C340.37 412.01 340.05 412.21 340.2 412.11z"/>
</g>
</svg>