<svg xmlns="http://www.w3.org/2000/svg" version="1.1" id="svg" x="0" y="0" viewBox="0 0 492 492" xml:space="preserve">
<g>
  <path d="M442.02 231c-9.33-28-13.33-49.67-12-65 2.67-35.33 13-67.67 31-97l-69-69c-21.33 18.67-46 29-74 31 -26 2.67-50.33-2.33-73-15 -24 12-48.33 17-73 15 -26.67-2-50.33-11.33-71-28l-69 69c16.67 30 26 61.33 28 94 0.67 15.33-3.67 36.33-13 63 -5.33 14.67-9.33 27.33-12 38 -2 10.67-3.33 19.33-4 26 -0.67 28.67 7.33 54.33 24 77 12.67 16.67 34 35.33 64 56 32 16.67 56.67 27 74 31 2 1.33 4.67 2.67 8 4s5.33 2.33 6 3 5.67 3 15 7c11.33 6.67 19 13.67 23 21 4.67-8 12.33-15 23-21 8-4 14.33-7 19-9 5.33-2 9-3.67 11-5 3.33-1.33 8-3.33 14-6 8.67-3.33 16-6 22-8 16.67-6 29.33-11.67 38-17 28-20.67 48.67-39 62-55 17.34-22.67 25.67-48.67 25-78C458.35 279.67 452.68 259 442.02 231zM304.02 260c-11.33 7.33-28.33 11-51 11h-32v88h-49V133h69c19.33 0 35 1.5 47 4.5s22 9.83 30 20.5c9.33 11.33 14 25.33 14 42C332.02 227.33 322.69 247.33 304.02 260z"/>
  <path d="M275.02 179c-5.33-4.66-10.16-7.33-14.5-8 -4.33-0.67-9.83-1-16.5-1h-24v65h19c5.33 0 9.83-0.17 13.5-0.5s8.17-1.5 13.5-3.5 9.5-5.67 12.5-11 4.5-12 4.5-20C283.02 190.67 280.35 183.67 275.02 179z"/>
</g>
</svg>