<svg xmlns="http://www.w3.org/2000/svg" version="1.1" id="svg" x="0" y="0" width="485.21" height="485.21" viewBox="0 0 485.21 485.21" xml:space="preserve">
<g fill="#fff">
  <path d="M394.24 333.59h-30.33c-33.49 0-60.65-27.16-60.65-60.65v-19.48c13.42-15.95 23.04-34.81 29.02-54.74 0.62-3.36 3.86-5.02 6.01-7.33 11.61-11.61 13.89-31.2 5.19-45.15 -1.19-2.12-3.32-3.95-3.2-6.58 0-17.78 0.09-35.6-0.02-53.37 -0.48-21.45-6.61-43.77-21.65-59.66 -12.14-12.84-28.82-20.48-46.02-23.75 -21.74-4.15-44.48-3.94-66.01 1.54 -18.66 4.71-36.19 15.64-47.03 31.84 -9.6 14.08-13.8 31.18-14.51 48.04 -0.27 18.09-0.06 36.23-0.12 54.37 0.41 3.63-2.67 6.09-4.06 9.09 -8.2 14.88-4.59 35.16 8.59 45.98 3.34 2.31 3.97 6.52 5.18 10.14 5.75 17.92 15.28 34.49 27.34 48.93v20.14c0 33.5-27.16 60.65-60.65 60.65H90.98c0 0-54.96 15.16-90.98 90.98v30.33c0 16.76 13.56 30.32 30.33 30.32h424.56c16.76 0 30.32-13.56 30.32-30.32V424.56C449.2 348.75 394.24 333.59 394.24 333.59z"/>
</g>
</svg>