<svg xmlns="http://www.w3.org/2000/svg" version="1.1" x="0" y="0" width="500" height="500" viewBox="0 0 500 500">
<g fill="#fff">
  <path d="M227.52 320.99L227.52 301.54Q227.52 289.25 229.31 279.52 231.1 269.79 234.94 261.09 238.78 252.38 245.18 244.19 251.58 236 261.31 226.78L284.35 204.77Q294.08 196.06 300.99 185.31 307.9 174.56 307.9 159.2 307.9 139.23 295.36 125.66 282.82 112.1 259.78 112.1 248 112.1 238.53 116.45 229.06 120.8 222.14 128.22 215.23 135.65 211.65 145.38 208.06 155.1 207.55 165.34L144.58 159.71Q147.65 135.14 157.63 115.94 167.62 96.74 183.49 83.42 199.36 70.11 219.84 63.2 240.32 56.29 263.87 56.29 285.89 56.29 305.6 62.69 325.31 69.09 340.42 81.63 355.52 94.18 364.22 112.61 372.93 131.04 372.93 155.1 372.93 171.49 369.34 183.78 365.76 196.06 359.1 206.3 352.45 216.54 342.98 226.02 333.5 235.49 321.73 245.73 311.49 254.43 305.09 261.09 298.69 267.74 294.85 274.4 291.01 281.06 289.47 288.74 287.94 296.42 287.94 307.68L287.94 320.99zM217.28 392.16Q217.28 375.78 229.31 364 241.34 352.22 258.24 352.22 274.62 352.22 286.91 363.49 299.2 374.75 299.2 391.14 299.2 407.52 287.17 419.3 275.14 431.07 258.24 431.07 250.05 431.07 242.62 428 235.2 424.93 229.57 419.81 223.94 414.69 220.61 407.52 217.28 400.35 217.28 392.16z"/>
</g>
</svg>