<?xml version="1.0" encoding="iso-8859-1"?>
<!-- Generator: Adobe Illustrator 16.0.0, SVG Export Plug-In . SVG Version: 6.00 Build 0)  -->
<!DOCTYPE svg PUBLIC "-//W3C//DTD SVG 1.1//EN" "http://www.w3.org/Graphics/SVG/1.1/DTD/svg11.dtd">
<svg version="1.1" id="Capa_1" xmlns="http://www.w3.org/2000/svg" xmlns:xlink="http://www.w3.org/1999/xlink" x="0px" y="0px"
	 width="554.625px" height="554.625px" viewBox="0 0 554.625 554.625" style="enable-background:new 0 0 554.625 554.625;"
	 xml:space="preserve">
<g>
	<g id="Layer_1_62_">
		<g>
			<path d="M75.862,344.25c-10.2,0-17.85,7.65-17.85,17.851v52.274c0,10.2,8.925,17.851,17.85,17.851
				c8.925,0,17.85-7.65,17.85-17.851v-52.274C93.712,353.175,86.062,344.25,75.862,344.25z"/>
			<path d="M181.687,344.25c-10.2,0-17.85,7.65-17.85,17.851v52.274c0,10.2,7.65,17.851,17.85,17.851
				c10.2,0,17.85-7.65,17.85-17.851v-52.274C199.537,353.175,190.612,344.25,181.687,344.25z"/>
			<path d="M286.237,344.25c-10.2,0-17.85,7.65-17.85,17.851v52.274c0,10.2,8.925,17.851,17.85,17.851
				c10.199,0,17.85-7.65,17.85-17.851v-52.274C305.362,353.175,296.437,344.25,286.237,344.25z"/>
			<path d="M128.137,461.55c-10.2,0-17.85,7.65-17.85,17.851v52.274c0,10.2,8.925,17.851,17.85,17.851
				c10.2,0,17.85-7.65,17.85-17.851V479.4C147.262,469.2,138.337,461.55,128.137,461.55z"/>
			<path d="M233.962,461.55c-10.2,0-17.85,7.65-17.85,17.851v52.274c0,10.2,7.65,17.851,17.85,17.851
				c10.2,0,17.85-7.65,17.85-17.851V479.4C251.812,469.2,244.162,461.55,233.962,461.55z"/>
			<path d="M508.087,178.5c0-98.175-80.324-178.5-178.5-178.5c-85.425,0-158.1,61.2-174.675,141.525
				c-63.75,12.75-110.925,68.85-110.925,136.425l0,0c0,22.95,19.125,42.075,42.075,42.075h193.8
				c22.949,0,42.074-19.125,42.074-42.075l0,0c0-61.2-39.524-112.2-93.074-131.325c14.025-43.35,53.55-73.95,102-73.95
				c58.65,0,105.824,47.175,105.824,105.825v340.425c0,20.4,16.576,35.7,36.977,35.7c20.398,0,36.975-16.575,36.975-35.7
				C508.087,518.925,508.087,178.5,508.087,178.5z"/>
		</g>
	</g>
</g>
<g>
</g>
<g>
</g>
<g>
</g>
<g>
</g>
<g>
</g>
<g>
</g>
<g>
</g>
<g>
</g>
<g>
</g>
<g>
</g>
<g>
</g>
<g>
</g>
<g>
</g>
<g>
</g>
<g>
</g>
</svg>
