<svg xmlns="http://www.w3.org/2000/svg" xmlns:xlink="http://www.w3.org/1999/xlink" version="1.1" id="svg" x="0" y="0" viewBox="0 0 367.38 367.38" xml:space="preserve" enable-background="new 0 0 367.379 367.379">
<g fill="#fff">
  <path d="M194.55 10.86c-94.3 0-171.19 75.93-172.8 169.84L0 181.66l46.88 74.76 40.03-78.63 -21.59 0.97c2.59-69.04 59.56-124.4 129.23-124.4 71.33 0 129.34 58.02 129.34 129.34 0 71.31-58.02 129.34-129.34 129.34 -32.59 0-63.72-12.15-87.64-34.24l-29.48 32c31.98 29.5 73.58 45.73 117.13 45.73 95.3 0 172.83-77.52 172.83-172.82C367.38 88.4 289.85 10.86 194.55 10.86z"/>
</g>
</svg>