<svg height="511pt" viewBox="-24 1 511 511.999" width="511pt" xmlns="http://www.w3.org/2000/svg"><g fill="#fff"><path d="m211.898438 205.808594h67.199218v43.421875h-67.199218zm0 0"/><path d="m110.570312 60.15625c45.40625 0 82.347657 36.941406 82.347657 82.347656v33.277344h58.003906l-.050781-53.148438c-.066406-67.617187-55.132813-122.632812-122.753906-122.632812h-61.261719c-12.066407 0-23.40625 4.707031-31.929688 13.253906-8.519531 8.542969-13.191406 19.898438-13.15625 31.964844.011719 5.238281.945313 10.257812 2.613281 14.9375zm0 0"/><path d="m451.746094 374.011719c-9.507813-10.792969-23.21875-16.988281-37.621094-16.988281-.152344 0-.304688.007812-.460938.007812l-8.804687-69.792969h44.378906v-94.144531c0-33.074219-26.910156-59.984375-59.984375-59.984375h-13.554687c-27.082031 0-50.019531 18.054687-57.441407 42.753906v29.945313h-9.136718v73.445312h-127.246094v-73.445312h-18.980469v-63.304688c0-28.851562-23.472656-52.324218-52.324219-52.324218h-75.105468l-20.816406 25.878906c-17.960938 22.332031-18.917969 54.253906-2.320313 77.621094 8.953125 12.605468 22.15625 21.574218 37.175781 25.25 12.679688 3.101562 25.953125 2.265624 38.0625-2.308594l-17.714844 140.410156c-.15625 0-.308593-.007812-.460937-.007812-14.402344 0-28.113281 6.191406-37.621094 16.988281-9.226562 10.480469-13.6875 24.457031-12.230469 38.347656 1.464844 13.941406 8.761719 26.75 20.03125 35.136719 24.109376 17.941406 51.296876 32.519531 80.8125 43.316406 38.410157 14.058594 79.246094 21.1875 121.375 21.1875 42.125 0 82.964844-7.128906 121.378907-21.1875 29.511719-10.796875 56.699219-25.371094 80.808593-43.316406 11.269532-8.386719 18.566407-21.195313 20.03125-35.136719 1.457032-13.890625-3.003906-27.867187-12.230468-38.347656zm-340.589844-226.019531h-30.027344v-30.023438h30.027344zm130.601562 263.6875c-36.050781 0-71.019531-7.390626-101.960937-21.234376l38.679687-69.058593s28.097657 25.3125 67.21875 25.3125c39.121094 0 66.246094-25.3125 66.246094-25.3125l24.410156 72.207031c-29.078124 11.8125-61.375 18.085938-94.59375 18.085938zm0 0"/></g></svg>