<?xml version="1.0" encoding="iso-8859-1"?>
<!-- Generator: Adobe Illustrator 19.0.0, SVG Export Plug-In . SVG Version: 6.00 Build 0)  -->
<svg version="1.1" id="Layer_1" xmlns="http://www.w3.org/2000/svg" xmlns:xlink="http://www.w3.org/1999/xlink" x="0px" y="0px"
	 viewBox="0 0 503.607 503.607" style="enable-background:new 0 0 503.607 503.607;" xml:space="preserve">
<g>
	<g>
		<g>
			<path d="M444.852,0H58.754C26.308,0,0,26.305,0,58.754v386.098c0,32.443,26.311,58.754,58.754,58.754h386.098
				c32.443,0,58.754-26.311,58.754-58.754V58.754C503.607,26.305,477.298,0,444.852,0z M486.82,444.852
				c0,23.172-18.795,41.967-41.967,41.967H58.754c-23.172,0-41.967-18.795-41.967-41.967V58.754
				c0-23.177,18.792-41.967,41.967-41.967h386.098c23.175,0,41.967,18.79,41.967,41.967V444.852z"/>
			<path d="M58.754,41.966c-9.266,0-16.787,7.521-16.787,16.787s7.521,16.787,16.787,16.787s16.787-7.521,16.787-16.787
				S68.02,41.966,58.754,41.966z"/>
			<path d="M444.852,41.966c-9.266,0-16.787,7.521-16.787,16.787s7.521,16.787,16.787,16.787c9.266,0,16.787-7.521,16.787-16.787
				S454.119,41.966,444.852,41.966z"/>
			<path d="M58.754,428.066c-9.266,0-16.787,7.512-16.787,16.787c0,9.266,7.521,16.787,16.787,16.787s16.787-7.521,16.787-16.787
				C75.541,435.578,68.02,428.066,58.754,428.066z"/>
			<path d="M444.852,428.066c-9.266,0-16.787,7.512-16.787,16.787c0,9.266,7.521,16.787,16.787,16.787
				c9.266,0,16.787-7.521,16.787-16.787C461.639,435.578,454.119,428.066,444.852,428.066z"/>
			<path d="M184.656,209.834c-23.177,0-41.967,18.791-41.967,41.967s18.791,41.967,41.967,41.967
				c23.177,0,41.967-18.791,41.967-41.967S207.832,209.834,184.656,209.834z M184.656,276.982c-13.906,0-25.18-11.275-25.18-25.18
				c0-13.906,11.275-25.18,25.18-25.18c13.906,0,25.18,11.275,25.18,25.18C209.836,265.707,198.561,276.982,184.656,276.982z"/>
			<path d="M276.984,251.802c0,23.177,18.791,41.967,41.967,41.967c23.177,0,41.967-18.791,41.967-41.967
				s-18.791-41.967-41.967-41.967C295.774,209.834,276.984,228.625,276.984,251.802z M344.131,251.802
				c0,13.906-11.275,25.18-25.18,25.18c-13.906,0-25.18-11.275-25.18-25.18c0-13.906,11.275-25.18,25.18-25.18
				C332.856,226.621,344.131,237.896,344.131,251.802z"/>
			<path d="M278.457,103.203c-5.144-0.917-9.867,3.038-9.867,8.263v22.83h-33.574v-22.83c0-5.225-4.723-9.181-9.867-8.263
				c-71.585,12.768-124.428,75.135-124.428,148.601c0,73.462,52.847,135.835,124.429,148.593c5.144,0.917,9.866-3.038,9.866-8.263
				v-22.822h33.574v22.822c0,5.225,4.722,9.18,9.866,8.263c71.581-12.758,124.429-75.131,124.429-148.593
				C402.885,178.338,350.042,115.97,278.457,103.203z M285.377,381.728v-20.809c0-4.636-3.758-8.393-8.393-8.393h-50.361
				c-4.636,0-8.393,3.758-8.393,8.393v20.809c-58.544-15.037-100.721-68.062-100.721-129.924
				c0-61.867,42.174-114.887,100.721-129.931v20.817c0,4.636,3.758,8.393,8.393,8.393h50.361c4.636,0,8.393-3.758,8.393-8.393
				v-20.817c58.547,15.044,100.721,68.065,100.721,129.931C386.098,313.667,343.921,366.691,285.377,381.728z"/>
			<circle cx="251.803" cy="251.802" r="8.393"/>
		</g>
	</g>
</g>
<g>
</g>
<g>
</g>
<g>
</g>
<g>
</g>
<g>
</g>
<g>
</g>
<g>
</g>
<g>
</g>
<g>
</g>
<g>
</g>
<g>
</g>
<g>
</g>
<g>
</g>
<g>
</g>
<g>
</g>
</svg>
