<svg xmlns="http://www.w3.org/2000/svg" version="1.1" id="svg" x="0" y="0" width="497.25" height="497.25" viewBox="0 0 497.25 497.25" xml:space="preserve">
<g fill="#fff">
  <path d="M478.13 205.59v-86.06c0-10.57-8.56-19.12-19.12-19.12H38.25c-10.57 0-19.12 8.56-19.12 19.13v86.1c0.13 0 0.26-0.04 0.4-0.04H478.13z"/>
  <path d="M497.25 243.84c0-10.57-8.46-19.12-19.03-19.12h-0.1H19.53c-0.14 0-0.27 0.04-0.4 0.04C8.74 224.98 0 233.42 0 243.84v114.75h497.25V243.84z"/>
  <rect x="19.13" y="377.72" width="47.81" height="19.13"/>
  <rect x="430.31" y="377.72" width="47.81" height="19.13"/>
</g>
</svg>