<svg xmlns="http://www.w3.org/2000/svg" xmlns:xlink="http://www.w3.org/1999/xlink" version="1.1" id="svg" x="0" y="0" width="510" height="510" viewBox="0 0 510 510" xml:space="preserve" enable-background="new 0 0 510 510">
  <g fill="#fff" id="speaker">
    <path d="M382.5 0h-255c-28.05 0-51 22.95-51 51v408c0 28.05 22.95 51 51 51h255c28.05 0 51-22.95 51-51V51C433.5 22.95 410.55 0 382.5 0zM255 51c28.05 0 51 22.95 51 51s-22.95 51-51 51 -51-22.95-51-51S226.95 51 255 51zM255 459c-71.4 0-127.5-56.1-127.5-127.5S183.6 204 255 204c71.4 0 127.5 56.1 127.5 127.5S326.4 459 255 459zM255 255c-43.35 0-76.5 33.15-76.5 76.5S211.65 408 255 408c43.35 0 76.5-33.15 76.5-76.5S298.35 255 255 255z"/>
  </g>
</svg>