<?xml version="1.0" encoding="utf-8"?>
<!-- Generator: Adobe Illustrator 15.0.0, SVG Export Plug-In . SVG Version: 6.00 Build 0)  -->
<!DOCTYPE svg PUBLIC "-//W3C//DTD SVG 1.1//EN" "http://www.w3.org/Graphics/SVG/1.1/DTD/svg11.dtd">
<svg version="1.1" id="Ebene_1" xmlns="http://www.w3.org/2000/svg" xmlns:xlink="http://www.w3.org/1999/xlink" x="0px" y="0px"
	 width="25px" height="18.625px" viewBox="0 0 25 18.625" enable-background="new 0 0 25 18.625" xml:space="preserve">
	<g>
		<path fill="none" stroke-miterlimit="10" d="M20.018,0.709c2.193,2.246,3.545,5.318,3.545,8.706
			c0,3.378-1.346,6.444-3.528,8.688"/>
		<path fill="none" stroke-miterlimit="10" d="M15.627,5.098c1.102,1.124,1.779,2.662,1.779,4.36
			c0,1.667-0.654,3.181-1.719,4.3"/>
		<path fill="none" stroke-miterlimit="10" d="M17.814,2.913c1.629,1.682,2.633,3.975,2.633,6.502
			c0,2.519-0.998,4.806-2.617,6.485"/>
		<path d="M13.063,0.521c-0.542-0.042-8.25,5.792-8.25,5.792s-3.917-0.292-4.083,0s-0.417,5.625,0,5.625
	s4.083,0,4.083,0s7.708,6.082,8.25,6.166C13.604,18.188,13.604,0.563,13.063,0.521z"/>
	</g>
</svg>
