<?xml version="1.0" encoding="iso-8859-1"?>
<!-- Generator: Adobe Illustrator 17.1.0, SVG Export Plug-In . SVG Version: 6.00 Build 0)  -->
<!DOCTYPE svg PUBLIC "-//W3C//DTD SVG 1.1//EN" "http://www.w3.org/Graphics/SVG/1.1/DTD/svg11.dtd">
<svg version="1.1" id="Capa_1" xmlns="http://www.w3.org/2000/svg" xmlns:xlink="http://www.w3.org/1999/xlink" x="0px" y="0px"
	 viewBox="0 0 398.75 398.75" style="enable-background:new 0 0 398.75 398.75;" xml:space="preserve">
<g fill="#fff">
	<polygon points="343.033,187.871 372.576,155.299 346.65,131.785 317.095,164.371 240.642,182.38 
		248.667,216.447 305.716,203.009 290.542,317.352 26.174,364.017 29.216,398.75 353.506,398.75 353.506,306.237 326.696,310.97 	
		"/>
	<polygon points="104.704,122.262 137.299,122.262 117.398,205.67 183.909,221.909 201.938,313.488 
		236.28,306.727 213.931,193.21 159.523,179.927 181.632,87.262 91.678,87.262 36.792,134.687 59.675,161.17 	"/>
	<polygon points="146.113,236.92 112.008,229.056 107.884,246.939 43.536,230.286 34.767,264.169 
		133.914,289.829 	"/>
	<polygon points="191.849,136.14 236.602,146.37 294.451,114.41 277.525,83.774 231.374,109.272 
		199.648,102.02 	"/>
	<circle cx="188.415" cy="35.629" r="35.629"/>
</g>
</svg>
