<?xml version="1.0" encoding="UTF-8"?>
<!DOCTYPE svg PUBLIC "-//W3C//DTD SVG 1.1//EN" "http://www.w3.org/Graphics/SVG/1.1/DTD/svg11.dtd">
<svg version="1.1" xmlns="http://www.w3.org/2000/svg" xmlns:xlink="http://www.w3.org/1999/xlink" x="0" y="0" width="516.375" height="516.375" viewBox="0, 0, 516.375, 516.375">
  <g id="Ebene_1">
    <g>
      <path d="M487.688,310.781 L487.688,272.531 L449.438,272.531 L363.758,272.531 L325.125,310.781 L428.792,310.781 L345.789,393.784 L368.931,416.925 L449.438,336.418 L449.438,435.094 L487.688,396.461 z" fill="#000000" display="none"/>
      <path d="M124.312,377.719 L219.938,377.719 L219.938,282.094 L315.562,282.094 L315.562,176.906 L420.75,176.906 L420.75,81.281 L516.375,81.281 L516.375,43.031 L382.5,43.031 L382.5,138.656 L277.312,138.656 L277.312,243.844 L181.688,243.844 L181.688,339.469 L86.062,339.469 L86.062,435.094 L0,435.094 L0,473.344 L124.312,473.344 z" fill="#000000"/>
    </g>
  </g>
</svg>
