<?xml version="1.0" encoding="iso-8859-1"?>
<!-- Generator: Adobe Illustrator 19.0.0, SVG Export Plug-In . SVG Version: 6.00 Build 0)  -->
<svg version="1.1" id="Layer_1" xmlns="http://www.w3.org/2000/svg" xmlns:xlink="http://www.w3.org/1999/xlink" x="0px" y="0px"
	 viewBox="0 0 512 512" style="enable-background:new 0 0 512 512;" xml:space="preserve">
<g>
	<g>
		<path d="M128,268.8H17.067V123.733H0v153.6V320v68.267h17.067v-59.733h102.4v59.733h17.067V320v-8.533v-34.133
			C136.533,272.617,132.713,268.8,128,268.8z M119.467,311.467h-102.4v-25.6h102.4V311.467z"/>
	</g>
</g>
<g>
	<g>
		<path d="M494.933,123.733V268.8H384c-4.713,0-8.533,3.817-8.533,8.533v34.133V320v68.267h17.067v-59.733h102.4v59.733H512V320
			v-42.667v-153.6H494.933z M494.933,311.467h-102.4v-25.6h102.4V311.467z"/>
	</g>
</g>
<g>
	<g>
		<path d="M383.938,132.267H128.063c-18.854,0-34.196,15.308-34.196,34.133s15.342,34.133,34.196,34.133h119.404v98.6
			l-82.508,74.258c-3.504,3.15-3.788,8.55-0.633,12.05c3.15,3.508,8.55,3.783,12.05,0.633l71.092-63.979v66.171h17.067v-66.171
			l71.092,63.979c1.629,1.467,3.671,2.192,5.704,2.192c2.338,0,4.663-0.95,6.346-2.825c3.154-3.5,2.871-8.9-0.633-12.05
			l-82.508-74.258v-98.6h119.404c18.854,0,34.196-15.308,34.196-34.133S402.792,132.267,383.938,132.267z M383.938,183.467H264.533
			h-17.067H128.063c-9.446,0-17.129-7.658-17.129-17.067c0-9.408,7.683-17.067,17.129-17.067h255.875
			c9.446,0,17.129,7.658,17.129,17.067C401.067,175.808,393.383,183.467,383.938,183.467z"/>
	</g>
</g>
<g>
</g>
<g>
</g>
<g>
</g>
<g>
</g>
<g>
</g>
<g>
</g>
<g>
</g>
<g>
</g>
<g>
</g>
<g>
</g>
<g>
</g>
<g>
</g>
<g>
</g>
<g>
</g>
<g>
</g>
</svg>
