<?xml version="1.0" encoding="iso-8859-1"?>
<!-- Generator: Adobe Illustrator 19.0.0, SVG Export Plug-In . SVG Version: 6.00 Build 0)  -->
<svg version="1.1" id="Layer_1" xmlns="http://www.w3.org/2000/svg" xmlns:xlink="http://www.w3.org/1999/xlink" x="0px" y="0px"
	 viewBox="0 0 512 512" style="enable-background:new 0 0 512 512;" xml:space="preserve">
<g>
	<g>
		<path d="M162.263,367.214H38.427V210.095c0-5.104-4.138-9.242-9.242-9.242c-5.104,0-9.242,4.138-9.242,9.242v166.361
			c0,5.104,4.138,9.242,9.242,9.242h2.773v110.895c0,5.104,4.138,9.242,9.242,9.242s9.242-4.138,9.242-9.242v-69.317h90.562v69.317
			c0,5.104,4.138,9.242,9.242,9.242c5.104,0,9.242-4.138,9.242-9.242V385.699h2.773c5.104,0,9.242-4.138,9.242-9.242
			C171.504,371.352,167.367,367.214,162.263,367.214z M141.006,408.794H50.443V385.7h90.562V408.794z"/>
	</g>
</g>
<g>
	<g>
		<path d="M482.822,200.853c-5.104,0-9.242,4.138-9.242,9.242v157.119H349.732c-5.104,0-9.242,4.138-9.242,9.242
			c0,5.104,4.138,9.242,9.242,9.242h2.773v110.895c0,5.104,4.138,9.242,9.242,9.242c5.104,0,9.242-4.138,9.242-9.242v-69.317h90.575
			v69.317c0,5.104,4.138,9.242,9.242,9.242c5.104,0,9.242-4.138,9.242-9.242V385.699h2.773c5.104,0,9.242-4.138,9.242-9.242V210.095
			C492.064,204.991,487.927,200.853,482.822,200.853z M461.564,408.794H370.99V385.7h90.575V408.794z"/>
	</g>
</g>
<g>
	<g>
		<path d="M394.46,279.106H265.245V154.039c0-5.104-4.137-9.242-9.242-9.242c-5.104,0-9.242,4.138-9.242,9.242v125.067H117.54
			c-5.104,0-9.242,4.138-9.242,9.242c0,5.104,4.138,9.242,9.242,9.242h9.067v22.822c0,5.104,4.138,9.242,9.242,9.242h240.3
			c5.104,0,9.242-4.138,9.242-9.242V297.59h9.069c5.104,0,9.242-4.138,9.242-9.242C403.703,283.244,399.564,279.106,394.46,279.106z
			 M366.907,311.169H145.092v-13.58h221.815V311.169z"/>
	</g>
</g>
<g>
	<g>
		<path d="M298.345,487.354h-33.099V351.219c0-5.104-4.138-9.242-9.242-9.242c-5.104,0-9.242,4.138-9.242,9.242v136.134h-33.107
			c-5.104,0-9.242,4.138-9.242,9.242s4.138,9.242,9.242,9.242h84.69c5.104,0,9.242-4.138,9.242-9.242
			S303.449,487.354,298.345,487.354z"/>
	</g>
</g>
<g>
	<g>
		<path d="M508.595,116.06c-68.646-55.926-154.887-87.16-243.353-88.282V15.404c0-5.104-4.138-9.242-9.242-9.242
			c-5.104,0-9.242,4.138-9.242,9.242v12.375C158.292,28.901,72.051,60.136,3.405,116.062c-3.031,2.47-4.18,6.579-2.87,10.264
			c1.31,3.683,4.797,6.144,8.708,6.144h364.118c0.006,0,0.012,0.001,0.018,0.001s0.012-0.001,0.018-0.001h129.359
			c3.91,0,7.396-2.461,8.707-6.144C512.775,122.64,511.627,118.53,508.595,116.06z M36.8,113.984
			c45.029-31.497,96.555-52.701,150.479-62.156c-19.461,14.55-37.699,35.467-53.896,62.156H36.8z M155.263,113.984
			c29.102-43.846,63.751-67.774,98.686-67.774h4.102c34.935,0,69.582,23.928,98.686,67.774H155.263z M378.617,113.984
			c-16.197-26.689-34.436-47.607-53.896-62.156c53.924,9.455,105.451,30.66,150.479,62.156H378.617z"/>
	</g>
</g>
<g>
</g>
<g>
</g>
<g>
</g>
<g>
</g>
<g>
</g>
<g>
</g>
<g>
</g>
<g>
</g>
<g>
</g>
<g>
</g>
<g>
</g>
<g>
</g>
<g>
</g>
<g>
</g>
<g>
</g>
</svg>
