<?xml version="1.0" encoding="iso-8859-1"?>
<!-- Generator: Adobe Illustrator 18.0.0, SVG Export Plug-In . SVG Version: 6.00 Build 0)  -->
<!DOCTYPE svg PUBLIC "-//W3C//DTD SVG 1.1//EN" "http://www.w3.org/Graphics/SVG/1.1/DTD/svg11.dtd">
<svg version="1.1" id="Capa_1" xmlns="http://www.w3.org/2000/svg" xmlns:xlink="http://www.w3.org/1999/xlink" x="0px" y="0px"
	 viewBox="0 0 283.46 283.46" style="enable-background:new 0 0 283.46 283.46;" xml:space="preserve">
<path d="M200.133,157.32c-2.105-2.105-4.904-3.264-7.881-3.264c-2.977,0-5.776,1.159-7.881,3.264l-9.678,9.678l-14.194-14.194
	l43.496-43.494c7.016,3.017,14.634,4.613,22.498,4.613c0.001,0,0,0,0.001,0c15.248,0,29.576-5.948,40.341-16.746
	c14.694-14.74,20.177-36.316,14.308-56.309c-0.341-1.163-1.272-2.06-2.446-2.359c-1.174-0.3-2.42,0.044-3.276,0.903l-35.874,35.983
	c-2.153-0.873-7.577-3.85-17.615-13.858c-10.038-10.008-13.034-15.423-13.915-17.574l35.872-35.985
	c0.856-0.859,1.195-2.105,0.893-3.279c-0.303-1.174-1.202-2.102-2.367-2.44C237.244,0.76,231.886,0,226.489,0
	c-15.249,0-29.574,5.946-40.337,16.744c-16.893,16.946-20.87,41.948-11.981,62.704l-43.515,43.514L86.118,78.424
	c-0.039-0.076-0.066-0.154-0.109-0.229L65.651,43.294c-0.352-0.603-0.83-1.12-1.403-1.518L29.906,17.948
	c-1.899-1.318-4.467-1.086-6.1,0.547l-15.3,15.3c-1.634,1.633-1.864,4.202-0.547,6.1l23.828,34.342
	c0.398,0.573,0.915,1.052,1.518,1.403l34.902,20.358c0.077,0.045,0.158,0.078,0.237,0.118l44.528,44.528l-33.508,33.508
	c-7.016-3.017-14.633-4.613-22.497-4.613c-15.25,0-29.577,5.947-40.342,16.746C1.931,201.025-3.551,222.602,2.319,242.592
	c0.341,1.163,1.271,2.06,2.446,2.359c1.174,0.298,2.42-0.044,3.276-0.903l35.874-35.984c2.153,0.874,7.576,3.853,17.613,13.858
	c10.04,10.009,13.036,15.423,13.916,17.574l-35.872,35.985c-0.856,0.859-1.195,2.105-0.893,3.279
	c0.303,1.174,1.202,2.102,2.367,2.439c5.17,1.5,10.528,2.261,15.926,2.261c15.247,0,29.573-5.947,40.336-16.745
	c10.742-10.776,16.645-25.089,16.622-40.305c-0.012-7.841-1.609-15.433-4.617-22.424l33.502-33.501l14.194,14.194l-9.677,9.677
	c-2.105,2.106-3.265,4.905-3.265,7.882c0,2.978,1.159,5.776,3.264,7.881l68.364,68.363c2.105,2.105,4.903,3.264,7.88,3.264
	c2.977,0,5.776-1.159,7.882-3.264l37.036-37.037c2.106-2.105,3.266-4.904,3.266-7.882c0-2.977-1.159-5.776-3.264-7.881
	L200.133,157.32z M224.331,254.164c-2.437,2.438-6.386,2.438-8.821,0l-43.859-43.858c-2.436-2.435-2.436-6.384,0-8.821
	c2.436-2.436,6.385-2.436,8.821,0.002l43.858,43.857C226.766,247.779,226.767,251.729,224.331,254.164z M244.177,234.318
	c-2.435,2.436-6.386,2.436-8.821,0l-43.857-43.859c-2.436-2.435-2.436-6.385-0.001-8.82c2.436-2.436,6.386-2.436,8.821,0
	l43.858,43.859C246.612,227.934,246.612,231.883,244.177,234.318z"/>
<g>
</g>
<g>
</g>
<g>
</g>
<g>
</g>
<g>
</g>
<g>
</g>
<g>
</g>
<g>
</g>
<g>
</g>
<g>
</g>
<g>
</g>
<g>
</g>
<g>
</g>
<g>
</g>
<g>
</g>
</svg>
