<svg xmlns="http://www.w3.org/2000/svg" version="1.1" id="svg" x="0" y="0" viewBox="0 0 25.81 25.81" xml:space="preserve">
<g>
  <path d="M12.91 1.11c4.79 0 8.69 3.9 8.69 8.7 0 4.8-3.9 8.7-8.7 8.7 -4.8 0-8.7-3.9-8.7-8.7 0-4.8 3.9-8.7 8.7-8.7L12.91 1.11M12.91 0h0c0 0 0 0 0 0C7.49 0 3.09 4.39 3.09 9.81c0 5.42 4.4 9.81 9.81 9.81 5.42 0 9.81-4.4 9.81-9.81C22.72 4.39 18.32 0 12.91 0L12.91 0z"/>
  <path d="M13.91 7.88c0.88-3.25-0.98-5.33-3.47-5.09 -1.18 0.12-2.35 1.62-1.63 2.99 0.68 1.28 2.1 1.17 2.54 2.63C11.75 7.85 12.55 7.22 13.91 7.88z"/>
  <path d="M10.73 9.91c-3.25 0.87-4.13 3.51-2.67 5.55 0.69 0.96 2.58 1.23 3.4-0.08 0.77-1.23-0.04-2.4 1.01-3.51C11.79 11.8 10.84 11.41 10.73 9.91z"/>
  <path d="M14.08 11.65c2.38 2.38 5.1 1.82 6.15-0.46 0.49-1.07-0.22-2.85-1.77-2.91 -1.45-0.05-2.06 1.24-3.54 0.88C15.19 9.79 15.33 10.8 14.08 11.65z"/>
  <circle cx="12.91" cy="9.81" r="1.3"/>
  <path d="M14.91 20.81c0 0-0.38 0.31-2 0.31s-2-0.31-2-0.31c0 2-4 2.34-4 4v1h12v-1C18.91 23.16 14.91 22.81 14.91 20.81z"/>
</g>
</svg>