<svg xmlns="http://www.w3.org/2000/svg" version="1.1" id="svg" x="0" y="0" viewBox="0 0 15.91 15.91" xml:space="preserve">
  <path d="M15.79 13.98l-6.94-13C8.68 0.66 8.34 0.45 7.97 0.45H7.97c-0.37 0-0.71 0.2-0.88 0.53l-6.97 13c-0.17 0.31-0.16 0.69 0.02 0.99C0.32 15.27 0.65 15.45 1 15.45h13.91c0.35 0 0.68-0.18 0.86-0.49C15.95 14.67 15.95 14.29 15.79 13.98zM7.97 13.45c-0.55 0-1-0.45-1-1s0.45-1 1-1c0.55 0 1 0.45 1 1S8.52 13.45 7.97 13.45zM8.97 9.47c0 0.55-0.45 1-1 1 -0.55 0-1-0.45-1-1v-4c0-0.55 0.45-1 1-1 0.55 0 1 0.45 1 1V9.47z"/>
</svg>