<svg xmlns="http://www.w3.org/2000/svg" version="1.1" id="svg" x="0" y="0" width="27.08" height="27.08" viewBox="0 0 27.08 27.08" xml:space="preserve">
<g fill="#fff">
  <path d="M21.88 0H5.21C3.48 0 2.08 1.4 2.08 3.13v20.83c0 1.73 1.4 3.13 3.13 3.13h16.67c1.73 0 3.13-1.4 3.13-3.12V3.13C25 1.4 23.6 0 21.88 0zM16.15 1.96c0.93 0 1.69 0.76 1.69 1.69 0 0.93-0.76 1.69-1.69 1.69 -0.93 0-1.69-0.76-1.69-1.69C14.46 2.71 15.21 1.96 16.15 1.96zM13.54 21.94c-4.06 0-7.35-3.29-7.35-7.35 0-4.06 3.29-7.35 7.35-7.35 4.06 0 7.35 3.29 7.35 7.35C20.9 18.65 17.6 21.94 13.54 21.94zM21.35 5.33c-0.93 0-1.69-0.76-1.69-1.69 0-0.93 0.76-1.69 1.69-1.69s1.69 0.76 1.69 1.69C23.04 4.58 22.29 5.33 21.35 5.33z"/>
  <path d="M13.54 8.53c-3.34 0-6.05 2.71-6.05 6.06 0 3.34 2.71 6.05 6.06 6.05 3.34 0 6.06-2.71 6.06-6.05C19.6 11.24 16.89 8.53 13.54 8.53zM13.54 9.57c2.61 0 4.74 2.01 4.97 4.56 -1.86-0.99-2.75 0.41-4.97 0.41 -2.23 0-2.88-1.52-4.97-0.41C8.81 11.59 10.93 9.57 13.54 9.57z"/>
</g>
</svg>