<svg xmlns="http://www.w3.org/2000/svg" version="1.1" id="svg" x="0" y="0" width="583.31" height="583.31" viewBox="0 0 583.31 583.31" xml:space="preserve">
  <path d="M125.25 545.51c25.69-5.1 43.28-28.3 53.29-52.26h-13.59c-5.79 0-11.53-0.11-17.2-0.37 -5.89 12.05-14.83 22.47-28.18 24.56 -4.12-3.57-9.42-5.79-15.3-5.79 -12.98 0-23.49 10.52-23.49 23.5s10.52 23.5 23.5 23.5C113.51 558.63 121.42 553.25 125.25 545.51z"/>
  <path d="M491.69 558.63c12.98 0 23.5-10.52 23.5-23.49s-10.52-23.49-23.49-23.49c-5.18 0-9.94 1.73-13.82 4.58 -11.4-3.8-19.58-13.81-25.27-24.96 -8.7 1.51-16.44 1.99-22.24 1.99h-1.54 -0.89 -7.79c8.2 22.52 23.39 44.39 49.98 51.16C473.71 552.77 482.01 558.63 491.69 558.63z"/>
  <path d="M453.22 110.15l-48.02-48.03c-8.82 2.25-35.85 19.68-43.93 28.11l63.91 63.91C433.55 146.12 450.8 119.35 453.22 110.15z"/>
  <path d="M361.98 128.13c1.23 0 2.45-0.47 3.39-1.4l6.76-6.76c0.43-0.43 0.73-0.93 0.96-1.44 0.78-1.76 0.48-3.87-0.96-5.32 -1.43-1.44-3.56-1.74-5.32-0.96 -0.52 0.23-1.01 0.54-1.44 0.96l-6.77 6.75c-1.86 1.87-1.86 4.9 0 6.76C359.53 127.66 360.76 128.13 361.98 128.13z"/>
  <path d="M341.69 148.42c1.22 0 2.45-0.47 3.39-1.4l6.76-6.76c1.86-1.86 1.86-4.9 0-6.76s-4.9-1.86-6.76 0l-6.76 6.76c-1.86 1.87-1.86 4.9 0 6.76C339.25 147.96 340.46 148.42 341.69 148.42z"/>
  <path d="M321.4 168.71c1.22 0 2.45-0.47 3.39-1.4l6.76-6.76c1.87-1.86 1.87-4.9 0-6.76 -1.86-1.86-4.9-1.86-6.76 0l-6.76 6.76c-1.86 1.86-1.86 4.9 0 6.76C318.96 168.24 320.18 168.71 321.4 168.71z"/>
  <path d="M386.59 132.04c0.78-1.76 0.49-3.88-0.96-5.32 -1.44-1.44-3.56-1.74-5.32-0.96 -0.52 0.23-1.01 0.54-1.44 0.96l-6.76 6.77c-1.86 1.87-1.86 4.9 0 6.76 0.94 0.94 2.16 1.4 3.39 1.4 1.23 0 2.45-0.47 3.39-1.4l6.76-6.77C386.07 133.07 386.36 132.57 386.59 132.04z"/>
  <path d="M365.35 147.02c-1.86-1.86-4.9-1.86-6.76 0l-6.76 6.76c-1.86 1.87-1.86 4.9 0 6.76 0.94 0.94 2.16 1.4 3.39 1.4 1.23 0 2.45-0.47 3.39-1.4l6.76-6.76C367.22 151.92 367.22 148.88 365.35 147.02z"/>
  <path d="M345.07 167.3c-1.86-1.86-4.9-1.86-6.76 0l-6.76 6.77c-1.86 1.87-1.86 4.9 0 6.76 0.94 0.94 2.16 1.4 3.39 1.4 1.22 0 2.45-0.47 3.39-1.4l6.76-6.77C346.94 172.2 346.94 169.17 345.07 167.3z"/>
  <path d="M389.02 155.18c1.23 0 2.45-0.47 3.39-1.4l6.76-6.76c0.43-0.43 0.73-0.93 0.96-1.44 0.78-1.76 0.48-3.87-0.96-5.32 -1.43-1.44-3.56-1.74-5.32-0.96 -0.52 0.23-1.02 0.54-1.44 0.96l-6.76 6.76c-1.86 1.87-1.86 4.9 0 6.76C386.57 154.72 387.8 155.18 389.02 155.18z"/>
  <path d="M368.74 175.47c1.23 0 2.45-0.47 3.39-1.4l6.76-6.76c1.86-1.86 1.86-4.9 0-6.76 -1.86-1.86-4.9-1.86-6.76 0l-6.76 6.76c-1.86 1.87-1.86 4.9 0 6.76C366.29 175 367.52 175.47 368.74 175.47z"/>
  <path d="M348.45 195.75c1.22 0 2.45-0.47 3.39-1.4l6.76-6.76c1.86-1.86 1.86-4.9 0-6.76s-4.9-1.86-6.76 0l-6.76 6.76c-1.86 1.87-1.86 4.9 0 6.76C346.01 195.28 347.23 195.75 348.45 195.75z"/>
  <path d="M564.19 254.19h-14.34H535.5V34.25c0-5.28-4.27-9.56-9.56-9.56h-41.54c-2.4 0-4.71 0.9-6.48 2.52l-34.37 31.64c-7.81-1.98-16.73 0.69-22.22 2.93l32.84 32.85c2.37-6.12 4.57-14.48 2.71-22.03l31.27-28.78h28.24v210.38H33.47 19.13C8.56 254.19 0 262.74 0 273.31v19.13c0 10.57 8.56 19.13 19.13 19.13h2.13 4.21 5.56c1.45 7.4 3.33 15.91 5.7 25.72l13.39 64.15c18.73 69.33 56.67 80.58 101.62 82.04 4.35 0.13 8.75 0.22 13.23 0.22h17.22l234.85 0.01c-0.01-0.05-0.02-0.09-0.04-0.13 0.01 0.04 0.02 0.09 0.04 0.12h13.33c5.42 0 11.64-0.34 18.3-1.33l0 0c29.41-4.33 67.6-21.1 85.44-75.88l21.75-94.92h5.66 2.68c0.52 0 0.99-0.11 1.5-0.15 9.85-0.77 17.62-8.92 17.62-18.97v-19.12C583.31 262.74 574.75 254.19 564.19 254.19zM411.76 454.01L411.76 454.01c0 0.06 0.01 0.13 0.02 0.18C411.77 454.14 411.76 454.07 411.76 454.01z"/>
</svg>