<svg xmlns="http://www.w3.org/2000/svg" version="1.1" id="svg" x="0" y="0" viewBox="0 0 482.32 482.32" xml:space="preserve">
  <polygon points="328.65 0 293.66 0 293.66 251.11 4.9 251.11 4.9 280 328.65 280 "/>
  <path d="M346.15 61.26v209.99l37.19 0.01v42.49c0 8.68-7.06 15.74-15.74 15.74h-39.72c0.47-1.34 0.69-2.08 0.69-2.08 3.35-12.18 5.35-25.01 5.35-38.66H4.9c0 146.01 112.35 193.58 112.35 193.58h98.47v-36.62l9.43-18.1 0.16 0c2.96-0.88 5.98-1.66 8.83-2.75 39.61-15.08 63.93-42.12 77.95-63.89h55.52c26.04 0 47.22-21.18 47.22-47.22v-42.48l36.37 0.01 26.24-210.01L346.15 61.26z"/>
  <rect x="346.15" y="26.25" width="131.25" height="26.24"/>
</svg>