<svg id="Capa_1" enable-background="new 0 0 512 512" height="512" viewBox="0 0 512 512" width="512" xmlns="http://www.w3.org/2000/svg"><g fill="#fff"><path d="m411.5 211.667h-215v-74.667h15c8.284 0 15-6.716 15-15s-6.716-15-15-15h-15v-62c0-24.813-20.187-45-45-45h-91c-8.284 0-15 6.716-15 15v482c0 8.284 6.716 15 15 15h241c10.226 0 17.466-10.034 14.23-19.743l-21.226-63.676c-1.08-3.241 1.32-6.581 4.743-6.581h62.253c57.897 0 105-47.103 105-105 0-10.352 0-40.028 0-50.333 0-30.327-24.673-55-55-55zm0 30c13.785 0 25 11.215 25 25v5.333h-240v-30.333zm-336-136.667h91v167h-91zm76-75c8.271 0 15 6.729 15 15v30h-91v-45zm285 287c0 41.355-33.645 75-75 75h-62.252c-23.851 0-40.748 23.428-33.204 46.067l14.644 43.933h-205.188v-180h361z"/></g></svg>