<?xml version="1.0" encoding="iso-8859-1"?>
<!-- Generator: Adobe Illustrator 19.0.0, SVG Export Plug-In . SVG Version: 6.00 Build 0)  -->
<svg version="1.1" id="Layer_1" xmlns="http://www.w3.org/2000/svg" xmlns:xlink="http://www.w3.org/1999/xlink" x="0px" y="0px"
	 viewBox="0 0 512 512" style="enable-background:new 0 0 512 512;" xml:space="preserve">
	<g fill="#fff">
		<path d="M467,212H165c-5.259,0-10.305,0.915-15,2.58V90h15c24.813,0,45-20.187,45-45S189.813,0,165,0H45C20.187,0,0,20.187,0,45
			v30v182c0,11.792,1.111,22.884,3.299,32.978c0.001,0.004,0.001,0.008,0.002,0.012c0.003,0.017,0.007,0.033,0.011,0.05
			c0.012,0.054,0.021,0.11,0.033,0.164c0.003,0.014,0.008,0.027,0.011,0.041c7.734,37.714,28.669,71.824,59.016,96.102
			c16.255,12.908,22.822,32.772,16.732,50.606c-0.015,0.042-0.028,0.084-0.043,0.127l-18.3,55.2C57.549,501.973,64.774,512,75,512
			h302c8.284,0,15-6.716,15-15v-93.098c41.392-21.053,71.926-58.444,84.064-102.819C496.548,296.877,512,278.709,512,257
			C512,232.187,491.813,212,467,212z M30,45c0-8.271,6.729-15,15-15h120c8.271,0,15,6.729,15,15s-6.729,15-15,15
			c-2.961,0-132.291,0-135,0V45z M30,90h90v182H30.767C29.71,262.118,30,270.986,30,90z M362,482H95.775l11.742-35.419
			c10.352-30.413-0.939-63.438-26.447-83.694C61.101,346.911,46.104,325.726,37.699,302c47.719,0,94.958,0,118.526,0
			c9.112,31.911,28.258,60.794,54.777,82.3C240.979,408.611,278.624,422,317,422c15.43,0,30.498-2.108,45-6.252V482z M317,392
			c-58.77,0-110.452-36.9-129.314-90h256.69C425.648,355.43,374.39,392,317,392z M467,272h-3.033c-0.041,0-0.082,0-0.123,0
			c-23.96,0-299.853,0-313.844,0v-15c0-8.271,6.729-15,15-15h302c8.271,0,15,6.729,15,15S475.271,272,467,272z"/>
	</g>
</svg>
