<svg id="Capa_1" enable-background="new 0 0 512 512" height="512" viewBox="0 0 512 512" width="512" xmlns="http://www.w3.org/2000/svg"><g fill="#fff"><path d="m444.58 0h-377.16v173.571h56.32c-.001.307-.008.613-.008.92 0 17.939 2.032 35.476 6.032 52.326-19.632 8.926-33.324 28.71-33.324 51.644v43.816h25.198c1.529 43.578 28.151 80.883 65.833 97.867l-17.676 61.868h-41.596v29.988h255.602v-29.989h-41.596l-17.676-61.868c37.682-16.984 64.304-54.289 65.833-97.867h25.198v-43.816c0-22.934-13.692-42.718-33.324-51.644 4.001-16.85 6.032-34.387 6.032-52.326 0-.307-.007-.613-.008-.92h56.32zm-91.964 221.748h-36.702c4.64-14.824 7.125-30.999 7.125-47.259 0-58.105-31.326-109.074-67.039-109.074s-67.039 50.969-67.039 109.074c0 16.261 2.484 32.435 7.125 47.259h-36.702c-3.761-15.145-5.663-30.993-5.663-47.258 0-39.378 11.162-76.227 31.43-103.759 19.252-26.153 44.413-40.555 70.849-40.555s51.597 14.403 70.849 40.556c20.268 27.532 31.43 64.381 31.43 103.759 0 16.265-1.901 32.112-5.663 47.257zm-133.666-47.259c0-21.665 5.433-43.268 14.906-59.269 8.06-13.614 17.129-19.815 22.144-19.815s14.085 6.201 22.144 19.815c9.473 16.001 14.906 37.604 14.906 59.269 0 16.709-3.147 33.165-8.958 47.259h-56.185c-5.81-14.094-8.957-30.55-8.957-47.259zm-121.541-30.908v-113.592h84.323c-7.405 6.627-14.352 14.296-20.733 22.963-18.53 25.171-30.633 56.598-35.207 90.629zm213.607 338.43h-110.032l15.243-53.357c5.531.847 11.195 1.286 16.959 1.286h45.628c5.764 0 11.427-.439 16.959-1.286zm-32.202-82.06h-45.628c-43.688 0-79.47-34.491-81.543-77.675h208.713c-2.072 43.184-37.854 77.675-81.542 77.675zm106.757-107.664h-259.142v-13.827c0-14.735 11.988-26.723 26.723-26.723h56.133 93.431 56.133c14.735 0 26.723 11.988 26.723 26.723v13.827zm29.02-148.706h-28.383c-4.575-34.031-16.677-65.458-35.207-90.629-6.38-8.667-13.327-16.337-20.733-22.963h84.323z"/></g></svg>