<?xml version="1.0" encoding="iso-8859-1"?>
<!-- Generator: Adobe Illustrator 18.0.0, SVG Export Plug-In . SVG Version: 6.00 Build 0)  -->
<!DOCTYPE svg PUBLIC "-//W3C//DTD SVG 1.1//EN" "http://www.w3.org/Graphics/SVG/1.1/DTD/svg11.dtd">
<svg version="1.1" id="Capa_1" xmlns="http://www.w3.org/2000/svg" xmlns:xlink="http://www.w3.org/1999/xlink" x="0px" y="0px"
	 viewBox="0 0 311.091 311.091" style="enable-background:new 0 0 311.091 311.091;" xml:space="preserve">
<g>
	<path d="M117.49,62.227v-0.836L98.801,42.435c-1.113-1.128-2.631-1.764-4.216-1.764s-3.103,0.636-4.216,1.764l-18.69,18.956v0.836
		c7.24-2.271,14.931-3.509,22.912-3.509C102.565,58.719,110.256,59.951,117.49,62.227z"/>
	<path d="M26.791,99.861c7.245-13.826,18.575-25.152,32.396-32.401l-0.634-0.635L31.933,66.64c-1.584-0.011-3.107,0.613-4.228,1.733
		c-1.12,1.12-1.745,2.643-1.734,4.227l0.181,26.624L26.791,99.861z"/>
	<path d="M20.723,112.348L1.765,131.033C0.636,132.145,0,133.664,0,135.249c0,1.585,0.635,3.104,1.764,4.217l18.959,18.692h0.832
		c-2.277-7.233-3.508-14.931-3.508-22.904c0-7.976,1.231-15.672,3.508-22.906H20.723z"/>
	<path d="M181.121,124.825l-12.659-12.478h-0.842c1.841,5.861,2.91,12.041,3.281,18.409
		C173.902,128.414,177.345,126.422,181.121,124.825z"/>
	<path d="M162.383,99.851l0.634-0.633l0.186-26.626c0.011-1.585-0.613-3.107-1.734-4.229c-1.121-1.12-2.643-1.744-4.228-1.733
		l-26.621,0.187l-0.64,0.638C143.803,74.699,155.134,86.031,162.383,99.851z"/>
	<path d="M26.787,170.65l-0.634,0.633l-0.186,26.622c-0.011,1.585,0.613,3.107,1.734,4.228c1.121,1.121,2.643,1.745,4.228,1.734
		l26.626-0.186l0.629-0.629C45.362,195.801,34.031,184.47,26.787,170.65z"/>
	<path d="M94.59,74.294c-33.669,0-60.97,27.296-60.97,60.96c0,27.605,18.362,50.9,43.535,58.404
		c3.843-1.882,8.055-3.14,12.512-3.549c2.916-17.142,17.871-30.231,35.828-30.231h10.631c2.764-9.526,9.983-17.146,19.22-20.544
		c0.091-1.358,0.208-2.701,0.208-4.08C155.554,101.59,128.253,74.294,94.59,74.294z"/>
	<path d="M290.325,205.525h-8.786c1.419-2.809,2.297-5.941,2.297-9.307c0-11.469-9.298-20.767-20.766-20.767h-11.097
		c1.044-2.089,1.688-4.421,1.688-6.916c0-8.599-6.971-15.574-15.575-15.574h-5.857c-1.683-9.48-14.023-16.872-29.186-16.872
		c-15.165,0-27.505,7.393-29.189,16.872h-7.801c-8.603,0-15.574,6.976-15.574,15.574c0,2.495,0.644,4.827,1.688,6.916h-26.673
		c-11.468,0-20.765,9.298-20.765,20.767c0,3.365,0.877,6.498,2.296,9.307H93.049c-11.468,0-20.766,9.298-20.766,20.766
		c0,11.469,9.298,20.767,20.766,20.767h27.793c-1.338,2.302-2.16,4.938-2.16,7.787c0,8.6,6.971,15.574,15.574,15.574h72.032
		c8.604,0,15.575-6.975,15.575-15.574c0-2.85-0.822-5.485-2.16-7.787h70.622c11.468,0,20.766-9.298,20.766-20.767
		C311.091,214.823,301.793,205.525,290.325,205.525z"/>
</g>
<g>
</g>
<g>
</g>
<g>
</g>
<g>
</g>
<g>
</g>
<g>
</g>
<g>
</g>
<g>
</g>
<g>
</g>
<g>
</g>
<g>
</g>
<g>
</g>
<g>
</g>
<g>
</g>
<g>
</g>
</svg>
