<?xml version="1.0" encoding="iso-8859-1"?>
<!-- Generator: Adobe Illustrator 18.1.1, SVG Export Plug-In . SVG Version: 6.00 Build 0)  -->
<svg version="1.1" id="Capa_1" xmlns="http://www.w3.org/2000/svg" xmlns:xlink="http://www.w3.org/1999/xlink" x="0px" y="0px"
	 viewBox="0 0 484.535 484.535" style="enable-background:new 0 0 484.535 484.535;" xml:space="preserve">
	<g>
		<path d="M170.267,446.269c4.664,4.665,4.33,9.331-1,13.998l-22,21c-4.667,4.667-9.333,4.334-14-1
			l-130-138.998c-4.667-5.334-4.333-10.334,1-15l22-20.999c4.667-4.664,9.333-4.332,14,0.999L170.267,446.269z"/>
		<path d="M335.267,183.268c4.668,4.668,4.668,9.334,0,14l-139.999,131c-5.333,4.666-10.333,4.666-15,0
			l-33-36c-4.667-5.334-4.667-10.334,0-15l140-131c5.332-4.667,10.332-4.333,15,1L335.267,183.268z"/>
		<path d="M218.267,401.269c4.663,4.666,4.33,9.332-1,14l-22,21c-5.333,4.666-10.333,4.666-15,0l-129-139.999
			c-4.667-4.668-4.667-9.334,0-14l23-21c4.667-4.668,9.333-4.668,14,0L218.267,401.269z"/>
		<path d="M433.269,188.268c4.666,4.669,4.666,9.335,0,14l-23,21c-4.67,4.667-9.338,4.667-14,0l-128.999-140
			c-4.668-4.667-4.668-9.333,0-14l22-21c5.332-4.667,10.332-4.667,15,0L433.269,188.268z"/>
		<path d="M481.269,143.268c4.666,5.333,4.332,10.333-1,15l-22,21c-4.67,4.658-9.338,4.325-14-1l-130-139
			c-4.657-5.333-4.323-10.333,1-15l22-21c4.666-4.667,9.332-4.333,14,1L481.269,143.268z"/>
	</g>
</svg>
