<?xml version="1.0" encoding="iso-8859-1"?>
<!-- Generator: Adobe Illustrator 19.0.0, SVG Export Plug-In . SVG Version: 6.00 Build 0)  -->
<svg version="1.1" id="Layer_1" xmlns="http://www.w3.org/2000/svg" xmlns:xlink="http://www.w3.org/1999/xlink" x="0px" y="0px"
	 viewBox="0 0 511.999 511.999" style="enable-background:new 0 0 511.999 511.999;" xml:space="preserve">
<g>
	<g>
		<path d="M510.432,318.615c-3.895-8.351-13.82-11.964-22.169-8.069c-1.747,0.815-197.877,92.273-204.292,95.264
			c-10.573-10.747-25.561-16.196-40.566-14.745L105.541,97.725C94.257,73.527,70.668,58.043,43.98,57.314l-26.843-0.733
			C7.9,56.307,0.258,63.591,0.006,72.801s7.011,16.88,16.22,17.13l26.843,0.733c13.975,0.383,26.327,8.49,32.257,21.206
			l137.841,293.292c-14.43,14.165-19.616,36.778-10.256,56.852c11.64,24.963,41.331,35.945,66.506,24.206
			c20.111-9.378,30.647-30.07,28.682-50.186l154.337-71.969l11.038,22.075c4.126,8.252,14.154,11.576,22.381,7.46
			c8.241-4.12,11.58-14.14,7.46-22.38l-10.631-21.26l19.679-9.176C510.713,336.89,514.325,326.965,510.432,318.615z
			 M255.316,455.981c-8.355,3.896-18.271,0.29-22.168-8.067c-3.897-8.357-0.289-18.272,8.068-22.17
			c8.34-3.887,18.283-0.265,22.169,8.068C267.281,442.169,263.674,452.083,255.316,455.981z"/>
	</g>
</g>
<g>
	<g>
		<path d="M446.847,274.639l-56.399-120.948c-3.892-8.351-13.819-11.965-22.169-8.069l-15.119,7.05l-35.249-75.592
			c-3.893-8.351-13.82-11.964-22.169-8.069l-15.118,7.05l-21.15-45.355c-3.893-8.351-13.82-11.965-22.169-8.069l-90.712,42.299
			c-8.344,3.891-11.962,13.819-8.068,22.169c3.978,8.53,124.112,266.159,126.899,272.136c3.895,8.352,13.819,11.963,22.169,8.069
			l151.186-70.5C447.122,292.917,450.74,282.989,446.847,274.639z M175.811,88.122l60.475-28.201l14.099,30.237
			c-6.357,2.964-52.253,24.366-60.475,28.2L175.811,88.122z M204.012,148.596c11.204-5.225,79.194-36.93,90.711-42.3l28.2,60.474
			l-90.711,42.299L204.012,148.596z M288.61,330.02l-42.299-90.712c4.412-2.057,116.187-54.18,120.949-56.399l42.3,90.712
			L288.61,330.02z"/>
	</g>
</g>
<g>
</g>
<g>
</g>
<g>
</g>
<g>
</g>
<g>
</g>
<g>
</g>
<g>
</g>
<g>
</g>
<g>
</g>
<g>
</g>
<g>
</g>
<g>
</g>
<g>
</g>
<g>
</g>
<g>
</g>
</svg>
