<?xml version="1.0" encoding="iso-8859-1"?>
<!-- Generator: Adobe Illustrator 19.0.0, SVG Export Plug-In . SVG Version: 6.00 Build 0)  -->
<svg version="1.1" id="Capa_1" xmlns="http://www.w3.org/2000/svg" xmlns:xlink="http://www.w3.org/1999/xlink" x="0px" y="0px"
	 viewBox="0 0 60 60" style="enable-background:new 0 0 60 60;" xml:space="preserve">
<path d="M56.073,12.001L19.567,7.067C19.384,7.023,19.194,7,19,7c-0.969,0-1.797,0.581-2.49,1.55L6,16.057V9.899
	C8.279,9.434,10,7.414,10,5c0-2.757-2.243-5-5-5S0,2.243,0,5c0,2.414,1.721,4.434,4,4.899V48H2v6H0v6h10v-6H8v-6H6V20.414
	l9.797,9.797C16.603,31.916,17.671,33,19,33c0.194,0,0.384-0.023,0.567-0.067l36.506-4.934C57.574,27.965,60,26.848,60,20
	S57.574,12.035,56.073,12.001z M8,58H2v-2h6V58z M4,54v-4h2v4H4z M50,20c0,2.511-0.283,4.924-0.781,6.915l-4.063,0.548
	C45.701,25.309,46,22.726,46,20c0-2.723-0.298-5.304-0.843-7.456l4.063,0.549C49.718,15.083,50,17.492,50,20z M44,20
	c0,2.871-0.364,5.649-0.999,7.753l-4.08,0.55C39.611,26.019,40,23.101,40,20c0-3.098-0.388-6.015-1.077-8.299l4.08,0.551
	C43.637,14.356,44,17.131,44,20z M21.978,21.265c-0.005,0.137-0.014,0.265-0.02,0.399c-0.012,0.268-0.024,0.536-0.042,0.793
	c-0.011,0.153-0.025,0.298-0.038,0.447c-0.019,0.226-0.037,0.454-0.06,0.671c-0.016,0.155-0.036,0.301-0.055,0.452
	c-0.024,0.199-0.048,0.399-0.075,0.59c-0.022,0.15-0.046,0.291-0.069,0.436c-0.029,0.18-0.058,0.361-0.09,0.533
	c-0.026,0.14-0.053,0.272-0.08,0.407c-0.033,0.164-0.067,0.328-0.102,0.484c-0.029,0.13-0.06,0.254-0.091,0.379
	c-0.036,0.148-0.073,0.294-0.111,0.435c-0.032,0.119-0.066,0.233-0.099,0.347c-0.039,0.133-0.079,0.263-0.119,0.389
	c-0.035,0.107-0.07,0.211-0.105,0.312c-0.041,0.118-0.083,0.234-0.125,0.345c-0.036,0.094-0.073,0.186-0.109,0.275
	c-0.043,0.104-0.086,0.205-0.13,0.301c-0.037,0.082-0.074,0.163-0.111,0.239c-0.044,0.09-0.088,0.175-0.132,0.257
	c-0.037,0.069-0.074,0.137-0.111,0.201c-0.045,0.077-0.089,0.147-0.134,0.215c-0.036,0.055-0.072,0.111-0.107,0.16
	c-0.045,0.063-0.089,0.118-0.134,0.172c-0.034,0.042-0.068,0.085-0.102,0.121c-0.045,0.049-0.089,0.088-0.132,0.127
	c-0.031,0.028-0.063,0.059-0.094,0.083c-0.032,0.024-0.063,0.039-0.094,0.058l-1.859-1.859C16.679,27.212,16,24.165,16,20
	c0-5.033,0.99-8.439,1.931-10.008l1.298-0.927c0.014,0.006,0.027,0.015,0.041,0.023c0.042,0.023,0.085,0.046,0.129,0.079
	c0.031,0.023,0.062,0.054,0.094,0.083c0.044,0.039,0.087,0.078,0.132,0.127c0.033,0.036,0.068,0.08,0.102,0.121
	c0.044,0.054,0.089,0.109,0.134,0.172c0.036,0.05,0.072,0.105,0.107,0.16c0.044,0.068,0.089,0.138,0.134,0.215
	c0.037,0.063,0.074,0.132,0.111,0.201c0.044,0.082,0.088,0.167,0.132,0.257c0.037,0.076,0.074,0.157,0.111,0.239
	c0.044,0.096,0.087,0.197,0.13,0.301c0.037,0.089,0.073,0.181,0.109,0.275c0.042,0.111,0.084,0.226,0.125,0.345
	c0.036,0.102,0.071,0.205,0.105,0.312c0.041,0.125,0.08,0.256,0.119,0.389c0.034,0.113,0.067,0.228,0.099,0.347
	c0.038,0.14,0.075,0.287,0.111,0.435c0.031,0.125,0.062,0.249,0.091,0.379c0.035,0.156,0.069,0.32,0.102,0.484
	c0.027,0.134,0.055,0.267,0.08,0.407c0.032,0.172,0.061,0.353,0.09,0.533c0.023,0.145,0.047,0.286,0.069,0.436
	c0.027,0.191,0.051,0.391,0.075,0.59c0.018,0.15,0.038,0.297,0.055,0.452c0.023,0.217,0.041,0.445,0.06,0.671
	c0.013,0.149,0.027,0.294,0.038,0.447c0.018,0.257,0.03,0.526,0.042,0.793c0.006,0.134,0.015,0.262,0.02,0.399
	C21.992,19.145,22,19.566,22,20S21.992,20.855,21.978,21.265z M2,5c0-1.654,1.346-3,3-3s3,1.346,3,3S6.654,8,5,8S2,6.654,2,5z
	 M6.542,18.127l8.409-6.006C14.322,14.408,14,17.21,14,20c0,2.116,0.188,4.237,0.551,6.137L6.542,18.127z M22.066,30.501
	c0.133-0.26,0.26-0.538,0.379-0.83c0.044-0.106,0.084-0.219,0.125-0.329c0.087-0.23,0.171-0.466,0.251-0.712
	c0.041-0.126,0.08-0.253,0.119-0.382c0.077-0.259,0.149-0.526,0.218-0.799c0.03-0.119,0.061-0.234,0.09-0.356
	c0.093-0.396,0.179-0.802,0.254-1.22c0.001-0.004,0.001-0.008,0.002-0.011c0.075-0.416,0.139-0.843,0.197-1.276
	c0.018-0.135,0.033-0.273,0.049-0.409c0.037-0.31,0.071-0.622,0.1-0.938c0.014-0.156,0.027-0.312,0.04-0.469
	c0.025-0.318,0.044-0.638,0.06-0.96c0.007-0.142,0.016-0.283,0.021-0.426C23.989,20.922,24,20.461,24,20s-0.011-0.922-0.029-1.382
	c-0.005-0.143-0.014-0.284-0.021-0.426c-0.016-0.322-0.036-0.642-0.06-0.96c-0.012-0.157-0.025-0.313-0.04-0.469
	c-0.029-0.316-0.063-0.628-0.1-0.938c-0.016-0.137-0.031-0.274-0.049-0.409c-0.058-0.433-0.122-0.861-0.197-1.276
	c-0.001-0.004-0.001-0.008-0.002-0.011c-0.076-0.419-0.162-0.824-0.254-1.22c-0.028-0.121-0.06-0.237-0.09-0.356
	c-0.069-0.273-0.141-0.54-0.218-0.799c-0.039-0.13-0.078-0.256-0.119-0.382c-0.079-0.246-0.163-0.482-0.251-0.712
	c-0.042-0.11-0.082-0.223-0.125-0.329c-0.12-0.292-0.246-0.57-0.379-0.83c-0.013-0.025-0.024-0.056-0.037-0.081l14.685,1.985
	C37.521,13.554,38,16.703,38,20c0,3.299-0.48,6.45-1.288,8.602l-14.683,1.98C22.042,30.557,22.053,30.526,22.066,30.501z M56,26
	l-4.657,0.628C51.764,24.642,52,22.353,52,20c0-2.35-0.235-4.636-0.655-6.62l4.521,0.611L56,14c0.923,0,2,1.571,2,6S56.923,26,56,26
	z"/>
<g>
</g>
<g>
</g>
<g>
</g>
<g>
</g>
<g>
</g>
<g>
</g>
<g>
</g>
<g>
</g>
<g>
</g>
<g>
</g>
<g>
</g>
<g>
</g>
<g>
</g>
<g>
</g>
<g>
</g>
</svg>
