<svg xmlns="http://www.w3.org/2000/svg" xmlns:xlink="http://www.w3.org/1999/xlink" id="svg" version="1.1" x="0" y="0" width="500" height="500" viewBox="0 0 500 500">
  <g class="window" fill="#fff" stroke-width="34">
    <path d="M70.152 391.714L428.048 391.714 428.048 455.727 70.152 455.727 70.152 391.714z"/>
    <path d="M100.02 50.31L100.02 391.714 398.749 391.714 398.749 221.012 398.749 50.31 100.02 50.31z" />
    <g class="window_close">
      <path d="M100.436 50.31L249.8 50.31 249.8 221.012 100.436 221.012 100.436 50.31z" />
      <path d="M100.436 221.012L249.8 221.012 249.8 391.714 100.436 391.714 100.436 221.012z" />
      <path d="M248.969 50.31L398.333 50.31 398.333 221.012 248.969 221.012 248.969 50.31z" />
      <path d="M248.969 221.012L398.333 221.012 398.333 391.714 248.969 391.714 248.969 221.012z" />
    </g>
    <g class="window_open">
      <path d="M491.675 13.663L397.798 49.315 397.798 220.017 491.675 220.017 491.675 13.663z" />
      <path d="M491.675 220.017L397.798 220.017 397.798 390.719 491.675 418.682 491.675 220.017z" />
      <path d="M9.453 11.934L100.302 47.586 100.302 218.288 9.453 218.288 9.453 11.934z" />
      <path d="M9.453 218.288L100.302 218.288 100.302 388.99 9.453 416.953 9.453 218.288z" />
    </g>
  </g>
</svg>