<svg height="682pt" viewBox="-37 -21 682 682.66669" width="682pt" xmlns="http://www.w3.org/2000/svg"><path d="m585.90625 640h-469.332031c-11.78125 0-21.332031-9.550781-21.332031-21.332031v-277.335938c0-5.886719 4.773437-10.664062 10.664062-10.664062s10.667969 4.777343 10.667969 10.664062v277.335938h469.332031v-597.335938h-469.332031v120.640625c0 5.894532-4.777344 10.667969-10.667969 10.667969s-10.664062-4.773437-10.664062-10.667969v-120.640625c0-11.78125 9.550781-21.332031 21.332031-21.332031h469.332031c11.78125 0 21.332031 9.550781 21.332031 21.332031v597.335938c0 11.78125-9.550781 21.332031-21.332031 21.332031zm-32-42.664062h-405.335938c-5.886718 0-10.664062-4.777344-10.664062-10.671876v-138.664062c0-5.890625 4.777344-10.664062 10.664062-10.664062h405.335938c5.890625 0 10.664062 4.773437 10.664062 10.664062v138.664062c0 5.894532-4.773437 10.671876-10.664062 10.671876zm-394.667969-21.335938h384v-117.332031h-384zm394.667969-160h-405.335938c-5.886718 0-10.664062-4.773438-10.664062-10.667969v-64c0-5.886719 4.777344-10.664062 10.664062-10.664062 5.894532 0 10.667969 4.777343 10.667969 10.664062v53.335938h384v-330.667969h-394.667969c-5.886718 0-10.664062-4.777344-10.664062-10.664062 0-5.894532 4.777344-10.671876 10.664062-10.671876h405.335938c5.890625 0 10.664062 4.777344 10.664062 10.671876v351.996093c0 5.894531-4.773437 10.667969-10.664062 10.667969zm0 0"/><path d="m553.90625 416h-405.335938c-5.886718 0-10.664062-4.773438-10.664062-10.667969v-64c0-5.886719 4.777344-10.664062 10.664062-10.664062 5.894532 0 10.667969 4.777343 10.667969 10.664062v53.335938h384v-330.667969h-394.667969c-5.886718 0-10.664062-4.777344-10.664062-10.664062 0-5.894532 4.777344-10.671876 10.664062-10.671876h405.335938c5.890625 0 10.664062 4.777344 10.664062 10.671876v351.996093c0 5.894531-4.773437 10.667969-10.664062 10.667969zm0 0"/><path d="m553.90625 597.335938h-405.335938c-5.886718 0-10.664062-4.777344-10.664062-10.671876v-138.664062c0-5.890625 4.777344-10.664062 10.664062-10.664062h405.335938c5.890625 0 10.664062 4.773437 10.664062 10.664062v138.664062c0 5.894532-4.773437 10.671876-10.664062 10.671876zm-394.667969-21.335938h384v-117.332031h-384zm0 0"/><path d="m553.90625 416h-405.335938c-5.886718 0-10.664062-4.773438-10.664062-10.667969v-64c0-5.886719 4.777344-10.664062 10.664062-10.664062 5.894532 0 10.667969 4.777343 10.667969 10.664062v53.335938h384v-330.667969h-394.667969c-5.886718 0-10.664062-4.777344-10.664062-10.664062 0-5.894532 4.777344-10.671876 10.664062-10.671876h405.335938c5.890625 0 10.664062 4.777344 10.664062 10.671876v351.996093c0 5.894531-4.773437 10.667969-10.664062 10.667969zm0 0"/><path d="m415.242188 352h-405.332032c-3.667968-.003906-7.082031-1.890625-9.03125-5-1.945312-3.101562-2.160156-6.992188-.574218-10.296875l138.667968-287.996094c1.777344-3.691406 5.507813-6.035156 9.597656-6.042969h405.335938c3.667969.007813 7.078125 1.890626 9.023438 4.996094 1.949218 3.113282 2.167968 6.996094.578124 10.304688l-138.667968 287.996094c-1.777344 3.6875-5.507813 6.035156-9.597656 6.039062zm-388.367188-21.332031h381.667969l128.390625-266.667969h-381.664063zm0 0"/><path d="m388.425781 309.332031h-310.625c-3.667969 0-7.078125-1.890625-9.023437-4.996093-1.949219-3.105469-2.167969-6.996094-.578125-10.296876l97.589843-202.667968c1.777344-3.691406 5.507813-6.035156 9.597657-6.039063h310.625c3.667969.003907 7.074219 1.890625 9.023437 5 1.953125 3.105469 2.167969 6.992188.578125 10.296875l-97.589843 202.667969c-1.777344 3.6875-5.507813 6.035156-9.597657 6.035156zm-293.644531-21.332031h286.933594l87.304687-181.335938h-286.933593zm0 0"/><path d="m553.90625 597.335938h-405.335938c-5.886718 0-10.664062-4.777344-10.664062-10.671876v-138.664062c0-5.890625 4.777344-10.664062 10.664062-10.664062h405.335938c5.890625 0 10.664062 4.773437 10.664062 10.664062v138.664062c0 5.894532-4.773437 10.671876-10.664062 10.671876zm-394.667969-21.335938h384v-117.332031h-384zm0 0"/><path d="m553.90625 266.664062c-2.832031 0-5.539062-1.121093-7.542969-3.125l-64-64c-4.042969-4.183593-3.984375-10.835937.132813-14.949218 4.113281-4.117188 10.765625-4.175782 14.953125-.132813l63.996093 64c3.054688 3.050781 3.964844 7.640625 2.316407 11.625-1.652344 3.984375-5.542969 6.582031-9.855469 6.582031zm0 0"/><path d="m287.238281 416c-2.828125 0-5.539062-1.125-7.539062-3.125l-64-64c-4.042969-4.1875-3.984375-10.835938.128906-14.953125 4.113281-4.113281 10.769531-4.171875 14.953125-.128906l64 64c3.046875 3.050781 3.960938 7.636719 2.308594 11.621093-1.648438 3.984376-5.535156 6.585938-9.851563 6.585938zm0 0"/></svg>