<?xml version="1.0" encoding="UTF-8" standalone="no"?>
<!-- Generator: Adobe Illustrator 16.0.3, SVG Export Plug-In . SVG Version: 6.00 Build 0)  -->

<svg
   xmlns:dc="http://purl.org/dc/elements/1.1/"
   xmlns:cc="http://creativecommons.org/ns#"
   xmlns:rdf="http://www.w3.org/1999/02/22-rdf-syntax-ns#"
   xmlns:svg="http://www.w3.org/2000/svg"
   xmlns="http://www.w3.org/2000/svg"
   xmlns:sodipodi="http://sodipodi.sourceforge.net/DTD/sodipodi-0.dtd"
   xmlns:inkscape="http://www.inkscape.org/namespaces/inkscape"
   version="1.1"
   id="Ebene_1"
   x="0px"
   y="0px"
   width="220"
   height="151.035"
   viewBox="0 0 220 151.035"
   enable-background="new 0 0 220 220"
   xml:space="preserve"
   sodipodi:docname="Logo trimmed.svg"
   inkscape:version="0.92.3 (2405546, 2018-03-11)"><metadata
   id="metadata23"><rdf:RDF><cc:Work
       rdf:about=""><dc:format>image/svg+xml</dc:format><dc:type
         rdf:resource="http://purl.org/dc/dcmitype/StillImage" /><dc:title></dc:title></cc:Work></rdf:RDF></metadata><defs
   id="defs21" /><sodipodi:namedview
   pagecolor="#ffffff"
   bordercolor="#666666"
   borderopacity="1"
   objecttolerance="10"
   gridtolerance="10"
   guidetolerance="10"
   inkscape:pageopacity="0"
   inkscape:pageshadow="2"
   inkscape:window-width="2684"
   inkscape:window-height="1420"
   id="namedview19"
   showgrid="false"
   fit-margin-top="0"
   fit-margin-left="0"
   fit-margin-right="0"
   fit-margin-bottom="0"
   inkscape:zoom="1.0727273"
   inkscape:cx="111.86441"
   inkscape:cy="110"
   inkscape:window-x="589"
   inkscape:window-y="257"
   inkscape:window-maximized="0"
   inkscape:current-layer="Ebene_1" />
<rect
   x="86"
   y="24.035"
   width="48"
   height="47"
   id="rect2"
   style="fill:#1b1464" />
<rect
   x="90"
   y="8.0349998"
   width="7"
   height="16"
   id="rect4"
   style="fill:#1b1464" />
<path
   d="m 83.434,151.035 c 0,-15 12.043,-26.576 26.898,-26.576 14.856,0 26.898,11.576 26.898,26.576 z m 116.856,-0.162 c 0,-49.639 -40.467,-89.919 -90.104,-89.919 C 60.548,60.954 20,101.232 20,150.87 v 0.165 h 180.37 z"
   id="path6"
   inkscape:connector-curvature="0"
   style="fill:#3fa9f5" />
<polyline
   points="34.16,171.822 25.117,148.975 39.149,134.942 61.997,143.985 "
   id="polyline8"
   style="fill:#3fa9f5"
   transform="translate(0,-68.965)" />
<polyline
   points="158.16,143.984 181.008,134.942 195.04,148.975 185.998,171.822 "
   id="polyline10"
   style="fill:#3fa9f5"
   transform="translate(0,-68.965)" />
<polygon
   points="220,210.234 220,220 197.854,220 197.702,200.395 "
   id="polygon12"
   style="fill:#3fa9f5"
   transform="translate(0,-68.965)" />
<polygon
   points="22.59,200.395 22.61,220 0,220 0,210.234 "
   id="polygon14"
   style="fill:#3fa9f5"
   transform="translate(0,-68.965)" />
<polygon
   points="140.732,100 78.661,100 109.696,68.965 "
   id="polygon16"
   style="fill:#1b1464"
   transform="translate(0,-68.965)" />
</svg>