<svg xmlns="http://www.w3.org/2000/svg" version="1.1" id="svg" x="0" y="0" viewBox="0 0 612 612" xml:space="preserve">
  <path d="M385.09 52.42c-4.32-10.23-10.51-19.4-18.39-27.28s-17.05-14.06-27.28-18.39C328.82 2.27 317.58 0 306 0s-22.82 2.27-33.42 6.76c-10.23 4.33-19.4 10.51-27.28 18.39 -7.87 7.87-14.06 17.05-18.39 27.28 -4.48 10.6-6.76 21.85-6.76 33.42v289.85c-12.61 10.58-23.26 23.45-31.24 37.86 -10.9 19.7-16.67 42.07-16.67 64.7 0 18.04 3.54 35.56 10.52 52.07 6.74 15.93 16.38 30.23 28.65 42.51 12.27 12.27 26.58 21.92 42.51 28.65 16.51 6.98 34.03 10.52 52.07 10.52s35.56-3.54 52.07-10.52c15.93-6.74 30.23-16.38 42.51-28.65 12.27-12.27 21.92-26.58 28.65-42.51 6.98-16.51 10.52-34.03 10.52-52.07 0-22.63-5.76-45-16.67-64.7 -7.98-14.41-18.63-27.28-31.24-37.86V85.85C391.84 74.27 389.57 63.02 385.09 52.42zM411.52 478.25c0 58.28-47.24 105.52-105.52 105.52s-105.52-47.24-105.52-105.52c0-37.02 19.07-69.57 47.91-88.41V85.85c0-31.82 25.8-57.61 57.61-57.61l0 0c31.82 0 57.61 25.8 57.61 57.61v4.25H312.9c-7.79 0-14.11 6.32-14.11 14.12s6.32 14.12 14.12 14.12h50.71v28.23H312.9c-7.79 0-14.11 6.32-14.11 14.12s6.32 14.12 14.12 14.12h50.71v28.23H312.9c-7.79 0-14.11 6.32-14.11 14.12 0 7.8 6.32 14.12 14.12 14.12h50.71v158.59C392.46 408.67 411.52 441.23 411.52 478.25z"/>
  <path class="svg_state" d="M351.61 408.22l-9.95-6.5v-11.89 -101.88c0-19.66-16-35.66-35.66-35.66s-35.66 16-35.66 35.66v101.88 11.89l-9.95 6.5c-23.77 15.52-37.95 41.7-37.95 70.03 0 22.32 8.69 43.31 24.48 59.09 15.78 15.78 36.77 24.48 59.09 24.48s43.31-8.69 59.09-24.47c15.78-15.78 24.48-36.77 24.48-59.09C389.56 449.92 375.37 423.74 351.61 408.22z"/>
</svg>