<?xml version="1.0" encoding="iso-8859-1"?>
<!-- Generator: Adobe Illustrator 19.0.0, SVG Export Plug-In . SVG Version: 6.00 Build 0)  -->
<svg xmlns="http://www.w3.org/2000/svg" xmlns:xlink="http://www.w3.org/1999/xlink" version="1.1" id="Layer_1" x="0px" y="0px" viewBox="0 0 512 512" style="enable-background:new 0 0 512 512;" xml:space="preserve" width="512" height="512">
<g>
<path d="M483,351.5v-30c0-23.591-9.086-45.861-25.585-62.708c-12.055-12.309-27.055-20.66-43.415-24.424V206.5h-40v27.868  c-16.36,3.764-31.36,12.115-43.415,24.424C314.086,275.638,305,297.908,305,321.5v33.244c0,4.564-1.258,8.366-3.543,10.707  C285.041,382.266,276,404.039,276,426.757v21.816h116.564C382.207,449.314,374,457.957,374,468.5c0,11.027,8.973,20,20,20  s20-8.973,20-20c0-10.543-8.207-19.186-18.564-19.927H512v-23.375c0-22.057-8.822-43.171-24.842-59.454  C484.516,363.059,483,357.867,483,351.5z M319.81,408.573c2.381-5.498,5.84-10.643,10.27-15.181  C339.701,383.536,345,369.81,345,354.743V321.5c0-26.847,21.616-48.986,48.209-49.41h1.581C421.384,272.514,443,294.653,443,321.5  v30c0,21.818,8.508,35.044,15.645,42.298c4.334,4.405,7.688,9.417,9.951,14.775H319.81z M452,23.5H60c-33.084,0-60,26.916-60,60v256  c0,33.084,26.916,60,60,60h178.99c3.138-14.118,8.704-27.62,16.49-40H60c-11.028,0-20-8.972-20-20V95.763l216,160.663L472,95.763  v122.656c4.91,3.757,9.588,7.888,13.993,12.385c11.049,11.282,19.795,24.248,26.007,38.304V83.5C512,50.416,485.084,23.5,452,23.5z   M63.647,63.5h384.706L256,206.574L63.647,63.5z"/>
</g>
</svg>
